<?xml version="1.0" standalone="no"?>
<!DOCTYPE svg PUBLIC "-//W3C//DTD SVG 1.1//EN" "http://www.w3.org/Graphics/SVG/1.1/DTD/svg11.dtd" >
<svg>
<metadata>
Created by FontForge 20120731 at Thu Sep 22 02:33:30 2016
 By ,,,
(c) 2013-2015 Typodermic Fonts Inc. See attached license agreement. If agreement is missing visit typodermicfonts.com for more info.
</metadata>
<defs>
<font id="BuiltTitlingRg-Bold" horiz-adv-x="453" >
  <font-face 
    font-family="Built Titling Rg"
    font-weight="700"
    font-stretch="normal"
    units-per-em="1000"
    panose-1="2 11 8 6 3 2 2 8 2 4"
    ascent="762"
    descent="-238"
    cap-height="757"
    bbox="-173 -238 870 962"
    underline-thickness="20"
    underline-position="-123"
    unicode-range="U+0017-25CA"
  />
<missing-glyph horiz-adv-x="809" 
d="M405 -169q-85 0 -146 4t-102 20.5t-65.5 50.5t-37.5 95t-16.5 153t-3.5 225t3.5 225t16.5 153t37.5 95t65.5 51t101.5 20.5t146.5 3.5t146.5 -3.5t101.5 -20.5t65.5 -51t37 -95t16 -153t3.5 -225q0 -132 -3.5 -224.5t-16 -153.5t-37 -95t-65.5 -50.5t-101.5 -20.5
t-146.5 -4zM403 212q9 34 15.5 54t11 31.5t9.5 16t11 8.5q19 11 38.5 17t41.5 20q15 10 26 22t20 30t17.5 44t18.5 65q7 28 11 51.5t4 43.5q0 54 -33.5 86t-112.5 53q-54 14 -89 14q-53 0 -83.5 -30.5t-48.5 -99.5q-8 -29 -10.5 -46.5t-2.5 -33.5l127 -33q4 42 16.5 62.5
t29.5 20.5q29 0 42 -11.5t13 -27.5q0 -8 -2 -16t-4 -20q-6 -23 -10.5 -36.5t-12 -21.5t-19 -14t-30.5 -14q-22 -10 -38.5 -19.5t-28 -21t-19.5 -26t-13 -33.5q-8 -31 -15 -57t-9 -43zM394 136l-151 40l-39 -146l151 -41z" />
    <glyph glyph-name="copyright" unicode="&#x28;C&#x29;" horiz-adv-x="630" 
d="M75 49q-14 17 -24 37.5t-16.5 55.5t-9.5 91.5t-3 145.5t3 145t9.5 91t16.5 55t24 38q14 17 33.5 29t48 19.5t67.5 10.5t90 3q52 0 91 -3t67.5 -10.5t48.5 -19.5t34 -29q14 -18 24 -38t16.5 -55t9.5 -91t3 -145t-3 -145.5t-9.5 -91.5t-16.5 -55.5t-24 -37.5
q-14 -18 -34 -29.5t-48.5 -19t-67.5 -10.5t-91 -3q-51 0 -90 3t-67.5 10.5t-48 19t-33.5 29.5zM486 103q9 11 16 26t11 44.5t6 78t2 127.5q0 78 -2 126.5t-6 77t-11 43.5t-16 26q-14 17 -53 24.5t-119 7.5t-119 -7.5t-53 -24.5q-9 -11 -15 -25.5t-10 -43t-6 -77t-2 -127.5
t2 -128t6 -78.5t10 -44t15 -25.5q13 -17 52 -23t120 -6q82 0 120.5 6t51.5 23zM416 339q1 -10 1.5 -18.5t0.5 -17.5q0 -31 -3.5 -53.5t-14 -37.5t-30.5 -22t-52 -7q-38 0 -58.5 7t-30.5 24q-5 9 -8.5 20t-6 30t-3.5 48.5t-1 74.5t1 73.5t3.5 46t6 28t8.5 19.5q10 18 30 24.5
t56 6.5q33 0 53 -6.5t31 -20t14.5 -35t3.5 -52.5q0 -8 -0.5 -16.5t-0.5 -18.5h-76q0 31 -0.5 42.5t-2.5 17.5q-3 9 -22 9q-17 0 -20 -9q-1 -4 -2 -9.5t-1.5 -17t-0.5 -30.5v-51v-51.5t0.5 -31t1.5 -17t2 -9.5q2 -5 6.5 -7.5t16.5 -2.5q14 0 18 9q4 11 4.5 23.5t0.5 37.5h75z
" />
    <glyph glyph-name="registered" unicode="&#x28;R&#x29;" horiz-adv-x="630" 
d="M75 49q-14 17 -24 37.5t-16.5 55.5t-9.5 91.5t-3 145.5t3 145t9.5 91t16.5 55t24 38q14 17 33.5 29t48 19.5t67.5 10.5t90 3q52 0 91 -3t67.5 -10.5t48.5 -19.5t34 -29q14 -18 24 -38t16.5 -55t9.5 -91t3 -145t-3 -145.5t-9.5 -91.5t-16.5 -55.5t-24 -37.5
q-14 -18 -34 -29.5t-48.5 -19t-67.5 -10.5t-91 -3q-51 0 -90 3t-67.5 10.5t-48 19t-33.5 29.5zM486 103q9 11 16 26t11 44.5t6 78t2 127.5q0 78 -2 126.5t-6 77t-11 43.5t-16 26q-14 17 -53 24.5t-119 7.5t-119 -7.5t-53 -24.5q-9 -11 -15 -25.5t-10 -43t-6 -77t-2 -127.5
t2 -128t6 -78.5t10 -44t15 -25.5q13 -17 52 -23t120 -6q82 0 120.5 6t51.5 23zM343 189q-2 5 -3.5 10t-3.5 16.5t-4.5 31t-5.5 53.5q-3 26 -6.5 33.5t-11.5 7.5h-12v-152h-81v390h118q52 0 69.5 -24.5t17.5 -80.5q0 -27 -2 -44t-6 -27.5t-10.5 -16t-14.5 -9.5v-10
q3 -2 6.5 -5.5t6.5 -10.5q4 -10 8 -26t8 -50q3 -24 5 -38t3 -22.5t2 -13t2 -8.5v-4h-85zM319 413q11 0 15.5 9.5t4.5 37.5q0 23 -5 30.5t-17 7.5h-21v-85h23z" />
    <glyph glyph-name="uni2117" unicode="&#x28;P&#x29;" horiz-adv-x="630" 
d="M75 49q-14 17 -24 37.5t-16.5 55.5t-9.5 91.5t-3 145.5t3 145t9.5 91t16.5 55t24 38q14 17 33.5 29t48 19.5t67.5 10.5t90 3q52 0 91 -3t67.5 -10.5t48.5 -19.5t34 -29q14 -18 24 -38t16.5 -55t9.5 -91t3 -145t-3 -145.5t-9.5 -91.5t-16.5 -55.5t-24 -37.5
q-14 -18 -34 -29.5t-48.5 -19t-67.5 -10.5t-91 -3q-51 0 -90 3t-67.5 10.5t-48 19t-33.5 29.5zM486 103q9 11 16 26t11 44.5t6 78t2 127.5q0 78 -2 126.5t-6 77t-11 43.5t-16 26q-14 17 -53 24.5t-119 7.5t-119 -7.5t-53 -24.5q-9 -11 -15 -25.5t-10 -43t-6 -77t-2 -127.5
t2 -128t6 -78.5t10 -44t15 -25.5q13 -17 52 -23t120 -6q82 0 120.5 6t51.5 23zM219 189v390h117q26 0 43 -7t27 -23t14 -41.5t4 -62.5q0 -38 -4 -64.5t-14 -43t-27 -24t-43 -7.5h-36v-117h-81zM322 386q11 0 16 13t5 48q0 31 -5.5 41t-17.5 10h-20v-112h22z" />
    <glyph glyph-name=".notdef" horiz-adv-x="809" 
d="M405 -169q-85 0 -146 4t-102 20.5t-65.5 50.5t-37.5 95t-16.5 153t-3.5 225t3.5 225t16.5 153t37.5 95t65.5 51t101.5 20.5t146.5 3.5t146.5 -3.5t101.5 -20.5t65.5 -51t37 -95t16 -153t3.5 -225q0 -132 -3.5 -224.5t-16 -153.5t-37 -95t-65.5 -50.5t-101.5 -20.5
t-146.5 -4zM403 212q9 34 15.5 54t11 31.5t9.5 16t11 8.5q19 11 38.5 17t41.5 20q15 10 26 22t20 30t17.5 44t18.5 65q7 28 11 51.5t4 43.5q0 54 -33.5 86t-112.5 53q-54 14 -89 14q-53 0 -83.5 -30.5t-48.5 -99.5q-8 -29 -10.5 -46.5t-2.5 -33.5l127 -33q4 42 16.5 62.5
t29.5 20.5q29 0 42 -11.5t13 -27.5q0 -8 -2 -16t-4 -20q-6 -23 -10.5 -36.5t-12 -21.5t-19 -14t-30.5 -14q-22 -10 -38.5 -19.5t-28 -21t-19.5 -26t-13 -33.5q-8 -31 -15 -57t-9 -43zM394 136l-151 40l-39 -146l151 -41z" />
    <glyph glyph-name="uni0017" horiz-adv-x="198" 
 />
    <glyph glyph-name="space" unicode=" " horiz-adv-x="198" 
 />
    <glyph glyph-name="exclam" unicode="!" horiz-adv-x="241" 
d="M54 227l-20 561h172l-18 -561h-134zM42 0v151h157v-151h-157z" />
    <glyph glyph-name="quotedbl" unicode="&#x22;" horiz-adv-x="376" 
d="M29 484zM51 484l-22 304h144l-21 -304h-101zM224 484l-22 304h144l-21 -304h-101z" />
    <glyph glyph-name="numbersign" unicode="#" 
d="M265 0v213h-78v-213h-95v213h-77v95h77v143h-77v95h77v211h95v-211h78v211h96v-211h77v-95h-77v-143h77v-95h-77v-213h-96zM265 451h-78v-143h78v143z" />
    <glyph glyph-name="dollar" unicode="$" 
d="M196 -43v125q-88 2 -128.5 32t-40.5 101q0 21 1 39.5t4 35.5h143v-17q0 -29 8 -43.5t40 -14.5q33 0 40 15.5t7 37.5q0 21 -7.5 30.5t-29.5 19.5q-40 19 -82.5 32.5t-75.5 35.5q-16 10 -26 22.5t-15 30t-7 41t-2 55.5q0 42 7.5 71.5t27 48.5t52.5 28t84 11v107h63v-107
q43 -2 72.5 -10t48 -24t27 -42t8.5 -63q0 -32 -3 -54h-144v21q0 26 -9 38t-36 12q-29 0 -37.5 -13t-8.5 -33q0 -21 8 -30t32 -19q23 -9 42 -15t36.5 -11.5t33 -11.5t31.5 -14q17 -8 30 -18.5t21.5 -27.5t12.5 -41.5t4 -59.5q0 -51 -8.5 -86.5t-28 -59t-52 -35t-80.5 -14.5
v-126h-63z" />
    <glyph glyph-name="percent" unicode="%" horiz-adv-x="619" 
d="M22 0zM138 341q-41 0 -64 4.5t-34.5 25.5t-14.5 64.5t-3 122.5q0 78 3 122t14.5 65t34.5 25.5t64 4.5q40 0 63.5 -4.5t35 -25.5t14.5 -65t3 -122q0 -79 -3 -122.5t-14.5 -64.5t-35 -25.5t-63.5 -4.5zM138 444q7 0 11 2t6 13t2.5 34.5t0.5 66.5q0 44 -0.5 68t-2 35.5
t-6 13.5t-11.5 2q-8 0 -12 -2t-5.5 -13.5t-2 -35.5t-0.5 -68q0 -43 0.5 -66.5t2.5 -34.5t6 -13t11 -2zM44 0v5l433 752h97v-5l-434 -752h-96zM485 -17q-41 0 -64 4.5t-34.5 25.5t-14.5 64.5t-3 122.5q0 78 3 122t14.5 65t34.5 25.5t64 4.5q40 0 63.5 -4.5t35 -25.5t14.5 -65
t3 -122q0 -79 -3 -122.5t-14.5 -64.5t-35 -25.5t-63.5 -4.5zM485 86q7 0 11 2t6 13t2.5 34.5t0.5 66.5q0 44 -0.5 68t-2 35.5t-6 13.5t-11.5 2q-8 0 -12 -2t-5.5 -13.5t-2 -35.5t-0.5 -68q0 -43 0.5 -66.5t2.5 -34.5t6 -13t11 -2z" />
    <glyph glyph-name="ampersand" unicode="&#x26;" horiz-adv-x="543" 
d="M404 0l-42 75l-13 -23q-9 -16 -20 -28t-27 -20.5t-38.5 -12.5t-54.5 -4q-64 0 -101.5 9t-56.5 34t-24 68.5t-5 111.5q0 51 3 83t13 54.5t28.5 38.5t50.5 34l38 21l-26 48q-11 19 -18 33t-11 27.5t-6 29.5t-2 39q0 47 7.5 77t27 46.5t54 22.5t87.5 6q45 0 75 -6
t48.5 -24.5t26 -52.5t7.5 -91q0 -42 -4 -70t-13.5 -48t-24 -34t-35.5 -27l-35 -23l45 -76l32 66h144v-5l-104 -185l109 -189v-5h-135zM290 203l-73 129l-20 -13q-6 -4 -9.5 -9t-5.5 -13.5t-2.5 -22.5t-0.5 -36v-29.5t1 -19t2 -12t4 -8.5q5 -8 13.5 -10.5t27.5 -2.5
q23 0 33 5t19 22zM271 506q8 4 14 9t9.5 13t5.5 20.5t2 33.5q0 33 -7 41t-33 8t-33 -8t-7 -41q0 -26 5.5 -38t17.5 -32l9 -16z" />
    <glyph glyph-name="quotesingle" unicode="'" horiz-adv-x="203" 
d="M51 484l-22 304h144l-21 -304h-101z" />
    <glyph glyph-name="parenleft" unicode="(" 
d="M300 -238q-30 32 -57.5 78t-48.5 116t-33 169t-12 237t12 237t33 169t48.5 116t57.5 78h115v-6q-29 -41 -56 -84.5t-47.5 -108.5t-33 -161t-12.5 -241q0 -96 5.5 -170t16 -131t24.5 -99.5t30.5 -76t35 -61.5t37.5 -55v-6h-115z" />
    <glyph glyph-name="parenright" unicode=")" 
d="M38 -238v6q19 27 37.5 55t35 61.5t30.5 76t24.5 99.5t16 130.5t5.5 170.5q0 145 -12.5 241t-33 161t-47.5 108.5t-56 84.5v6h115q30 -32 57.5 -78t48.5 -116t33 -169t12 -237t-12 -237t-33 -169t-48.5 -116t-57.5 -78h-115z" />
    <glyph glyph-name="asterisk" unicode="*" horiz-adv-x="497" 
d="M332 349l-78 136h-11l-78 -136l-81 59l106 117l-3 8l-153 33l32 94l142 -64l7 7l-15 154h97l-15 -154l6 -7l143 64l32 -94l-153 -33l-3 -8l106 -117z" />
    <glyph glyph-name="plus" unicode="+" 
d="M168 168v153h-153v117h153v153h117v-153h153v-117h-153v-153h-117z" />
    <glyph glyph-name="comma" unicode="," horiz-adv-x="225" 
d="M40 -142v6l49 137l-3 9h-52v141h157v-147l-75 -146h-76z" />
    <glyph glyph-name="hyphen" unicode="-" horiz-adv-x="365" 
d="M20 319v124h324v-124h-324z" />
    <glyph glyph-name="period" unicode="." horiz-adv-x="225" 
d="M34 0v151h157v-151h-157z" />
    <glyph glyph-name="slash" unicode="/" 
d="M16 -153l306 1001h115l-306 -1001h-115z" />
    <glyph glyph-name="zero" unicode="0" 
d="M226 -13q-47 0 -80.5 2.5t-56.5 14.5t-36 36.5t-20 68t-9 109.5t-2 161q0 94 2 160t9 109.5t20 68t36 36.5t56.5 14.5t80.5 2.5t81 -2.5t56.5 -14.5t36 -36.5t20.5 -68t9 -109.5t2 -160q0 -95 -2 -161t-9 -109.5t-20.5 -68t-36 -36.5t-56.5 -14.5t-81 -2.5zM226 156
q17 0 26.5 4t14.5 25.5t6.5 67.5t1.5 130q0 86 -1 133t-5.5 69t-14.5 26t-28 4t-27.5 -4t-14 -26t-5.5 -69t-1 -133q0 -84 1.5 -130t6 -67.5t14 -25.5t26.5 -4z" />
    <glyph glyph-name="one" unicode="1" 
d="M40 0v168h110v330h-112v139h68q20 0 33.5 2t21.5 9t12 20.5t5 35.5l3 53h130v-589h104v-168h-375z" />
    <glyph glyph-name="two" unicode="2" 
d="M38 0v174l98 98l55 55t33 34.5t18.5 23t12.5 21.5t9 21.5t4.5 22t2 29.5t0.5 43q0 32 -2.5 48t-7.5 27q-3 8 -11 13t-28 5q-33 0 -41 -18q-3 -10 -5.5 -31t-2.5 -69v-14.5t1 -11.5h-148q-2 13 -2 28.5v47.5q0 60 7 102.5t28 69.5t60 39t103 12q36 0 63 -3t47 -10
t34 -18.5t24 -28.5q8 -14 15 -30.5t12 -38t8 -50t3 -67.5q0 -45 -3 -79t-14 -64t-33.5 -60t-61.5 -67l-87 -83l3 -9h189v-162h-383z" />
    <glyph glyph-name="three" unicode="3" 
d="M370 387q15 -9 26.5 -17t20 -25.5t12.5 -50t4 -90.5q0 -61 -7 -102.5t-29 -67t-63 -36.5t-110 -11q-66 0 -106 14t-61 43t-28 73.5t-7 104.5q0 14 0.5 23.5t1.5 16.5h147q-1 -6 -1 -11.5v-11.5q0 -25 2 -38t7 -25q5 -11 14.5 -16t30.5 -5q33 0 46 14t13 59q0 35 -1.5 55
t-7.5 29.5t-18 12t-32 2.5h-80v119h80q16 0 26.5 2t15.5 11t7 28t2 52q0 28 -2 44t-7 24t-15.5 9.5t-26.5 1.5q-40 0 -44 -19q-2 -8 -5 -22.5t-3 -41.5v-11t1 -9h-147q-1 8 -1 15.5v14.5q-1 61 7.5 104t30.5 70t61 39t100 12t100 -7t61 -29t30 -63t8 -109q0 -42 -2.5 -69.5
t-9 -46t-16.5 -30.5t-25 -22v-7z" />
    <glyph glyph-name="four" unicode="4" 
d="M237 0v128h-224v147l220 482h150v-491h57v-138h-57v-128h-146zM242 452h-11l-73 -177l4 -9h80v186z" />
    <glyph glyph-name="five" unicode="5" 
d="M205 596l-9 -87q11 4 32 8.5t51 4.5q38 0 66.5 -11.5t47.5 -37t28.5 -66.5t9.5 -101q0 -55 -2.5 -95.5t-7 -71t-11.5 -52.5t-17 -38q-10 -17 -24 -29t-34.5 -19.5t-49 -10.5t-65.5 -3q-63 0 -101.5 14t-59.5 43t-27.5 73.5t-6.5 104.5q0 32 3 68h145q-1 -7 -1 -16.5
v-17.5q0 -47 7.5 -73.5t40.5 -26.5q23 0 32 4t12 14q5 17 7.5 44.5t2.5 82.5q0 28 -2 45t-8.5 26t-18 12t-30.5 3q-30 0 -51 -18l-122 39l24 349h353v-161h-214z" />
    <glyph glyph-name="six" unicode="6" 
d="M277 549q1 3 1 18q0 32 -11 40t-40 8q-21 0 -31 -7.5t-14 -41.5q-1 -6 -1.5 -17.5t-1 -25.5t-1 -29.5t-0.5 -29.5q23 4 44.5 6t39.5 2q42 0 73.5 -10t52.5 -34.5t31.5 -67t10.5 -107.5q0 -84 -9 -136t-32 -81t-62 -39t-100 -10q-44 0 -76.5 4.5t-55 18t-37 40t-22 70
t-10.5 107t-3 152.5q0 94 2 160t9 109.5t20 68t36 36.5t56.5 14.5t80.5 2.5q66 0 104.5 -6t58.5 -28t25.5 -66.5t5.5 -120.5h-144zM179 275q0 -23 0.5 -39t2 -27t3 -19t4.5 -15q5 -11 14 -15t26 -4q16 0 25 2.5t13.5 15t6 39t1.5 73.5q0 39 -10.5 52t-36.5 13
q-21 0 -32.5 -3.5t-16.5 -7.5v-65z" />
    <glyph glyph-name="seven" unicode="7" 
d="M68 0l167 586l-4 10h-207v161h405v-86l-185 -671h-176z" />
    <glyph glyph-name="eight" unicode="8" 
d="M373 387q15 -9 26.5 -17t19.5 -25.5t12 -50t4 -90.5q0 -61 -7 -102.5t-29 -67t-63 -36.5t-110 -11q-68 0 -109 11t-63 36.5t-29 67t-7 102.5q0 58 4 90.5t12 50t19.5 25.5t26.5 17v7q-15 10 -25 22t-16.5 30.5t-9 46t-2.5 69.5q0 68 8 109t30 63t61 29t100 7t100 -7
t61.5 -29t30.5 -63t8 -109q0 -42 -2.5 -69.5t-9 -46t-16.5 -30.5t-25 -22v-7zM226 153q33 0 46 15t13 60q0 36 -2 56.5t-8.5 30.5t-18 12t-30.5 2t-30.5 -2t-17.5 -12t-8 -30.5t-2 -56.5q0 -45 13 -60t45 -15zM226 444q15 0 25 2t15.5 11.5t8 28.5t2.5 53q0 28 -2 44.5
t-7 24.5t-15.5 10t-26.5 2t-26 -2t-15 -9.5t-7 -24t-2 -44.5q0 -34 2 -53.5t8 -29t15.5 -11.5t24.5 -2z" />
    <glyph glyph-name="nine" unicode="9" 
d="M113 0v9q21 33 40.5 69.5t36.5 73.5t30.5 72.5t22.5 67.5l-9 6q-5 -3 -20.5 -5.5t-35.5 -2.5q-50 0 -80.5 10t-47.5 36.5t-22.5 73t-5.5 119.5q0 78 7 125.5t28.5 73t61.5 34t107 8.5q69 0 109.5 -8.5t61.5 -35t27.5 -75t6.5 -128.5q0 -73 -9 -140t-26 -130.5t-43.5 -126
t-60.5 -126.5h-179zM267 428q4 13 5.5 27t1.5 42q0 22 -0.5 38t-2 27t-3.5 19t-5 15q-5 11 -13.5 15.5t-26.5 4.5q-15 0 -24 -2.5t-13.5 -15.5t-6 -39t-1.5 -73q0 -39 10 -52t36 -13q17 0 27 2t16 5z" />
    <glyph glyph-name="colon" unicode=":" horiz-adv-x="251" 
d="M47 0v151h157v-151h-157zM47 409v151h157v-151h-157z" />
    <glyph glyph-name="semicolon" unicode=";" horiz-adv-x="251" 
d="M53 -142v6l49 137l-3 9h-52v141h157v-147l-75 -146h-76zM47 409v151h157v-151h-157z" />
    <glyph glyph-name="less" unicode="&#x3c;" 
d="M433 137l-418 184v117l418 184h5v-126l-271 -111v-11l271 -110v-127h-5z" />
    <glyph glyph-name="equal" unicode="=" 
d="M15 192v116h423v-116h-423zM15 451v117h423v-117h-423z" />
    <glyph glyph-name="greater" unicode="&#x3e;" 
d="M21 137h-6v127l272 110v11l-272 111v126h6l417 -184v-117z" />
    <glyph glyph-name="question" unicode="?" horiz-adv-x="416" 
d="M138 227q-2 17 -2 44.5v59.5q0 40 16.5 65.5t54.5 55.5q16 13 25.5 21.5t14 18.5t5.5 24.5t1 38.5q0 35 -8 48.5t-37 13.5t-37.5 -13.5t-8.5 -48.5v-19.5t1 -13.5h-131q-4 14 -5.5 32t-1.5 49q0 48 9.5 80t31 51.5t56.5 27.5t86 8q56 0 92 -10t57 -32.5t29.5 -59
t8.5 -89.5q0 -40 -1.5 -67.5t-6 -47t-11.5 -34t-19 -27.5q-18 -20 -35.5 -31t-31.5 -26q-5 -5 -8.5 -11t-5.5 -18.5t-2.5 -33.5t-0.5 -56h-135zM126 0v151h157v-151h-157z" />
    <glyph glyph-name="at" unicode="@" horiz-adv-x="674" 
d="M653 -13l1.5 -12t0.5 -9q0 -36 -11.5 -68t-45.5 -56.5t-94.5 -38.5t-158.5 -14q-109 0 -176.5 16t-100.5 64q-10 14 -17 37t-11.5 65t-6.5 107.5t-2 164.5q0 109 3 176.5t9.5 107t16 59t22.5 32.5q37 35 101 49t159 14q81 0 138.5 -10t93.5 -35q17 -11 29.5 -29
t20.5 -53.5t12 -94.5t4 -152q0 -71 -1 -113t-4 -66.5t-7.5 -36.5t-11.5 -23q-12 -20 -35 -27t-63 -7q-50 0 -74.5 9.5t-37.5 24.5h-11q-11 -13 -29 -23.5t-52 -10.5q-22 0 -37.5 7t-25.5 27.5t-14.5 56.5t-4.5 94q0 82 4 131.5t13.5 76.5t24 35.5t35.5 8.5q30 0 48 -11
t30 -26l3 2l1 25h88v-306q0 -21 7 -28q7 -10 26 -10q13 0 18.5 3t9.5 11q1 3 2 9.5t2 25t1 53.5v96q0 76 -2.5 122t-7 71.5t-12 36.5t-17.5 18q-46 29 -164 29q-67 0 -106.5 -10t-61.5 -33q-7 -8 -12 -20t-8 -43.5t-4.5 -88.5t-1.5 -154q0 -89 1 -142t3 -83t5.5 -42.5
t8.5 -20.5q10 -16 25.5 -26t38.5 -15t55.5 -7t76.5 -2q64 0 103 5t60 15t28 25.5t7 36.5h93zM382 348q-5 5 -11.5 8t-18.5 3q-7 0 -11 -1.5t-6 -6.5q-2 -3 -3 -8t-2 -17t-1.5 -34t-0.5 -59q0 -29 0.5 -46.5t1.5 -27t2 -14.5t3 -8q5 -8 17 -8t18.5 3.5t11.5 9.5v206z" />
    <glyph glyph-name="A" unicode="A" horiz-adv-x="445" 
d="M271 0l-13 175h-76l-12 -175h-158l81 757h264l76 -757h-162zM225 599h-11l-25 -271h62z" />
    <glyph glyph-name="B" unicode="B" horiz-adv-x="460" 
d="M34 0v757h225q51 0 84.5 -11.5t54 -36t29 -63t8.5 -93.5q0 -41 -2.5 -67t-9 -43t-16.5 -28t-25 -21v-7q15 -9 26.5 -17t20 -25.5t12.5 -50t4 -90.5q0 -55 -8 -93.5t-27.5 -63t-52.5 -36t-84 -11.5h-239zM241 153q23 0 33.5 14t10.5 58q0 52 -9 74t-31 22h-54v-168h50z
M237 446q23 0 31.5 18t8.5 69q0 45 -10.5 59.5t-33.5 14.5h-42v-161h46z" />
    <glyph glyph-name="C" unicode="C" horiz-adv-x="452" 
d="M424 290q3 -36 3 -68q0 -60 -6.5 -104.5t-27.5 -73.5t-59.5 -43t-101.5 -14q-75 0 -114.5 13.5t-58.5 48.5q-10 16 -17 38t-11.5 59t-6.5 94t-2 145t2 143t6.5 90t11.5 55t17 37q20 34 58 47t110 13q64 0 103 -12t60 -39t28 -69.5t7 -102.5q0 -14 -0.5 -31t-1.5 -36h-147
q0 30 -0.5 50t-1.5 33t-2.5 20.5l-2.5 12.5q-4 19 -42 19q-19 0 -27.5 -4.5t-11.5 -14.5q-3 -8 -4.5 -18.5t-3 -32t-2 -59.5t-0.5 -99q0 -63 0.5 -101t2 -60t3 -33t4.5 -19q3 -10 12 -14t32 -4q30 0 36 17q4 10 6 21t3 24.5t1.5 31t0.5 40.5h145z" />
    <glyph glyph-name="D" unicode="D" horiz-adv-x="471" 
d="M34 0v757h211q72 0 110 -13.5t58 -46.5q10 -17 16.5 -36.5t11 -53.5t6.5 -88t2 -140t-2 -140.5t-6.5 -88.5t-11 -54t-16.5 -36q-10 -17 -24 -28.5t-34 -18.5t-47 -10t-63 -3h-211zM241 167q19 0 27 4t12 14q2 7 4 16.5t3 30.5t1.5 56.5t0.5 93.5t-0.5 94.5t-1.5 57.5
t-3 31t-4 17q-4 8 -12 12t-27 4h-50v-431h50z" />
    <glyph glyph-name="E" unicode="E" horiz-adv-x="398" 
d="M34 0v757h335v-160h-178v-133h175v-153h-175v-143h177v-168h-334z" />
    <glyph glyph-name="F" unicode="F" horiz-adv-x="382" 
d="M34 0v757h330v-160h-173v-151h170v-154h-170v-292h-157z" />
    <glyph glyph-name="G" unicode="G" horiz-adv-x="449" 
d="M286 293h-73v152h214q1 -20 1.5 -58t0.5 -91q0 -62 -2 -103t-6.5 -68t-11 -44t-15.5 -32q-10 -18 -23.5 -29.5t-33.5 -19t-47 -10.5t-63 -3q-73 0 -110.5 13.5t-57.5 48.5q-10 17 -17 37.5t-11.5 56.5t-6.5 93t-2 149q0 88 2 143t6.5 90t11.5 55t17 37q20 34 58 47
t110 13q83 0 125 -21.5t59 -72.5q13 -42 13 -111v-21.5t-1 -17.5h-146q1 3 1 6.5v6.5q0 25 -2 37t-4 20q-4 19 -46 19q-20 0 -29.5 -4.5t-13.5 -14.5q-2 -8 -4 -18.5t-3 -32t-1.5 -59.5t-0.5 -99q0 -65 0.5 -103.5t1.5 -60t2.5 -31t3.5 -16.5q8 -22 48 -22q20 0 29.5 4.5
t15.5 14.5q3 5 5.5 10.5t3.5 14.5t1.5 22.5t0.5 36.5v36z" />
    <glyph glyph-name="H" unicode="H" horiz-adv-x="484" 
d="M291 0v311h-98v-311h-161v757h161v-293h98v293h161v-757h-161z" />
    <glyph glyph-name="I" unicode="I" horiz-adv-x="233" 
d="M36 0v757h161v-757h-161z" />
    <glyph glyph-name="J" unicode="J" horiz-adv-x="443" 
d="M255 757h161v-367q0 -86 -2 -144t-6.5 -96.5t-11 -61.5t-16.5 -39q-10 -17 -24 -29t-34.5 -19.5t-49 -10.5t-65.5 -3q-63 0 -101.5 14t-59.5 43t-27.5 73.5t-6.5 104.5q0 32 3 68h140q0 -23 0.5 -40.5t1.5 -31t3 -24.5t5 -21q7 -17 36 -17q23 0 32 4t13 14q2 8 4 19t3 33
t1.5 59.5t0.5 100.5v371z" />
    <glyph glyph-name="K" unicode="K" horiz-adv-x="488" 
d="M298 0l-95 340h-10q2 -13 2 -27.5v-28.5v-284h-161v757h161v-276q0 -12 -0.5 -21.5t-1.5 -19.5h10l101 317h165v-5l-115 -338l124 -409v-5h-180z" />
    <glyph glyph-name="L" unicode="L" horiz-adv-x="366" 
d="M34 0v757h157v-589h162v-168h-319z" />
    <glyph glyph-name="M" unicode="M" horiz-adv-x="663" 
d="M487 0v454h-6l-115 -454h-69l-116 454h-6v-454h-143v757h222l70 -329h7l78 329h221l1 -757h-144z" />
    <glyph glyph-name="N" unicode="N" horiz-adv-x="475" 
d="M361 0l-179 406h-6v-406h-143v757h154l106 -263h6v263h144v-757h-82z" />
    <glyph glyph-name="O" unicode="O" 
d="M394 49q-10 -18 -23.5 -29.5t-33.5 -19t-47 -10.5t-63 -3q-73 0 -110.5 13.5t-57.5 48.5q-10 17 -17 37.5t-11.5 55.5t-6.5 91.5t-2 145.5t2 145t6.5 91t11.5 55t17 38q10 17 23.5 29t33.5 19.5t47.5 10.5t63.5 3q72 0 109.5 -14t57.5 -48q10 -18 17 -38t11.5 -55
t6.5 -91t2 -145t-2 -145.5t-6.5 -91.5t-11.5 -55.5t-17 -37.5zM266 174q2 7 4 18t3 33t1.5 59.5t0.5 98.5q0 63 -0.5 101t-1.5 60.5t-3 33.5t-4 18q-4 10 -12 14.5t-27 4.5t-27.5 -4.5t-11.5 -14.5q-3 -7 -4.5 -18t-3 -33.5t-2 -60.5t-0.5 -101q0 -61 0.5 -98.5t2 -59.5
t3 -33t4.5 -18q3 -10 11.5 -14t27.5 -4t27 4t12 14z" />
    <glyph glyph-name="P" unicode="P" horiz-adv-x="450" 
d="M34 0v757h227q51 0 84 -13.5t52.5 -44t27 -80t7.5 -122.5q0 -74 -7.5 -125.5t-27 -83.5t-52.5 -46t-84 -14h-70v-228h-157zM233 384q22 0 31 24.5t9 92.5q0 60 -10.5 79t-33.5 19h-38v-215h42z" />
    <glyph glyph-name="Q" unicode="Q" 
d="M240 -91q-4 5 -7.5 12.5t-9 20.5t-12 33t-16.5 50q-56 2 -87.5 14.5t-48.5 41.5q-10 17 -17 36.5t-11.5 53t-6.5 87t-2 138.5t2 138.5t6.5 87.5t11.5 53t17 36q20 33 57.5 46t110.5 13q36 0 63 -3t47 -10t33.5 -18.5t23.5 -27.5q10 -17 17 -36t11.5 -53t6.5 -87.5
t2 -138.5t-2 -138.5t-6.5 -87t-11.5 -53t-17 -36.5q-8 -15 -21.5 -24.5t-29.5 -16.5q18 -59 31.5 -85.5t22.5 -39.5v-6h-157zM266 195q2 7 4 16t3 29t1.5 56.5t0.5 98.5q0 59 -0.5 95.5t-1.5 58t-3 31.5t-4 17q-4 9 -12 13.5t-27 4.5t-27.5 -4.5t-11.5 -13.5q-3 -7 -4.5 -17
t-3 -31.5t-2 -58t-0.5 -95.5q0 -61 0.5 -97t2 -57t3 -30t4.5 -16q3 -9 11.5 -12t27.5 -3t27 3t12 12z" />
    <glyph glyph-name="R" unicode="R" horiz-adv-x="462" 
d="M282 0q-3 9 -5.5 19.5t-5.5 32t-8 59.5t-12 104q-3 26 -6 42t-7 24.5t-10 11t-13 2.5h-24v-295h-157v757h229q51 0 84 -11.5t52.5 -36t27 -63t7.5 -93.5q0 -59 -4 -92.5t-12.5 -52.5t-20.5 -28.5t-28 -18.5v-6q6 -5 12.5 -11t11.5 -20q8 -18 16.5 -54.5t16.5 -102.5
q6 -46 9 -74t5.5 -45t4 -26t4.5 -17v-5h-167zM235 436q22 0 31 18.5t9 71.5q0 45 -10.5 60t-33.5 15h-40v-165h44z" />
    <glyph glyph-name="S" unicode="S" horiz-adv-x="420" 
d="M250 522q1 8 1 13.5v19.5q0 35 -8.5 48.5t-37.5 13.5t-37 -13.5t-8 -48.5q0 -33 8.5 -46.5t27.5 -24.5q22 -13 41.5 -22t36 -16.5t31.5 -14.5t30 -17q16 -12 28.5 -25.5t20 -35t11.5 -53t4 -78.5q0 -68 -9.5 -113t-32 -72t-61 -38.5t-95.5 -11.5q-94 0 -138 35.5
t-44 124.5q0 29 1.5 58.5t6.5 47.5h131q-2 -6 -2 -13v-15q0 -44 9 -60.5t39 -16.5t39.5 14.5t9.5 62.5q0 29 -9 44t-29 29q-18 12 -38.5 22t-41 19t-39.5 19.5t-34 24.5q-31 27 -37.5 74t-6.5 122q0 53 8.5 89.5t29.5 59t57 32.5t92 10q51 0 85.5 -8t56.5 -27.5t31.5 -51.5
t9.5 -80q0 -31 -1.5 -49t-6.5 -32h-130z" />
    <glyph glyph-name="T" unicode="T" horiz-adv-x="421" 
d="M132 0v597h-119v160h395v-160h-119v-597h-157z" />
    <glyph glyph-name="U" unicode="U" horiz-adv-x="462" 
d="M279 757h156v-524q-1 -47 -4 -78t-7.5 -52t-10.5 -34.5t-14 -26.5q-10 -16 -23.5 -26.5t-33.5 -17t-47 -9t-63 -2.5q-73 0 -111 11.5t-57 43.5q-8 13 -15 26.5t-12 34.5t-7.5 52t-2.5 78v524h161v-524q0 -27 1.5 -42t6.5 -23t14 -10t24 -2t23.5 2t13.5 10t6.5 23t1.5 42
v524z" />
    <glyph glyph-name="V" unicode="V" horiz-adv-x="454" 
d="M102 0l-90 757h170l42 -533h11l40 533h167l-95 -757h-245z" />
    <glyph glyph-name="W" unicode="W" horiz-adv-x="723" 
d="M422 0l-52 464h-11l-56 -464h-222l-67 757h159l34 -515h11l69 515h158l70 -515h11l33 515h150l-65 -757h-222z" />
    <glyph glyph-name="X" unicode="X" horiz-adv-x="464" 
d="M286 0l-51 276h-11l-54 -276h-162v5l98 413l-79 334v5h163l40 -211h11l46 211h152v-5l-82 -334l97 -413v-5h-168z" />
    <glyph glyph-name="Y" unicode="Y" horiz-adv-x="447" 
d="M142 0v276l-138 476v5h162q16 -71 25.5 -113.5t15 -68t8.5 -38.5t5 -25h10q2 12 5 25t8.5 38.5t15.5 68t27 113.5h157v-5l-132 -474v-278h-169z" />
    <glyph glyph-name="Z" unicode="Z" horiz-adv-x="454" 
d="M24 0v179l200 407l-4 10h-188v161h405v-86l-239 -494l5 -9h227v-168h-406z" />
    <glyph glyph-name="bracketleft" unicode="[" 
d="M131 -238v1200h270v-117h-153v-966h153v-117h-270z" />
    <glyph glyph-name="backslash" unicode="\" 
d="M322 -153l-306 1001h115l306 -1001h-115z" />
    <glyph glyph-name="bracketright" unicode="]" 
d="M52 -238v117h153v966h-153v117h270v-1200h-270z" />
    <glyph glyph-name="asciicircum" unicode="^" 
d="M322 334l-90 256h-10l-90 -256h-117v6l161 417h102l160 -417v-6h-116z" />
    <glyph glyph-name="underscore" unicode="_" 
d="M1 -182v124h451v-124h-451z" />
    <glyph glyph-name="grave" unicode="`" horiz-adv-x="300" 
d="M149 592l-115 167v6h141l91 -168v-5h-117z" />
    <glyph glyph-name="a" unicode="a" horiz-adv-x="445" 
d="M12 0zM271 0l-13 175h-76l-12 -175h-158l81 757h264l76 -757h-162zM225 599h-11l-25 -271h62z" />
    <glyph glyph-name="b" unicode="b" horiz-adv-x="460" 
d="M34 0zM34 0v757h225q51 0 84.5 -11.5t54 -36t29 -63t8.5 -93.5q0 -41 -2.5 -67t-9 -43t-16.5 -28t-25 -21v-7q15 -9 26.5 -17t20 -25.5t12.5 -50t4 -90.5q0 -55 -8 -93.5t-27.5 -63t-52.5 -36t-84 -11.5h-239zM241 153q23 0 33.5 14t10.5 58q0 52 -9 74t-31 22h-54v-168
h50zM237 446q23 0 31.5 18t8.5 69q0 45 -10.5 59.5t-33.5 14.5h-42v-161h46z" />
    <glyph glyph-name="c" unicode="c" horiz-adv-x="452" 
d="M22 0zM424 290q3 -36 3 -68q0 -60 -6.5 -104.5t-27.5 -73.5t-59.5 -43t-101.5 -14q-75 0 -114.5 13.5t-58.5 48.5q-10 16 -17 38t-11.5 59t-6.5 94t-2 145t2 143t6.5 90t11.5 55t17 37q20 34 58 47t110 13q64 0 103 -12t60 -39t28 -69.5t7 -102.5q0 -14 -0.5 -31
t-1.5 -36h-147q0 30 -0.5 50t-1.5 33t-2.5 20.5l-2.5 12.5q-4 19 -42 19q-19 0 -27.5 -4.5t-11.5 -14.5q-3 -8 -4.5 -18.5t-3 -32t-2 -59.5t-0.5 -99q0 -63 0.5 -101t2 -60t3 -33t4.5 -19q3 -10 12 -14t32 -4q30 0 36 17q4 10 6 21t3 24.5t1.5 31t0.5 40.5h145z" />
    <glyph glyph-name="d" unicode="d" horiz-adv-x="471" 
d="M34 0zM34 0v757h211q72 0 110 -13.5t58 -46.5q10 -17 16.5 -36.5t11 -53.5t6.5 -88t2 -140t-2 -140.5t-6.5 -88.5t-11 -54t-16.5 -36q-10 -17 -24 -28.5t-34 -18.5t-47 -10t-63 -3h-211zM241 167q19 0 27 4t12 14q2 7 4 16.5t3 30.5t1.5 56.5t0.5 93.5t-0.5 94.5
t-1.5 57.5t-3 31t-4 17q-4 8 -12 12t-27 4h-50v-431h50z" />
    <glyph glyph-name="e" unicode="e" horiz-adv-x="398" 
d="M34 0zM34 0v757h335v-160h-178v-133h175v-153h-175v-143h177v-168h-334z" />
    <glyph glyph-name="f" unicode="f" horiz-adv-x="382" 
d="M34 0zM34 0v757h330v-160h-173v-151h170v-154h-170v-292h-157z" />
    <glyph glyph-name="g" unicode="g" horiz-adv-x="449" 
d="M22 0zM286 293h-73v152h214q1 -20 1.5 -58t0.5 -91q0 -62 -2 -103t-6.5 -68t-11 -44t-15.5 -32q-10 -18 -23.5 -29.5t-33.5 -19t-47 -10.5t-63 -3q-73 0 -110.5 13.5t-57.5 48.5q-10 17 -17 37.5t-11.5 56.5t-6.5 93t-2 149q0 88 2 143t6.5 90t11.5 55t17 37q20 34 58 47
t110 13q83 0 125 -21.5t59 -72.5q13 -42 13 -111v-21.5t-1 -17.5h-146q1 3 1 6.5v6.5q0 25 -2 37t-4 20q-4 19 -46 19q-20 0 -29.5 -4.5t-13.5 -14.5q-2 -8 -4 -18.5t-3 -32t-1.5 -59.5t-0.5 -99q0 -65 0.5 -103.5t1.5 -60t2.5 -31t3.5 -16.5q8 -22 48 -22q20 0 29.5 4.5
t15.5 14.5q3 5 5.5 10.5t3.5 14.5t1.5 22.5t0.5 36.5v36z" />
    <glyph glyph-name="h" unicode="h" horiz-adv-x="484" 
d="M32 0zM291 0v311h-98v-311h-161v757h161v-293h98v293h161v-757h-161z" />
    <glyph glyph-name="i" unicode="i" horiz-adv-x="233" 
d="M36 0zM36 0v757h161v-757h-161z" />
    <glyph glyph-name="j" unicode="j" horiz-adv-x="443" 
d="M12 0zM255 757h161v-367q0 -86 -2 -144t-6.5 -96.5t-11 -61.5t-16.5 -39q-10 -17 -24 -29t-34.5 -19.5t-49 -10.5t-65.5 -3q-63 0 -101.5 14t-59.5 43t-27.5 73.5t-6.5 104.5q0 32 3 68h140q0 -23 0.5 -40.5t1.5 -31t3 -24.5t5 -21q7 -17 36 -17q23 0 32 4t13 14
q2 8 4 19t3 33t1.5 59.5t0.5 100.5v371z" />
    <glyph glyph-name="k" unicode="k" horiz-adv-x="488" 
d="M34 0zM298 0l-95 340h-10q2 -13 2 -27.5v-28.5v-284h-161v757h161v-276q0 -12 -0.5 -21.5t-1.5 -19.5h10l101 317h165v-5l-115 -338l124 -409v-5h-180z" />
    <glyph glyph-name="l" unicode="l" horiz-adv-x="366" 
d="M34 0zM34 0v757h157v-589h162v-168h-319z" />
    <glyph glyph-name="m" unicode="m" horiz-adv-x="663" 
d="M32 0zM487 0v454h-6l-115 -454h-69l-116 454h-6v-454h-143v757h222l70 -329h7l78 329h221l1 -757h-144z" />
    <glyph glyph-name="n" unicode="n" horiz-adv-x="475" 
d="M33 0zM361 0l-179 406h-6v-406h-143v757h154l106 -263h6v263h144v-757h-82z" />
    <glyph glyph-name="o" unicode="o" 
d="M22 0zM394 49q-10 -18 -23.5 -29.5t-33.5 -19t-47 -10.5t-63 -3q-73 0 -110.5 13.5t-57.5 48.5q-10 17 -17 37.5t-11.5 55.5t-6.5 91.5t-2 145.5t2 145t6.5 91t11.5 55t17 38q10 17 23.5 29t33.5 19.5t47.5 10.5t63.5 3q72 0 109.5 -14t57.5 -48q10 -18 17 -38t11.5 -55
t6.5 -91t2 -145t-2 -145.5t-6.5 -91.5t-11.5 -55.5t-17 -37.5zM266 174q2 7 4 18t3 33t1.5 59.5t0.5 98.5q0 63 -0.5 101t-1.5 60.5t-3 33.5t-4 18q-4 10 -12 14.5t-27 4.5t-27.5 -4.5t-11.5 -14.5q-3 -7 -4.5 -18t-3 -33.5t-2 -60.5t-0.5 -101q0 -61 0.5 -98.5t2 -59.5
t3 -33t4.5 -18q3 -10 11.5 -14t27.5 -4t27 4t12 14z" />
    <glyph glyph-name="p" unicode="p" horiz-adv-x="450" 
d="M34 0zM34 0v757h227q51 0 84 -13.5t52.5 -44t27 -80t7.5 -122.5q0 -74 -7.5 -125.5t-27 -83.5t-52.5 -46t-84 -14h-70v-228h-157zM233 384q22 0 31 24.5t9 92.5q0 60 -10.5 79t-33.5 19h-38v-215h42z" />
    <glyph glyph-name="q" unicode="q" 
d="M22 0zM240 -91q-4 5 -7.5 12.5t-9 20.5t-12 33t-16.5 50q-56 2 -87.5 14.5t-48.5 41.5q-10 17 -17 36.5t-11.5 53t-6.5 87t-2 138.5t2 138.5t6.5 87.5t11.5 53t17 36q20 33 57.5 46t110.5 13q36 0 63 -3t47 -10t33.5 -18.5t23.5 -27.5q10 -17 17 -36t11.5 -53t6.5 -87.5
t2 -138.5t-2 -138.5t-6.5 -87t-11.5 -53t-17 -36.5q-8 -15 -21.5 -24.5t-29.5 -16.5q18 -59 31.5 -85.5t22.5 -39.5v-6h-157zM266 195q2 7 4 16t3 29t1.5 56.5t0.5 98.5q0 59 -0.5 95.5t-1.5 58t-3 31.5t-4 17q-4 9 -12 13.5t-27 4.5t-27.5 -4.5t-11.5 -13.5q-3 -7 -4.5 -17
t-3 -31.5t-2 -58t-0.5 -95.5q0 -61 0.5 -97t2 -57t3 -30t4.5 -16q3 -9 11.5 -12t27.5 -3t27 3t12 12z" />
    <glyph glyph-name="r" unicode="r" horiz-adv-x="462" 
d="M34 0zM282 0q-3 9 -5.5 19.5t-5.5 32t-8 59.5t-12 104q-3 26 -6 42t-7 24.5t-10 11t-13 2.5h-24v-295h-157v757h229q51 0 84 -11.5t52.5 -36t27 -63t7.5 -93.5q0 -59 -4 -92.5t-12.5 -52.5t-20.5 -28.5t-28 -18.5v-6q6 -5 12.5 -11t11.5 -20q8 -18 16.5 -54.5
t16.5 -102.5q6 -46 9 -74t5.5 -45t4 -26t4.5 -17v-5h-167zM235 436q22 0 31 18.5t9 71.5q0 45 -10.5 60t-33.5 15h-40v-165h44z" />
    <glyph glyph-name="s" unicode="s" horiz-adv-x="420" 
d="M18 0zM250 522q1 8 1 13.5v19.5q0 35 -8.5 48.5t-37.5 13.5t-37 -13.5t-8 -48.5q0 -33 8.5 -46.5t27.5 -24.5q22 -13 41.5 -22t36 -16.5t31.5 -14.5t30 -17q16 -12 28.5 -25.5t20 -35t11.5 -53t4 -78.5q0 -68 -9.5 -113t-32 -72t-61 -38.5t-95.5 -11.5q-94 0 -138 35.5
t-44 124.5q0 29 1.5 58.5t6.5 47.5h131q-2 -6 -2 -13v-15q0 -44 9 -60.5t39 -16.5t39.5 14.5t9.5 62.5q0 29 -9 44t-29 29q-18 12 -38.5 22t-41 19t-39.5 19.5t-34 24.5q-31 27 -37.5 74t-6.5 122q0 53 8.5 89.5t29.5 59t57 32.5t92 10q51 0 85.5 -8t56.5 -27.5t31.5 -51.5
t9.5 -80q0 -31 -1.5 -49t-6.5 -32h-130z" />
    <glyph glyph-name="t" unicode="t" horiz-adv-x="421" 
d="M13 0zM132 0v597h-119v160h395v-160h-119v-597h-157z" />
    <glyph glyph-name="u" unicode="u" horiz-adv-x="462" 
d="M27 0zM279 757h156v-524q-1 -47 -4 -78t-7.5 -52t-10.5 -34.5t-14 -26.5q-10 -16 -23.5 -26.5t-33.5 -17t-47 -9t-63 -2.5q-73 0 -111 11.5t-57 43.5q-8 13 -15 26.5t-12 34.5t-7.5 52t-2.5 78v524h161v-524q0 -27 1.5 -42t6.5 -23t14 -10t24 -2t23.5 2t13.5 10t6.5 23
t1.5 42v524z" />
    <glyph glyph-name="v" unicode="v" horiz-adv-x="454" 
d="M12 0zM102 0l-90 757h170l42 -533h11l40 533h167l-95 -757h-245z" />
    <glyph glyph-name="w" unicode="w" horiz-adv-x="723" 
d="M14 0zM422 0l-52 464h-11l-56 -464h-222l-67 757h159l34 -515h11l69 515h158l70 -515h11l33 515h150l-65 -757h-222z" />
    <glyph glyph-name="x" unicode="x" horiz-adv-x="464" 
d="M8 0zM286 0l-51 276h-11l-54 -276h-162v5l98 413l-79 334v5h163l40 -211h11l46 211h152v-5l-82 -334l97 -413v-5h-168z" />
    <glyph glyph-name="y" unicode="y" horiz-adv-x="447" 
d="M4 0zM142 0v276l-138 476v5h162q16 -71 25.5 -113.5t15 -68t8.5 -38.5t5 -25h10q2 12 5 25t8.5 38.5t15.5 68t27 113.5h157v-5l-132 -474v-278h-169z" />
    <glyph glyph-name="z" unicode="z" horiz-adv-x="454" 
d="M24 0zM24 0v179l200 407l-4 10h-188v161h405v-86l-239 -494l5 -9h227v-168h-406z" />
    <glyph glyph-name="braceleft" unicode="{" 
d="M331 -238q-43 0 -73.5 9t-49.5 29t-28 52t-9 78q0 38 3.5 75.5l7 75t7 76t3.5 78.5q0 35 -9.5 51.5t-41.5 16.5h-51v118h51q32 0 41.5 16.5t9.5 51.5q0 40 -3.5 78l-7 76t-7 75.5t-3.5 75.5q0 91 37 129.5t123 38.5h92v-117h-88q-29 0 -38 -10.5t-9 -41.5
q0 -33 3.5 -70.5t7 -78.5t7 -85t3.5 -89q0 -35 -15 -62.5t-37 -40.5v-11q22 -11 37 -38.5t15 -63.5q0 -45 -3.5 -89t-7 -85t-7 -78.5t-3.5 -70.5q0 -31 9 -41.5t38 -10.5h88v-117h-92z" />
    <glyph glyph-name="bar" unicode="|" 
d="M168 -238v1200h117v-1200h-117z" />
    <glyph glyph-name="braceright" unicode="}" 
d="M30 -238v117h88q29 0 38 10.5t9 41.5q0 33 -3.5 70.5t-7 78.5t-7 85t-3.5 89q0 36 15 63.5t37 38.5v11q-22 13 -37 40.5t-15 62.5q0 45 3.5 89t7 85t7 78.5t3.5 70.5q0 31 -9 41.5t-38 10.5h-88v117h92q86 0 123 -38.5t37 -129.5q0 -38 -3.5 -75.5t-7 -75.5l-7 -76
t-3.5 -78q0 -35 9.5 -51.5t41.5 -16.5h51v-118h-51q-32 0 -41.5 -16.5t-9.5 -51.5q0 -40 3.5 -78.5t7 -76l7 -75t3.5 -75.5q0 -46 -9 -78t-28 -52t-49.5 -29t-73.5 -9h-92z" />
    <glyph glyph-name="asciitilde" unicode="~" 
d="M438 362q-24 -35 -52 -49.5t-67 -14.5q-26 0 -51 7.5t-49 16t-47 16t-45 7.5q-34 0 -57 -14t-47 -48h-8v117q17 26 42.5 44.5t63.5 18.5q32 0 59.5 -7.5t52 -17t47 -17t44.5 -7.5q32 0 58 14t49 48h7v-114z" />
    <glyph glyph-name="nonbreakingspace" unicode="&#xa0;" horiz-adv-x="198" 
 />
    <glyph glyph-name="exclamdown" unicode="&#xa1;" horiz-adv-x="241" 
d="M34 -228l18 561h134l20 -561h-172zM41 409v151h157v-151h-157z" />
    <glyph glyph-name="cent" unicode="&#xa2;" 
d="M198 -43v125q-60 2 -93 12.5t-50 36.5q-10 13 -17 28.5t-11.5 43.5t-7 72t-2.5 115q0 69 2 112.5t6.5 71t12 43.5t17.5 29q17 24 50.5 35t92.5 13v107h63v-107q57 -2 89.5 -13t50.5 -35q20 -28 26.5 -63.5t6.5 -73.5v-19.5t-1 -20.5h-155v12q0 33 -2.5 45.5t-5.5 19.5
q-4 8 -13 11t-28 3q-20 0 -28 -3t-12 -11q-3 -5 -4.5 -13t-3 -24t-2 -43.5t-0.5 -72.5q0 -44 0.5 -71.5t2 -43.5t3 -24t4.5 -14q4 -6 12 -9t28 -3q19 0 28 3t13 9q4 8 6 19.5t2 46.5v13h155q2 -12 2 -24.5v-24.5q0 -34 -6 -70.5t-28 -68.5q-19 -26 -51 -36.5t-89 -12.5v-125
h-63z" />
    <glyph glyph-name="sterling" unicode="&#xa3;" 
d="M437 25q-17 -17 -39 -27.5t-57 -10.5q-43 0 -67.5 22.5t-29.5 64.5h-11q-13 -34 -45 -60.5t-89 -26.5q-14 0 -34 5.5t-36 29.5v144q31 -6 47 -6q25 0 33.5 15t8.5 61q0 10 -5 22t-13 24h-85v64h42q-23 38 -29 78.5t-6 99.5q0 39 3 67.5t8 50t12 38t15 30.5q20 34 58 47
t110 13q64 0 103 -12t60 -39t28 -69.5t7 -102.5v-47.5t-2 -28.5h-147q1 5 1 11.5v14.5q0 48 -3 69t-6 31q-7 18 -41 18q-20 0 -28 -5t-11 -13q-10 -21 -10 -61q0 -31 2.5 -51t10 -39.5t22.5 -42t40 -57.5h147v-64h-129q1 -7 1.5 -14t0.5 -15q0 -37 -2 -53t-5 -31
q8 -5 20 -6.5t38 -1.5q32 0 55.5 9t47.5 27h9v-172z" />
    <glyph glyph-name="currency" unicode="&#xa4;" horiz-adv-x="703" 
d="M507 151q-35 -22 -71.5 -34t-80.5 -12q-45 0 -84 12t-70 34l-87 -91l-80 78l90 88q-22 33 -33.5 70.5t-11.5 82.5q0 82 45 156l-89 84l79 79l85 -91q62 50 156 50q85 0 154 -50l80 91l80 -79l-87 -84q22 -35 34.5 -73.5t12.5 -82.5q0 -45 -12.5 -83t-34.5 -70l87 -88
l-78 -78zM355 223q31 0 59.5 12.5t49.5 33.5t33.5 49.5t12.5 60.5t-12.5 60.5t-33.5 50.5t-49.5 34.5t-59.5 12.5q-33 0 -61.5 -12.5t-50 -34.5t-33.5 -50.5t-12 -60.5t12 -60.5t33.5 -49.5t50 -33.5t61.5 -12.5z" />
    <glyph glyph-name="yen" unicode="&#xa5;" 
d="M147 0v142h-120v64h120v66h-120v63h105l-125 417v5h161l54 -231h11l55 231h157v-5l-121 -417h97v-63h-111v-66h111v-64h-111v-142h-163z" />
    <glyph glyph-name="brokenbar" unicode="&#xa6;" 
d="M168 -238v432h117v-432h-117zM168 539v423h117v-423h-117z" />
    <glyph glyph-name="section" unicode="&#xa7;" horiz-adv-x="488" 
d="M373 74q0 -59 -8.5 -98t-29 -63t-55.5 -34t-88 -10q-87 0 -127 31t-40 110q0 24 1.5 50t4.5 42h120q-1 -6 -1 -11.5v-13.5q0 -38 8.5 -52.5t36.5 -14.5q27 0 35.5 12.5t8.5 54.5q0 25 -8 38t-26 26q-17 11 -35.5 19.5t-37 16.5t-36 17t-32.5 21q-28 24 -34 65t-6 106
q0 72 19 109.5t73 50.5q-2 14 -2 27.5v29.5q0 46 7.5 78t26.5 52t52.5 28.5t84.5 8.5q47 0 79.5 -7t52.5 -24t28.5 -45t8.5 -71q0 -26 -1.5 -41.5t-5.5 -28.5h-120q1 8 1 12.5v16.5q0 30 -8 42t-35 12q-26 0 -33.5 -12t-7.5 -42q0 -29 8 -40.5t27 -21.5q20 -11 37.5 -18.5
t32.5 -14t29 -13t28 -15.5q15 -10 26 -22t18 -31t10.5 -46.5t3.5 -68.5q0 -88 -20 -132.5t-71 -61.5v-23zM321 238q9 12 9 55q0 26 -8 39t-27 25q-29 19 -61 31t-59 29q-13 -5 -17.5 -16.5t-4.5 -34.5q0 -29 8 -41t27 -22q20 -11 37.5 -18.5t33.5 -14.5t31.5 -14.5
t30.5 -17.5z" />
    <glyph glyph-name="dieresis" unicode="&#xa8;" horiz-adv-x="408" 
d="M240 613v123h134v-123h-134zM34 613v123h135v-123h-135z" />
    <glyph glyph-name="ordfeminine" unicode="&#xaa;" horiz-adv-x="274" 
d="M261 403q-3 -8 -13 -14t-26 -6q-18 0 -29.5 5t-19.5 13q-8 -8 -22.5 -13t-39.5 -5q-28 0 -45.5 4.5t-27 16.5t-13 32.5t-3.5 53.5q0 30 6 49.5t18.5 30.5t32.5 15t48 4q12 0 20 -3l2 2v18q0 17 -2.5 22t-13.5 5q-13 0 -16 -3.5t-3 -14.5q0 -5 1 -8h-83q-1 5 -1 8.5v7.5
q0 23 4.5 39.5t16 27t31.5 15.5t50 5q36 0 57 -7.5t31 -21t12.5 -32t2.5 -39.5v-136q0 -17 9 -17q5 0 8.5 1t7.5 2v-57zM149 530h-7q-21 0 -28 -6.5t-7 -29.5q0 -20 4 -24.5t22 -4.5q10 0 16 3v62z" />
    <glyph glyph-name="guillemotleft" unicode="&#xab;" horiz-adv-x="466" 
d="M20 182zM222 182l-202 147v103l202 150h5v-124l-103 -72v-11l103 -70v-123h-5zM440 182l-202 147v103l202 150h5v-124l-103 -72v-11l103 -70v-123h-5z" />
    <glyph glyph-name="logicalnot" unicode="&#xac;" 
d="M322 0v321h-307v117h423v-438h-116z" />
    <glyph glyph-name="macron" unicode="&#xaf;" horiz-adv-x="468" 
d="M34 626v106h400v-106h-400z" />
    <glyph glyph-name="degree" unicode="&#xb0;" horiz-adv-x="334" 
d="M285 761q6 -8 11 -17t8 -24t4.5 -39.5t1.5 -63.5t-1.5 -64t-4.5 -40.5t-8 -24.5t-11 -16q-14 -16 -41 -21.5t-78 -5.5t-77 5.5t-40 21.5q-6 7 -11 16t-8 24.5t-4.5 40.5t-1.5 64t1.5 63.5t4.5 39.5t7.5 24t11.5 17q14 14 40.5 20.5t76.5 6.5q51 0 78 -6.5t41 -20.5z
M109 533q6 -4 18 -5.5t39 -1.5q29 0 41 1.5t17 5.5q4 3 7 7.5t4.5 13.5t2 24.5t0.5 40.5t-0.5 40.5t-2 24.5t-4.5 13.5t-7 7.5q-5 5 -17 6.5t-41 1.5q-27 0 -39 -1.5t-18 -6.5q-4 -3 -6.5 -7.5t-4 -13.5t-2 -24.5t-0.5 -40.5t0.5 -40.5t2 -24.5t4 -13.5t6.5 -7.5z" />
    <glyph glyph-name="plusminus" unicode="&#xb1;" 
d="M15 0zM168 168v153h-153v117h153v153h117v-153h153v-117h-153v-153h-117zM15 -59v117h423v-117h-423z" />
    <glyph glyph-name="twosuperior" unicode="&#xb2;" horiz-adv-x="279" 
d="M23 348zM31 348v102l69 68q14 13 22.5 21.5t13.5 14.5t7.5 10t5.5 10q5 11 6 21.5t1 39.5q0 15 -1 23.5t-3 13.5q-2 3 -5 5t-11 2q-15 0 -18 -7q-2 -4 -2.5 -12t-0.5 -28v-17.5t2 -12.5h-92q-2 13 -2 22v25q0 34 4 58t16.5 39t34.5 22t58 7q34 0 56 -6t35.5 -21.5
t19 -42.5t5.5 -69q0 -18 -0.5 -30t-1.5 -21t-3 -16.5t-6 -16.5q-7 -15 -17 -29t-33 -36l-42 -40h100v-99h-218z" />
    <glyph glyph-name="threesuperior" unicode="&#xb3;" horiz-adv-x="279" 
d="M22 341zM88 524v76h49q14 0 17.5 6.5t3.5 37.5q0 26 -3.5 31.5t-17.5 5.5q-15 0 -18.5 -5.5t-3.5 -33.5v-8.5t1 -8.5h-91q-1 6 -1 11.5v11.5q0 34 4.5 58.5t17 39.5t34.5 22t57 7t57 -4t34.5 -17t17 -36t4.5 -62q0 -42 -6 -61t-20 -31q7 -5 13 -10t10 -15.5t6 -28
t2 -46.5q0 -35 -4 -58.5t-16 -37.5t-35.5 -20.5t-62.5 -6.5q-38 0 -60.5 8t-34.5 24.5t-16 41t-4 58.5q0 5 0.5 12t1.5 16h91q-1 -5 -1 -9.5v-9.5q0 -12 0.5 -18t2.5 -12q2 -5 6 -7t14 -2q14 0 20 6.5t6 26.5q0 17 -0.5 26.5t-3.5 14.5t-8 6t-14 1h-49z" />
    <glyph glyph-name="acute" unicode="&#xb4;" horiz-adv-x="300" 
d="M34 592v5l91 168h141v-6l-115 -167h-117z" />
    <glyph glyph-name="paragraph" unicode="&#xb6;" horiz-adv-x="579" 
d="M419 -102v734h-83v-734h-126v440h-58q-41 0 -67 11t-42 36t-22 66t-6 100q0 58 6 97.5t22 63.5t42 34.5t67 10.5h393v-859h-126z" />
    <glyph glyph-name="periodcentered" unicode="&#xb7;" horiz-adv-x="225" 
d="M34 295zM34 295v151h157v-151h-157z" />
    <glyph glyph-name="cedilla" unicode="&#xb8;" horiz-adv-x="261" 
d="M34 -238v5l57 192h136v-6l-80 -191h-113z" />
    <glyph glyph-name="onesuperior" unicode="&#xb9;" horiz-adv-x="279" 
d="M31 348zM32 348v102h59v166h-60v86h42q12 0 18.5 2.5t10.5 9t5 19.5t1 34h82v-317h55v-102h-213z" />
    <glyph glyph-name="ordmasculine" unicode="&#xba;" horiz-adv-x="263" 
d="M219 410q-11 -15 -31.5 -21t-57.5 -6t-57.5 6t-30.5 21q-5 7 -9 16t-6.5 24t-3.5 38t-1 59t1 58.5t3.5 37.5t6.5 23.5t9 16.5q10 15 30.5 21t57.5 6t57.5 -6t31.5 -21q5 -8 8.5 -16.5t6 -23.5t3.5 -37.5t1 -58.5t-1 -59t-3.5 -38t-6 -24t-8.5 -16zM144 467q2 4 3 20t1 60
v36.5t-0.5 23t-1.5 13t-2 6.5t-3.5 3t-10.5 1q-12 0 -14 -4q-1 -2 -2 -6.5t-1.5 -13t-0.5 -23v-36.5q0 -44 1 -60t3 -20t14 -4q8 0 10.5 1t3.5 3z" />
    <glyph glyph-name="guillemotright" unicode="&#xbb;" horiz-adv-x="466" 
d="M20 182zM25 182h-5v123l103 70v11l-103 72v124h5l202 -150v-103zM243 182h-5v123l103 70v11l-103 72v124h5l202 -150v-103z" />
    <glyph glyph-name="onequarter" unicode="&#xbc;" horiz-adv-x="619" 
d="M14 0zM15 348v102h59v166h-60v86h42q12 0 18.5 2.5t10.5 9t5 19.5t1 34h82v-317h55v-102h-213zM49 0v5l433 752h97v-5l-434 -752h-96zM484 -10v69h-121v85l122 265h90v-264h30v-86h-30v-69h-91zM487 232h-4l-38 -87h42v87z" />
    <glyph glyph-name="onehalf" unicode="&#xbd;" horiz-adv-x="619" 
d="M13 0zM14 348v102h59v166h-60v86h42q12 0 18.5 2.5t10.5 9t5 19.5t1 34h82v-317h55v-102h-213zM48 0v5l433 752h97v-5l-434 -752h-96zM384 -10v102l69 68q14 13 22.5 21.5t13.5 14.5t7.5 10t5.5 10q5 11 6 21.5t1 39.5q0 15 -1 23.5t-3 13.5q-2 3 -5 5t-11 2
q-15 0 -18 -7q-2 -4 -2.5 -12t-0.5 -28v-17.5t2 -12.5h-92q-2 13 -2 22v25q0 34 4 58t16.5 39t34.5 22t58 7q34 0 56 -6t35.5 -21.5t19 -42.5t5.5 -69q0 -18 -0.5 -30t-1.5 -21t-3 -16.5t-6 -16.5q-7 -15 -17 -29t-33 -36l-42 -40h100v-99h-218z" />
    <glyph glyph-name="threequarters" unicode="&#xbe;" horiz-adv-x="619" 
d="M18 0zM84 524v76h49q14 0 17.5 6.5t3.5 37.5q0 26 -3.5 31.5t-17.5 5.5q-15 0 -18.5 -5.5t-3.5 -33.5v-8.5t1 -8.5h-91q-1 6 -1 11.5v11.5q0 34 4.5 58.5t17 39.5t34.5 22t57 7t57 -4t34.5 -17t17 -36t4.5 -62q0 -42 -6 -61t-20 -31q7 -5 13 -10t10 -15.5t6 -28t2 -46.5
q0 -35 -4 -58.5t-16 -37.5t-35.5 -20.5t-62.5 -6.5q-38 0 -60.5 8t-34.5 24.5t-16 41t-4 58.5q0 5 0.5 12t1.5 16h91q-1 -5 -1 -9.5v-9.5q0 -12 0.5 -18t2.5 -12q2 -5 6 -7t14 -2q14 0 20 6.5t6 26.5q0 17 -0.5 26.5t-3.5 14.5t-8 6t-14 1h-49zM62 0v5l433 752h97v-5
l-434 -752h-96zM479 -10v69h-121v85l122 265h90v-264h30v-86h-30v-69h-91zM482 232h-4l-38 -87h42v87z" />
    <glyph glyph-name="questiondown" unicode="&#xbf;" horiz-adv-x="416" 
d="M384 38q4 -14 5.5 -32t1.5 -49q0 -48 -9.5 -80t-31 -51.5t-56.5 -27.5t-86 -8q-56 0 -92 10t-57 32.5t-29.5 59t-8.5 89.5q0 40 1.5 67.5t6 47t11.5 33.5t19 28q18 20 35.5 31t31.5 26q5 5 8.5 11t5.5 18.5t2.5 33.5t0.5 56h135q2 -17 2 -44.5v-59.5q0 -20 -4 -36
t-12.5 -30t-22 -27t-32.5 -28q-17 -13 -26 -21.5t-13.5 -18.5t-5.5 -24.5t-1 -38.5q0 -35 8 -48.5t37 -13.5t37.5 13.5t8.5 48.5v19.5t-1 13.5h131zM133 409v151h157v-151h-157z" />
    <glyph glyph-name="Agrave" unicode="&#xc0;" horiz-adv-x="445" 
d="M12 0zM271 0l-13 175h-76l-12 -175h-158l81 757h264l76 -757h-162zM225 599h-11l-25 -271h62zM171 789l-115 167v6h141l91 -168v-5h-117z" />
    <glyph glyph-name="Aacute" unicode="&#xc1;" horiz-adv-x="445" 
d="M12 0zM271 0l-13 175h-76l-12 -175h-158l81 757h264l76 -757h-162zM225 599h-11l-25 -271h62zM154 789v5l91 168h141v-6l-115 -167h-117z" />
    <glyph glyph-name="Acircumflex" unicode="&#xc2;" horiz-adv-x="445" 
d="M12 0zM271 0l-13 175h-76l-12 -175h-158l81 757h264l76 -757h-162zM225 599h-11l-25 -271h62zM272 789l-47 69h-11l-47 -69h-123v5l124 168h103l125 -168v-5h-124z" />
    <glyph glyph-name="Atilde" unicode="&#xc3;" horiz-adv-x="445" 
d="M12 0zM271 0l-13 175h-76l-12 -175h-158l81 757h264l76 -757h-162zM225 599h-11l-25 -271h62zM423 856q-23 -32 -49.5 -46.5t-62.5 -14.5q-26 0 -49.5 7t-46 15.5t-44.5 15.5t-43 7q-31 0 -54 -13.5t-46 -44.5h-5v110q15 23 39.5 40.5t60.5 17.5q30 0 56 -7t49.5 -15.5
t45 -15.5t41.5 -7q31 0 55.5 12.5t47.5 44.5h5v-106z" />
    <glyph glyph-name="Adieresis" unicode="&#xc4;" horiz-adv-x="445" 
d="M12 0zM271 0l-13 175h-76l-12 -175h-158l81 757h264l76 -757h-162zM225 599h-11l-25 -271h62zM258 810v123h134v-123h-134zM52 810v123h135v-123h-135z" />
    <glyph glyph-name="Aring" unicode="&#xc5;" horiz-adv-x="445" 
d="M12 0zM271 0l-13 175h-76l-12 -175h-158l81 757h264l76 -757h-162zM225 599h-11l-25 -271h62zM307 790q-10 -9 -30 -12t-56 -3q-38 0 -57.5 3t-29.5 12q-5 4 -8.5 8.5t-5.5 13t-3 21.5t-1 35t1 35.5t3 21.5t5.5 13t8.5 9q10 8 30 11.5t57 3.5q36 0 56 -3.5t30 -11.5
q5 -4 8.5 -9t6 -13t3.5 -21.5t1 -35.5t-1 -35t-3.5 -21.5t-6 -13t-8.5 -8.5zM251 839q4 2 5.5 7t1.5 23q0 20 -1.5 25t-5.5 8q-2 2 -8.5 3t-21.5 1q-16 0 -22 -1t-10 -3t-5 -7.5t-1 -25.5q0 -18 1 -23t5 -7t10 -3t22 -1q15 0 21 1t9 3z" />
    <glyph glyph-name="AE" unicode="&#xc6;" horiz-adv-x="624" 
d="M259 0v175h-77l-12 -175h-158l81 757h502v-160h-179v-133h176v-153h-176v-143h178v-168h-335zM259 599h-45l-25 -271h70v271z" />
    <glyph glyph-name="Ccedilla" unicode="&#xc7;" horiz-adv-x="452" 
d="M22 0zM424 290q3 -36 3 -68q0 -60 -6.5 -104.5t-27.5 -73.5t-59.5 -43t-101.5 -14q-75 0 -114.5 13.5t-58.5 48.5q-10 16 -17 38t-11.5 59t-6.5 94t-2 145t2 143t6.5 90t11.5 55t17 37q20 34 58 47t110 13q64 0 103 -12t60 -39t28 -69.5t7 -102.5q0 -14 -0.5 -31
t-1.5 -36h-147q0 30 -0.5 50t-1.5 33t-2.5 20.5l-2.5 12.5q-4 19 -42 19q-19 0 -27.5 -4.5t-11.5 -14.5q-3 -8 -4.5 -18.5t-3 -32t-2 -59.5t-0.5 -99q0 -63 0.5 -101t2 -60t3 -33t4.5 -19q3 -10 12 -14t32 -4q30 0 36 17q4 10 6 21t3 24.5t1.5 31t0.5 40.5h145zM97 -238v5
l57 192h136v-6l-80 -191h-113z" />
    <glyph glyph-name="Egrave" unicode="&#xc8;" horiz-adv-x="398" 
d="M34 0zM34 0v757h335v-160h-178v-133h175v-153h-175v-143h177v-168h-334zM153 789l-115 167v6h141l91 -168v-5h-117z" />
    <glyph glyph-name="Eacute" unicode="&#xc9;" horiz-adv-x="398" 
d="M34 0zM34 0v757h335v-160h-178v-133h175v-153h-175v-143h177v-168h-334zM139 789v5l91 168h141v-6l-115 -167h-117z" />
    <glyph glyph-name="Ecircumflex" unicode="&#xca;" horiz-adv-x="398" 
d="M27 0zM34 0v757h335v-160h-178v-133h175v-153h-175v-143h177v-168h-334zM255 789l-47 69h-11l-47 -69h-123v5l124 168h103l125 -168v-5h-124z" />
    <glyph glyph-name="Edieresis" unicode="&#xcb;" horiz-adv-x="398" 
d="M33 0zM34 0v757h335v-160h-178v-133h175v-153h-175v-143h177v-168h-334zM239 810v123h134v-123h-134zM33 810v123h135v-123h-135z" />
    <glyph glyph-name="Igrave" unicode="&#xcc;" horiz-adv-x="233" 
d="M0 0zM36 0v757h161v-757h-161zM66 789l-115 167v6h141l91 -168v-5h-117z" />
    <glyph glyph-name="Iacute" unicode="&#xcd;" horiz-adv-x="233" 
d="M36 0zM36 0v757h161v-757h-161zM50 789v5l91 168h141v-6l-115 -167h-117z" />
    <glyph glyph-name="Icircumflex" unicode="&#xce;" horiz-adv-x="233" 
d="M0 0zM36 0v757h161v-757h-161zM169 789l-47 69h-11l-47 -69h-123v5l124 168h103l125 -168v-5h-124z" />
    <glyph glyph-name="Idieresis" unicode="&#xcf;" horiz-adv-x="233" 
d="M0 0zM36 0v757h161v-757h-161zM153 810v123h134v-123h-134zM-53 810v123h135v-123h-135z" />
    <glyph glyph-name="Eth" unicode="&#xd0;" horiz-adv-x="471" 
d="M34 0v311h-34v153h34v293h211q72 0 110 -13.5t58 -46.5q10 -17 16.5 -36.5t11 -53.5t6.5 -88t2 -140t-2 -140.5t-6.5 -88.5t-11 -54t-16.5 -36q-10 -17 -24 -28.5t-34 -18.5t-47 -10t-63 -3h-211zM244 167q19 0 27 4t12 14q2 7 4 16.5t3 30.5t1.5 56.5t0.5 93.5
t-0.5 94.5t-1.5 57.5t-3 31t-4 17q-4 8 -12 12t-27 4h-61v-134h69v-153h-69v-144h61z" />
    <glyph glyph-name="Ntilde" unicode="&#xd1;" horiz-adv-x="475" 
d="M33 0zM361 0l-179 406h-6v-406h-143v757h154l106 -263h6v263h144v-757h-82zM437 856q-23 -32 -49.5 -46.5t-62.5 -14.5q-26 0 -49.5 7t-46 15.5t-44.5 15.5t-43 7q-31 0 -54 -13.5t-46 -44.5h-5v110q15 23 39.5 40.5t60.5 17.5q30 0 56 -7t49.5 -15.5t45 -15.5t41.5 -7
q31 0 55.5 12.5t47.5 44.5h5v-106z" />
    <glyph glyph-name="Ograve" unicode="&#xd2;" 
d="M22 0zM394 49q-10 -18 -23.5 -29.5t-33.5 -19t-47 -10.5t-63 -3q-73 0 -110.5 13.5t-57.5 48.5q-10 17 -17 37.5t-11.5 55.5t-6.5 91.5t-2 145.5t2 145t6.5 91t11.5 55t17 38q10 17 23.5 29t33.5 19.5t47.5 10.5t63.5 3q72 0 109.5 -14t57.5 -48q10 -18 17 -38t11.5 -55
t6.5 -91t2 -145t-2 -145.5t-6.5 -91.5t-11.5 -55.5t-17 -37.5zM266 174q2 7 4 18t3 33t1.5 59.5t0.5 98.5q0 63 -0.5 101t-1.5 60.5t-3 33.5t-4 18q-4 10 -12 14.5t-27 4.5t-27.5 -4.5t-11.5 -14.5q-3 -7 -4.5 -18t-3 -33.5t-2 -60.5t-0.5 -101q0 -61 0.5 -98.5t2 -59.5
t3 -33t4.5 -18q3 -10 11.5 -14t27.5 -4t27 4t12 14zM175 789l-115 167v6h141l91 -168v-5h-117z" />
    <glyph glyph-name="Oacute" unicode="&#xd3;" 
d="M22 0zM394 49q-10 -18 -23.5 -29.5t-33.5 -19t-47 -10.5t-63 -3q-73 0 -110.5 13.5t-57.5 48.5q-10 17 -17 37.5t-11.5 55.5t-6.5 91.5t-2 145.5t2 145t6.5 91t11.5 55t17 38q10 17 23.5 29t33.5 19.5t47.5 10.5t63.5 3q72 0 109.5 -14t57.5 -48q10 -18 17 -38t11.5 -55
t6.5 -91t2 -145t-2 -145.5t-6.5 -91.5t-11.5 -55.5t-17 -37.5zM266 174q2 7 4 18t3 33t1.5 59.5t0.5 98.5q0 63 -0.5 101t-1.5 60.5t-3 33.5t-4 18q-4 10 -12 14.5t-27 4.5t-27.5 -4.5t-11.5 -14.5q-3 -7 -4.5 -18t-3 -33.5t-2 -60.5t-0.5 -101q0 -61 0.5 -98.5t2 -59.5
t3 -33t4.5 -18q3 -10 11.5 -14t27.5 -4t27 4t12 14zM160 789v5l91 168h141v-6l-115 -167h-117z" />
    <glyph glyph-name="Ocircumflex" unicode="&#xd4;" 
d="M22 0zM394 49q-10 -18 -23.5 -29.5t-33.5 -19t-47 -10.5t-63 -3q-73 0 -110.5 13.5t-57.5 48.5q-10 17 -17 37.5t-11.5 55.5t-6.5 91.5t-2 145.5t2 145t6.5 91t11.5 55t17 38q10 17 23.5 29t33.5 19.5t47.5 10.5t63.5 3q72 0 109.5 -14t57.5 -48q10 -18 17 -38t11.5 -55
t6.5 -91t2 -145t-2 -145.5t-6.5 -91.5t-11.5 -55.5t-17 -37.5zM266 174q2 7 4 18t3 33t1.5 59.5t0.5 98.5q0 63 -0.5 101t-1.5 60.5t-3 33.5t-4 18q-4 10 -12 14.5t-27 4.5t-27.5 -4.5t-11.5 -14.5q-3 -7 -4.5 -18t-3 -33.5t-2 -60.5t-0.5 -101q0 -61 0.5 -98.5t2 -59.5
t3 -33t4.5 -18q3 -10 11.5 -14t27.5 -4t27 4t12 14zM278 789l-47 69h-11l-47 -69h-123v5l124 168h103l125 -168v-5h-124z" />
    <glyph glyph-name="Otilde" unicode="&#xd5;" 
d="M22 0zM394 49q-10 -18 -23.5 -29.5t-33.5 -19t-47 -10.5t-63 -3q-73 0 -110.5 13.5t-57.5 48.5q-10 17 -17 37.5t-11.5 55.5t-6.5 91.5t-2 145.5t2 145t6.5 91t11.5 55t17 38q10 17 23.5 29t33.5 19.5t47.5 10.5t63.5 3q72 0 109.5 -14t57.5 -48q10 -18 17 -38t11.5 -55
t6.5 -91t2 -145t-2 -145.5t-6.5 -91.5t-11.5 -55.5t-17 -37.5zM266 174q2 7 4 18t3 33t1.5 59.5t0.5 98.5q0 63 -0.5 101t-1.5 60.5t-3 33.5t-4 18q-4 10 -12 14.5t-27 4.5t-27.5 -4.5t-11.5 -14.5q-3 -7 -4.5 -18t-3 -33.5t-2 -60.5t-0.5 -101q0 -61 0.5 -98.5t2 -59.5
t3 -33t4.5 -18q3 -10 11.5 -14t27.5 -4t27 4t12 14zM427 856q-23 -32 -49.5 -46.5t-62.5 -14.5q-26 0 -49.5 7t-46 15.5t-44.5 15.5t-43 7q-31 0 -54 -13.5t-46 -44.5h-5v110q15 23 39.5 40.5t60.5 17.5q30 0 56 -7t49.5 -15.5t45 -15.5t41.5 -7q31 0 55.5 12.5t47.5 44.5h5
v-106z" />
    <glyph glyph-name="Odieresis" unicode="&#xd6;" 
d="M22 0zM394 49q-10 -18 -23.5 -29.5t-33.5 -19t-47 -10.5t-63 -3q-73 0 -110.5 13.5t-57.5 48.5q-10 17 -17 37.5t-11.5 55.5t-6.5 91.5t-2 145.5t2 145t6.5 91t11.5 55t17 38q10 17 23.5 29t33.5 19.5t47.5 10.5t63.5 3q72 0 109.5 -14t57.5 -48q10 -18 17 -38t11.5 -55
t6.5 -91t2 -145t-2 -145.5t-6.5 -91.5t-11.5 -55.5t-17 -37.5zM266 174q2 7 4 18t3 33t1.5 59.5t0.5 98.5q0 63 -0.5 101t-1.5 60.5t-3 33.5t-4 18q-4 10 -12 14.5t-27 4.5t-27.5 -4.5t-11.5 -14.5q-3 -7 -4.5 -18t-3 -33.5t-2 -60.5t-0.5 -101q0 -61 0.5 -98.5t2 -59.5
t3 -33t4.5 -18q3 -10 11.5 -14t27.5 -4t27 4t12 14zM262 810v123h134v-123h-134zM56 810v123h135v-123h-135z" />
    <glyph glyph-name="multiply" unicode="&#xd7;" 
d="M342 181l-116 115l-116 -115l-83 82l116 117l-115 114l83 84l115 -116l115 116l83 -84l-115 -114l117 -117z" />
    <glyph glyph-name="Oslash" unicode="&#xd8;" 
d="M31 -130l46 154q-5 5 -9.5 11t-8.5 14q-10 17 -17 37.5t-11.5 55.5t-6.5 91.5t-2 145.5t2 145t6.5 91t11.5 55t17 38q10 17 23.5 29t33.5 19.5t47.5 10.5t63.5 3q23 0 43 -1.5t37 -3.5l27 88h73l-36 -117q13 -12 23 -28q10 -18 17 -38t11.5 -55t6.5 -91t2 -145t-2 -145.5
t-6.5 -91.5t-11.5 -55.5t-17 -37.5q-10 -18 -23.5 -29.5t-33.5 -19t-47 -10.5t-63 -3q-53 0 -85 7l-38 -124h-73zM286 466l-95 -312q11 -5 36 -5q23 0 34 4.5t15 14.5q3 7 5 17.5t3.5 27.5t2 44t0.5 68v55.5t0.5 38t1.5 26.5t2 21h-5zM260 617q-5 2 -13.5 3t-19.5 1
q-24 0 -35 -4t-15 -14q-3 -8 -5.5 -18t-4 -26.5t-2 -42t-0.5 -62.5v-60t-0.5 -40.5t-1.5 -27t-2 -20.5h5z" />
    <glyph glyph-name="Ugrave" unicode="&#xd9;" horiz-adv-x="462" 
d="M27 0zM279 757h156v-524q-1 -47 -4 -78t-7.5 -52t-10.5 -34.5t-14 -26.5q-10 -16 -23.5 -26.5t-33.5 -17t-47 -9t-63 -2.5q-73 0 -111 11.5t-57 43.5q-8 13 -15 26.5t-12 34.5t-7.5 52t-2.5 78v524h161v-524q0 -27 1.5 -42t6.5 -23t14 -10t24 -2t23.5 2t13.5 10t6.5 23
t1.5 42v524zM181 789l-115 167v6h141l91 -168v-5h-117z" />
    <glyph glyph-name="Uacute" unicode="&#xda;" horiz-adv-x="462" 
d="M27 0zM279 757h156v-524q-1 -47 -4 -78t-7.5 -52t-10.5 -34.5t-14 -26.5q-10 -16 -23.5 -26.5t-33.5 -17t-47 -9t-63 -2.5q-73 0 -111 11.5t-57 43.5q-8 13 -15 26.5t-12 34.5t-7.5 52t-2.5 78v524h161v-524q0 -27 1.5 -42t6.5 -23t14 -10t24 -2t23.5 2t13.5 10t6.5 23
t1.5 42v524zM165 789v5l91 168h141v-6l-115 -167h-117z" />
    <glyph glyph-name="Ucircumflex" unicode="&#xdb;" horiz-adv-x="462" 
d="M27 0zM279 757h156v-524q-1 -47 -4 -78t-7.5 -52t-10.5 -34.5t-14 -26.5q-10 -16 -23.5 -26.5t-33.5 -17t-47 -9t-63 -2.5q-73 0 -111 11.5t-57 43.5q-8 13 -15 26.5t-12 34.5t-7.5 52t-2.5 78v524h161v-524q0 -27 1.5 -42t6.5 -23t14 -10t24 -2t23.5 2t13.5 10t6.5 23
t1.5 42v524zM283 789l-47 69h-11l-47 -69h-123v5l124 168h103l125 -168v-5h-124z" />
    <glyph glyph-name="Udieresis" unicode="&#xdc;" horiz-adv-x="462" 
d="M27 0zM279 757h156v-524q-1 -47 -4 -78t-7.5 -52t-10.5 -34.5t-14 -26.5q-10 -16 -23.5 -26.5t-33.5 -17t-47 -9t-63 -2.5q-73 0 -111 11.5t-57 43.5q-8 13 -15 26.5t-12 34.5t-7.5 52t-2.5 78v524h161v-524q0 -27 1.5 -42t6.5 -23t14 -10t24 -2t23.5 2t13.5 10t6.5 23
t1.5 42v524zM267 810v123h134v-123h-134zM61 810v123h135v-123h-135z" />
    <glyph glyph-name="Yacute" unicode="&#xdd;" horiz-adv-x="447" 
d="M4 0zM142 0v276l-138 476v5h162q16 -71 25.5 -113.5t15 -68t8.5 -38.5t5 -25h10q2 12 5 25t8.5 38.5t15.5 68t27 113.5h157v-5l-132 -474v-278h-169zM158 789v5l91 168h141v-6l-115 -167h-117z" />
    <glyph glyph-name="Thorn" unicode="&#xde;" horiz-adv-x="451" 
d="M34 0v757h157v-116h70q51 0 84 -13.5t52.5 -44t27 -80.5t7.5 -123q0 -74 -7.5 -125.5t-27 -83.5t-52.5 -46t-84 -14h-70v-111h-157zM233 267q22 0 31 24.5t9 92.5q0 60 -10.5 79.5t-33.5 19.5h-38v-216h42z" />
    <glyph glyph-name="germandbls" unicode="&#xdf;" horiz-adv-x="654" 
d="M67 0v591q0 39 7 74.5t26 59.5q19 25 56.5 35.5t114.5 10.5q37 0 64 -2.5t46 -8t31.5 -14.5t21.5 -22q17 -24 22 -60t5 -74v-44q0 -12 0.5 -19t3.5 -12t8.5 -8.5t14.5 -8.5q35 -19 58 -29.5t41 -24.5q14 -11 22.5 -23t13.5 -31.5t7 -49t2 -74.5q0 -57 -2.5 -97t-6.5 -67
t-10.5 -43t-13.5 -26q-19 -26 -58 -36t-102 -10t-93.5 10.5t-47.5 36.5q-10 15 -16 33.5t-9 36.5t-4 35t-1 29q0 11 0.5 22.5t2.5 23.5h128v-13q0 -50 7 -63q5 -11 37 -11q17 0 24.5 2.5t10.5 8.5q4 8 6.5 30.5t2.5 81.5q0 24 -0.5 38t-3.5 22.5t-8 13t-14 10.5
q-32 20 -61 36t-49 35q-12 11 -18.5 23t-10.5 28.5t-5 39.5t-1 56v30q0 36 -7.5 48t-38.5 12q-16 0 -25 -2.5t-13.5 -9.5t-6 -18.5t-1.5 -29.5v-582h-157z" />
    <glyph glyph-name="agrave" unicode="&#xe0;" horiz-adv-x="445" 
d="M12 0zM271 0l-13 175h-76l-12 -175h-158l81 757h264l76 -757h-162zM225 599h-11l-25 -271h62zM171 789l-115 167v6h141l91 -168v-5h-117z" />
    <glyph glyph-name="aacute" unicode="&#xe1;" horiz-adv-x="445" 
d="M12 0zM271 0l-13 175h-76l-12 -175h-158l81 757h264l76 -757h-162zM225 599h-11l-25 -271h62zM154 789v5l91 168h141v-6l-115 -167h-117z" />
    <glyph glyph-name="acircumflex" unicode="&#xe2;" horiz-adv-x="445" 
d="M12 0zM271 0l-13 175h-76l-12 -175h-158l81 757h264l76 -757h-162zM225 599h-11l-25 -271h62zM272 789l-47 69h-11l-47 -69h-123v5l124 168h103l125 -168v-5h-124z" />
    <glyph glyph-name="atilde" unicode="&#xe3;" horiz-adv-x="445" 
d="M12 0zM271 0l-13 175h-76l-12 -175h-158l81 757h264l76 -757h-162zM225 599h-11l-25 -271h62zM423 856q-23 -32 -49.5 -46.5t-62.5 -14.5q-26 0 -49.5 7t-46 15.5t-44.5 15.5t-43 7q-31 0 -54 -13.5t-46 -44.5h-5v110q15 23 39.5 40.5t60.5 17.5q30 0 56 -7t49.5 -15.5
t45 -15.5t41.5 -7q31 0 55.5 12.5t47.5 44.5h5v-106z" />
    <glyph glyph-name="adieresis" unicode="&#xe4;" horiz-adv-x="445" 
d="M12 0zM271 0l-13 175h-76l-12 -175h-158l81 757h264l76 -757h-162zM225 599h-11l-25 -271h62zM258 810v123h134v-123h-134zM52 810v123h135v-123h-135z" />
    <glyph glyph-name="aring" unicode="&#xe5;" horiz-adv-x="445" 
d="M12 0zM271 0l-13 175h-76l-12 -175h-158l81 757h264l76 -757h-162zM225 599h-11l-25 -271h62zM307 790q-10 -9 -30 -12t-56 -3q-38 0 -57.5 3t-29.5 12q-5 4 -8.5 8.5t-5.5 13t-3 21.5t-1 35t1 35.5t3 21.5t5.5 13t8.5 9q10 8 30 11.5t57 3.5q36 0 56 -3.5t30 -11.5
q5 -4 8.5 -9t6 -13t3.5 -21.5t1 -35.5t-1 -35t-3.5 -21.5t-6 -13t-8.5 -8.5zM251 839q4 2 5.5 7t1.5 23q0 20 -1.5 25t-5.5 8q-2 2 -8.5 3t-21.5 1q-16 0 -22 -1t-10 -3t-5 -7.5t-1 -25.5q0 -18 1 -23t5 -7t10 -3t22 -1q15 0 21 1t9 3z" />
    <glyph glyph-name="ae" unicode="&#xe6;" horiz-adv-x="624" 
d="M12 0zM259 0v175h-77l-12 -175h-158l81 757h502v-160h-179v-133h176v-153h-176v-143h178v-168h-335zM259 599h-45l-25 -271h70v271z" />
    <glyph glyph-name="ccedilla" unicode="&#xe7;" horiz-adv-x="452" 
d="M22 0zM424 290q3 -36 3 -68q0 -60 -6.5 -104.5t-27.5 -73.5t-59.5 -43t-101.5 -14q-75 0 -114.5 13.5t-58.5 48.5q-10 16 -17 38t-11.5 59t-6.5 94t-2 145t2 143t6.5 90t11.5 55t17 37q20 34 58 47t110 13q64 0 103 -12t60 -39t28 -69.5t7 -102.5q0 -14 -0.5 -31
t-1.5 -36h-147q0 30 -0.5 50t-1.5 33t-2.5 20.5l-2.5 12.5q-4 19 -42 19q-19 0 -27.5 -4.5t-11.5 -14.5q-3 -8 -4.5 -18.5t-3 -32t-2 -59.5t-0.5 -99q0 -63 0.5 -101t2 -60t3 -33t4.5 -19q3 -10 12 -14t32 -4q30 0 36 17q4 10 6 21t3 24.5t1.5 31t0.5 40.5h145zM97 -238v5
l57 192h136v-6l-80 -191h-113z" />
    <glyph glyph-name="egrave" unicode="&#xe8;" horiz-adv-x="398" 
d="M34 0zM34 0v757h335v-160h-178v-133h175v-153h-175v-143h177v-168h-334zM153 789l-115 167v6h141l91 -168v-5h-117z" />
    <glyph glyph-name="eacute" unicode="&#xe9;" horiz-adv-x="398" 
d="M34 0zM34 0v757h335v-160h-178v-133h175v-153h-175v-143h177v-168h-334zM139 789v5l91 168h141v-6l-115 -167h-117z" />
    <glyph glyph-name="ecircumflex" unicode="&#xea;" horiz-adv-x="398" 
d="M27 0zM34 0v757h335v-160h-178v-133h175v-153h-175v-143h177v-168h-334zM255 789l-47 69h-11l-47 -69h-123v5l124 168h103l125 -168v-5h-124z" />
    <glyph glyph-name="edieresis" unicode="&#xeb;" horiz-adv-x="398" 
d="M33 0zM34 0v757h335v-160h-178v-133h175v-153h-175v-143h177v-168h-334zM239 810v123h134v-123h-134zM33 810v123h135v-123h-135z" />
    <glyph glyph-name="igrave" unicode="&#xec;" horiz-adv-x="233" 
d="M0 0zM36 0v757h161v-757h-161zM66 789l-115 167v6h141l91 -168v-5h-117z" />
    <glyph glyph-name="iacute" unicode="&#xed;" horiz-adv-x="233" 
d="M36 0zM36 0v757h161v-757h-161zM50 789v5l91 168h141v-6l-115 -167h-117z" />
    <glyph glyph-name="icircumflex" unicode="&#xee;" horiz-adv-x="233" 
d="M0 0zM36 0v757h161v-757h-161zM169 789l-47 69h-11l-47 -69h-123v5l124 168h103l125 -168v-5h-124z" />
    <glyph glyph-name="idieresis" unicode="&#xef;" horiz-adv-x="233" 
d="M0 0zM36 0v757h161v-757h-161zM153 810v123h134v-123h-134zM-53 810v123h135v-123h-135z" />
    <glyph glyph-name="eth" unicode="&#xf0;" horiz-adv-x="471" 
d="M0 0zM34 0v311h-34v153h34v293h211q72 0 110 -13.5t58 -46.5q10 -17 16.5 -36.5t11 -53.5t6.5 -88t2 -140t-2 -140.5t-6.5 -88.5t-11 -54t-16.5 -36q-10 -17 -24 -28.5t-34 -18.5t-47 -10t-63 -3h-211zM244 167q19 0 27 4t12 14q2 7 4 16.5t3 30.5t1.5 56.5t0.5 93.5
t-0.5 94.5t-1.5 57.5t-3 31t-4 17q-4 8 -12 12t-27 4h-61v-134h69v-153h-69v-144h61z" />
    <glyph glyph-name="ntilde" unicode="&#xf1;" horiz-adv-x="475" 
d="M33 0zM361 0l-179 406h-6v-406h-143v757h154l106 -263h6v263h144v-757h-82zM437 856q-23 -32 -49.5 -46.5t-62.5 -14.5q-26 0 -49.5 7t-46 15.5t-44.5 15.5t-43 7q-31 0 -54 -13.5t-46 -44.5h-5v110q15 23 39.5 40.5t60.5 17.5q30 0 56 -7t49.5 -15.5t45 -15.5t41.5 -7
q31 0 55.5 12.5t47.5 44.5h5v-106z" />
    <glyph glyph-name="ograve" unicode="&#xf2;" 
d="M22 0zM394 49q-10 -18 -23.5 -29.5t-33.5 -19t-47 -10.5t-63 -3q-73 0 -110.5 13.5t-57.5 48.5q-10 17 -17 37.5t-11.5 55.5t-6.5 91.5t-2 145.5t2 145t6.5 91t11.5 55t17 38q10 17 23.5 29t33.5 19.5t47.5 10.5t63.5 3q72 0 109.5 -14t57.5 -48q10 -18 17 -38t11.5 -55
t6.5 -91t2 -145t-2 -145.5t-6.5 -91.5t-11.5 -55.5t-17 -37.5zM266 174q2 7 4 18t3 33t1.5 59.5t0.5 98.5q0 63 -0.5 101t-1.5 60.5t-3 33.5t-4 18q-4 10 -12 14.5t-27 4.5t-27.5 -4.5t-11.5 -14.5q-3 -7 -4.5 -18t-3 -33.5t-2 -60.5t-0.5 -101q0 -61 0.5 -98.5t2 -59.5
t3 -33t4.5 -18q3 -10 11.5 -14t27.5 -4t27 4t12 14zM175 789l-115 167v6h141l91 -168v-5h-117z" />
    <glyph glyph-name="oacute" unicode="&#xf3;" 
d="M22 0zM394 49q-10 -18 -23.5 -29.5t-33.5 -19t-47 -10.5t-63 -3q-73 0 -110.5 13.5t-57.5 48.5q-10 17 -17 37.5t-11.5 55.5t-6.5 91.5t-2 145.5t2 145t6.5 91t11.5 55t17 38q10 17 23.5 29t33.5 19.5t47.5 10.5t63.5 3q72 0 109.5 -14t57.5 -48q10 -18 17 -38t11.5 -55
t6.5 -91t2 -145t-2 -145.5t-6.5 -91.5t-11.5 -55.5t-17 -37.5zM266 174q2 7 4 18t3 33t1.5 59.5t0.5 98.5q0 63 -0.5 101t-1.5 60.5t-3 33.5t-4 18q-4 10 -12 14.5t-27 4.5t-27.5 -4.5t-11.5 -14.5q-3 -7 -4.5 -18t-3 -33.5t-2 -60.5t-0.5 -101q0 -61 0.5 -98.5t2 -59.5
t3 -33t4.5 -18q3 -10 11.5 -14t27.5 -4t27 4t12 14zM160 789v5l91 168h141v-6l-115 -167h-117z" />
    <glyph glyph-name="ocircumflex" unicode="&#xf4;" 
d="M22 0zM394 49q-10 -18 -23.5 -29.5t-33.5 -19t-47 -10.5t-63 -3q-73 0 -110.5 13.5t-57.5 48.5q-10 17 -17 37.5t-11.5 55.5t-6.5 91.5t-2 145.5t2 145t6.5 91t11.5 55t17 38q10 17 23.5 29t33.5 19.5t47.5 10.5t63.5 3q72 0 109.5 -14t57.5 -48q10 -18 17 -38t11.5 -55
t6.5 -91t2 -145t-2 -145.5t-6.5 -91.5t-11.5 -55.5t-17 -37.5zM266 174q2 7 4 18t3 33t1.5 59.5t0.5 98.5q0 63 -0.5 101t-1.5 60.5t-3 33.5t-4 18q-4 10 -12 14.5t-27 4.5t-27.5 -4.5t-11.5 -14.5q-3 -7 -4.5 -18t-3 -33.5t-2 -60.5t-0.5 -101q0 -61 0.5 -98.5t2 -59.5
t3 -33t4.5 -18q3 -10 11.5 -14t27.5 -4t27 4t12 14zM278 789l-47 69h-11l-47 -69h-123v5l124 168h103l125 -168v-5h-124z" />
    <glyph glyph-name="otilde" unicode="&#xf5;" 
d="M22 0zM394 49q-10 -18 -23.5 -29.5t-33.5 -19t-47 -10.5t-63 -3q-73 0 -110.5 13.5t-57.5 48.5q-10 17 -17 37.5t-11.5 55.5t-6.5 91.5t-2 145.5t2 145t6.5 91t11.5 55t17 38q10 17 23.5 29t33.5 19.5t47.5 10.5t63.5 3q72 0 109.5 -14t57.5 -48q10 -18 17 -38t11.5 -55
t6.5 -91t2 -145t-2 -145.5t-6.5 -91.5t-11.5 -55.5t-17 -37.5zM266 174q2 7 4 18t3 33t1.5 59.5t0.5 98.5q0 63 -0.5 101t-1.5 60.5t-3 33.5t-4 18q-4 10 -12 14.5t-27 4.5t-27.5 -4.5t-11.5 -14.5q-3 -7 -4.5 -18t-3 -33.5t-2 -60.5t-0.5 -101q0 -61 0.5 -98.5t2 -59.5
t3 -33t4.5 -18q3 -10 11.5 -14t27.5 -4t27 4t12 14zM427 856q-23 -32 -49.5 -46.5t-62.5 -14.5q-26 0 -49.5 7t-46 15.5t-44.5 15.5t-43 7q-31 0 -54 -13.5t-46 -44.5h-5v110q15 23 39.5 40.5t60.5 17.5q30 0 56 -7t49.5 -15.5t45 -15.5t41.5 -7q31 0 55.5 12.5t47.5 44.5h5
v-106z" />
    <glyph glyph-name="odieresis" unicode="&#xf6;" 
d="M22 0zM394 49q-10 -18 -23.5 -29.5t-33.5 -19t-47 -10.5t-63 -3q-73 0 -110.5 13.5t-57.5 48.5q-10 17 -17 37.5t-11.5 55.5t-6.5 91.5t-2 145.5t2 145t6.5 91t11.5 55t17 38q10 17 23.5 29t33.5 19.5t47.5 10.5t63.5 3q72 0 109.5 -14t57.5 -48q10 -18 17 -38t11.5 -55
t6.5 -91t2 -145t-2 -145.5t-6.5 -91.5t-11.5 -55.5t-17 -37.5zM266 174q2 7 4 18t3 33t1.5 59.5t0.5 98.5q0 63 -0.5 101t-1.5 60.5t-3 33.5t-4 18q-4 10 -12 14.5t-27 4.5t-27.5 -4.5t-11.5 -14.5q-3 -7 -4.5 -18t-3 -33.5t-2 -60.5t-0.5 -101q0 -61 0.5 -98.5t2 -59.5
t3 -33t4.5 -18q3 -10 11.5 -14t27.5 -4t27 4t12 14zM262 810v123h134v-123h-134zM56 810v123h135v-123h-135z" />
    <glyph glyph-name="divide" unicode="&#xf7;" 
d="M15 70zM15 321v117h423v-117h-423zM148 538v151h157v-151h-157zM148 70v151h157v-151h-157z" />
    <glyph glyph-name="oslash" unicode="&#xf8;" 
d="M22 0zM31 -130l46 154q-5 5 -9.5 11t-8.5 14q-10 17 -17 37.5t-11.5 55.5t-6.5 91.5t-2 145.5t2 145t6.5 91t11.5 55t17 38q10 17 23.5 29t33.5 19.5t47.5 10.5t63.5 3q23 0 43 -1.5t37 -3.5l27 88h73l-36 -117q13 -12 23 -28q10 -18 17 -38t11.5 -55t6.5 -91t2 -145
t-2 -145.5t-6.5 -91.5t-11.5 -55.5t-17 -37.5q-10 -18 -23.5 -29.5t-33.5 -19t-47 -10.5t-63 -3q-53 0 -85 7l-38 -124h-73zM286 466l-95 -312q11 -5 36 -5q23 0 34 4.5t15 14.5q3 7 5 17.5t3.5 27.5t2 44t0.5 68v55.5t0.5 38t1.5 26.5t2 21h-5zM260 617q-5 2 -13.5 3
t-19.5 1q-24 0 -35 -4t-15 -14q-3 -8 -5.5 -18t-4 -26.5t-2 -42t-0.5 -62.5v-60t-0.5 -40.5t-1.5 -27t-2 -20.5h5z" />
    <glyph glyph-name="ugrave" unicode="&#xf9;" horiz-adv-x="462" 
d="M27 0zM279 757h156v-524q-1 -47 -4 -78t-7.5 -52t-10.5 -34.5t-14 -26.5q-10 -16 -23.5 -26.5t-33.5 -17t-47 -9t-63 -2.5q-73 0 -111 11.5t-57 43.5q-8 13 -15 26.5t-12 34.5t-7.5 52t-2.5 78v524h161v-524q0 -27 1.5 -42t6.5 -23t14 -10t24 -2t23.5 2t13.5 10t6.5 23
t1.5 42v524zM181 789l-115 167v6h141l91 -168v-5h-117z" />
    <glyph glyph-name="uacute" unicode="&#xfa;" horiz-adv-x="462" 
d="M27 0zM279 757h156v-524q-1 -47 -4 -78t-7.5 -52t-10.5 -34.5t-14 -26.5q-10 -16 -23.5 -26.5t-33.5 -17t-47 -9t-63 -2.5q-73 0 -111 11.5t-57 43.5q-8 13 -15 26.5t-12 34.5t-7.5 52t-2.5 78v524h161v-524q0 -27 1.5 -42t6.5 -23t14 -10t24 -2t23.5 2t13.5 10t6.5 23
t1.5 42v524zM165 789v5l91 168h141v-6l-115 -167h-117z" />
    <glyph glyph-name="ucircumflex" unicode="&#xfb;" horiz-adv-x="462" 
d="M27 0zM279 757h156v-524q-1 -47 -4 -78t-7.5 -52t-10.5 -34.5t-14 -26.5q-10 -16 -23.5 -26.5t-33.5 -17t-47 -9t-63 -2.5q-73 0 -111 11.5t-57 43.5q-8 13 -15 26.5t-12 34.5t-7.5 52t-2.5 78v524h161v-524q0 -27 1.5 -42t6.5 -23t14 -10t24 -2t23.5 2t13.5 10t6.5 23
t1.5 42v524zM283 789l-47 69h-11l-47 -69h-123v5l124 168h103l125 -168v-5h-124z" />
    <glyph glyph-name="udieresis" unicode="&#xfc;" horiz-adv-x="462" 
d="M27 0zM279 757h156v-524q-1 -47 -4 -78t-7.5 -52t-10.5 -34.5t-14 -26.5q-10 -16 -23.5 -26.5t-33.5 -17t-47 -9t-63 -2.5q-73 0 -111 11.5t-57 43.5q-8 13 -15 26.5t-12 34.5t-7.5 52t-2.5 78v524h161v-524q0 -27 1.5 -42t6.5 -23t14 -10t24 -2t23.5 2t13.5 10t6.5 23
t1.5 42v524zM267 810v123h134v-123h-134zM61 810v123h135v-123h-135z" />
    <glyph glyph-name="yacute" unicode="&#xfd;" horiz-adv-x="447" 
d="M4 0zM142 0v276l-138 476v5h162q16 -71 25.5 -113.5t15 -68t8.5 -38.5t5 -25h10q2 12 5 25t8.5 38.5t15.5 68t27 113.5h157v-5l-132 -474v-278h-169zM158 789v5l91 168h141v-6l-115 -167h-117z" />
    <glyph glyph-name="thorn" unicode="&#xfe;" horiz-adv-x="451" 
d="M34 0zM34 0v757h157v-116h70q51 0 84 -13.5t52.5 -44t27 -80.5t7.5 -123q0 -74 -7.5 -125.5t-27 -83.5t-52.5 -46t-84 -14h-70v-111h-157zM233 267q22 0 31 24.5t9 92.5q0 60 -10.5 79.5t-33.5 19.5h-38v-216h42z" />
    <glyph glyph-name="ydieresis" unicode="&#xff;" horiz-adv-x="447" 
d="M4 0zM142 0v276l-138 476v5h162q16 -71 25.5 -113.5t15 -68t8.5 -38.5t5 -25h10q2 12 5 25t8.5 38.5t15.5 68t27 113.5h157v-5l-132 -474v-278h-169zM260 810v123h134v-123h-134zM54 810v123h135v-123h-135z" />
    <glyph glyph-name="Amacron" unicode="&#x100;" horiz-adv-x="445" 
d="M12 0zM271 0l-13 175h-76l-12 -175h-158l81 757h264l76 -757h-162zM225 599h-11l-25 -271h62zM20 823v106h400v-106h-400z" />
    <glyph glyph-name="amacron" unicode="&#x101;" horiz-adv-x="445" 
d="M12 0zM271 0l-13 175h-76l-12 -175h-158l81 757h264l76 -757h-162zM225 599h-11l-25 -271h62zM20 823v106h400v-106h-400z" />
    <glyph glyph-name="Abreve" unicode="&#x102;" horiz-adv-x="445" 
d="M12 0zM271 0l-13 175h-76l-12 -175h-158l81 757h264l76 -757h-162zM225 599h-11l-25 -271h62zM386 962q0 -37 -2 -61t-5.5 -39.5t-8.5 -25t-12 -16.5q-16 -19 -47 -25t-90 -6q-58 0 -89 6t-47 25q-7 7 -12 16.5t-8.5 25t-5.5 39.5t-2 61h102q0 -20 0.5 -32.5t2 -20
t3.5 -12t6 -7.5q5 -5 15 -6.5t35 -1.5q26 0 36 1.5t14 6.5q3 4 5.5 8t4 11.5t2.5 20t1 32.5h102z" />
    <glyph glyph-name="abreve" unicode="&#x103;" horiz-adv-x="445" 
d="M12 0zM271 0l-13 175h-76l-12 -175h-158l81 757h264l76 -757h-162zM225 599h-11l-25 -271h62zM386 962q0 -37 -2 -61t-5.5 -39.5t-8.5 -25t-12 -16.5q-16 -19 -47 -25t-90 -6q-58 0 -89 6t-47 25q-7 7 -12 16.5t-8.5 25t-5.5 39.5t-2 61h102q0 -20 0.5 -32.5t2 -20
t3.5 -12t6 -7.5q5 -5 15 -6.5t35 -1.5q26 0 36 1.5t14 6.5q3 4 5.5 8t4 11.5t2.5 20t1 32.5h102z" />
    <glyph glyph-name="Aogonek" unicode="&#x104;" horiz-adv-x="445" 
d="M432 -200q-8 -11 -39 -24.5t-85 -13.5q-134 0 -134 106q0 16 4.5 31.5t15.5 30.5t30 28t49 23l-15 194h-76l-12 -175h-158l81 757h264l76 -757q-18 -6 -36.5 -13t-33 -15t-23.5 -18.5t-9 -24.5q0 -24 11 -35t39 -11q16 0 27 3.5t19 6.5h5v-93zM225 599h-11l-25 -271h62z
" />
    <glyph glyph-name="aogonek" unicode="&#x105;" horiz-adv-x="445" 
d="M12 0zM432 -200q-8 -11 -39 -24.5t-85 -13.5q-134 0 -134 106q0 16 4.5 31.5t15.5 30.5t30 28t49 23l-15 194h-76l-12 -175h-158l81 757h264l76 -757q-18 -6 -36.5 -13t-33 -15t-23.5 -18.5t-9 -24.5q0 -24 11 -35t39 -11q16 0 27 3.5t19 6.5h5v-93zM225 599h-11
l-25 -271h62z" />
    <glyph glyph-name="Cacute" unicode="&#x106;" horiz-adv-x="452" 
d="M22 0zM424 290q3 -36 3 -68q0 -60 -6.5 -104.5t-27.5 -73.5t-59.5 -43t-101.5 -14q-75 0 -114.5 13.5t-58.5 48.5q-10 16 -17 38t-11.5 59t-6.5 94t-2 145t2 143t6.5 90t11.5 55t17 37q20 34 58 47t110 13q64 0 103 -12t60 -39t28 -69.5t7 -102.5q0 -14 -0.5 -31
t-1.5 -36h-147q0 30 -0.5 50t-1.5 33t-2.5 20.5l-2.5 12.5q-4 19 -42 19q-19 0 -27.5 -4.5t-11.5 -14.5q-3 -8 -4.5 -18.5t-3 -32t-2 -59.5t-0.5 -99q0 -63 0.5 -101t2 -60t3 -33t4.5 -19q3 -10 12 -14t32 -4q30 0 36 17q4 10 6 21t3 24.5t1.5 31t0.5 40.5h145zM161 789v5
l91 168h141v-6l-115 -167h-117z" />
    <glyph glyph-name="cacute" unicode="&#x107;" horiz-adv-x="452" 
d="M22 0zM424 290q3 -36 3 -68q0 -60 -6.5 -104.5t-27.5 -73.5t-59.5 -43t-101.5 -14q-75 0 -114.5 13.5t-58.5 48.5q-10 16 -17 38t-11.5 59t-6.5 94t-2 145t2 143t6.5 90t11.5 55t17 37q20 34 58 47t110 13q64 0 103 -12t60 -39t28 -69.5t7 -102.5q0 -14 -0.5 -31
t-1.5 -36h-147q0 30 -0.5 50t-1.5 33t-2.5 20.5l-2.5 12.5q-4 19 -42 19q-19 0 -27.5 -4.5t-11.5 -14.5q-3 -8 -4.5 -18.5t-3 -32t-2 -59.5t-0.5 -99q0 -63 0.5 -101t2 -60t3 -33t4.5 -19q3 -10 12 -14t32 -4q30 0 36 17q4 10 6 21t3 24.5t1.5 31t0.5 40.5h145zM161 789v5
l91 168h141v-6l-115 -167h-117z" />
    <glyph glyph-name="Cdotaccent" unicode="&#x10a;" horiz-adv-x="452" 
d="M22 0zM424 290q3 -36 3 -68q0 -60 -6.5 -104.5t-27.5 -73.5t-59.5 -43t-101.5 -14q-75 0 -114.5 13.5t-58.5 48.5q-10 16 -17 38t-11.5 59t-6.5 94t-2 145t2 143t6.5 90t11.5 55t17 37q20 34 58 47t110 13q64 0 103 -12t60 -39t28 -69.5t7 -102.5q0 -14 -0.5 -31
t-1.5 -36h-147q0 30 -0.5 50t-1.5 33t-2.5 20.5l-2.5 12.5q-4 19 -42 19q-19 0 -27.5 -4.5t-11.5 -14.5q-3 -8 -4.5 -18.5t-3 -32t-2 -59.5t-0.5 -99q0 -63 0.5 -101t2 -60t3 -33t4.5 -19q3 -10 12 -14t32 -4q30 0 36 17q4 10 6 21t3 24.5t1.5 31t0.5 40.5h145zM158 810v123
h135v-123h-135z" />
    <glyph glyph-name="cdotaccent" unicode="&#x10b;" horiz-adv-x="452" 
d="M22 0zM424 290q3 -36 3 -68q0 -60 -6.5 -104.5t-27.5 -73.5t-59.5 -43t-101.5 -14q-75 0 -114.5 13.5t-58.5 48.5q-10 16 -17 38t-11.5 59t-6.5 94t-2 145t2 143t6.5 90t11.5 55t17 37q20 34 58 47t110 13q64 0 103 -12t60 -39t28 -69.5t7 -102.5q0 -14 -0.5 -31
t-1.5 -36h-147q0 30 -0.5 50t-1.5 33t-2.5 20.5l-2.5 12.5q-4 19 -42 19q-19 0 -27.5 -4.5t-11.5 -14.5q-3 -8 -4.5 -18.5t-3 -32t-2 -59.5t-0.5 -99q0 -63 0.5 -101t2 -60t3 -33t4.5 -19q3 -10 12 -14t32 -4q30 0 36 17q4 10 6 21t3 24.5t1.5 31t0.5 40.5h145zM158 810v123
h135v-123h-135z" />
    <glyph glyph-name="Ccaron" unicode="&#x10c;" horiz-adv-x="452" 
d="M22 0zM424 290q3 -36 3 -68q0 -60 -6.5 -104.5t-27.5 -73.5t-59.5 -43t-101.5 -14q-75 0 -114.5 13.5t-58.5 48.5q-10 16 -17 38t-11.5 59t-6.5 94t-2 145t2 143t6.5 90t11.5 55t17 37q20 34 58 47t110 13q64 0 103 -12t60 -39t28 -69.5t7 -102.5q0 -14 -0.5 -31
t-1.5 -36h-147q0 30 -0.5 50t-1.5 33t-2.5 20.5l-2.5 12.5q-4 19 -42 19q-19 0 -27.5 -4.5t-11.5 -14.5q-3 -8 -4.5 -18.5t-3 -32t-2 -59.5t-0.5 -99q0 -63 0.5 -101t2 -60t3 -33t4.5 -19q3 -10 12 -14t32 -4q30 0 36 17q4 10 6 21t3 24.5t1.5 31t0.5 40.5h145zM175 789
l-124 167v6h123l48 -69h11l46 69h124v-6l-125 -167h-103z" />
    <glyph glyph-name="ccaron" unicode="&#x10d;" horiz-adv-x="452" 
d="M22 0zM424 290q3 -36 3 -68q0 -60 -6.5 -104.5t-27.5 -73.5t-59.5 -43t-101.5 -14q-75 0 -114.5 13.5t-58.5 48.5q-10 16 -17 38t-11.5 59t-6.5 94t-2 145t2 143t6.5 90t11.5 55t17 37q20 34 58 47t110 13q64 0 103 -12t60 -39t28 -69.5t7 -102.5q0 -14 -0.5 -31
t-1.5 -36h-147q0 30 -0.5 50t-1.5 33t-2.5 20.5l-2.5 12.5q-4 19 -42 19q-19 0 -27.5 -4.5t-11.5 -14.5q-3 -8 -4.5 -18.5t-3 -32t-2 -59.5t-0.5 -99q0 -63 0.5 -101t2 -60t3 -33t4.5 -19q3 -10 12 -14t32 -4q30 0 36 17q4 10 6 21t3 24.5t1.5 31t0.5 40.5h145zM175 789
l-124 167v6h123l48 -69h11l46 69h124v-6l-125 -167h-103z" />
    <glyph glyph-name="Dcaron" unicode="&#x10e;" horiz-adv-x="471" 
d="M34 0zM34 0v757h211q72 0 110 -13.5t58 -46.5q10 -17 16.5 -36.5t11 -53.5t6.5 -88t2 -140t-2 -140.5t-6.5 -88.5t-11 -54t-16.5 -36q-10 -17 -24 -28.5t-34 -18.5t-47 -10t-63 -3h-211zM241 167q19 0 27 4t12 14q2 7 4 16.5t3 30.5t1.5 56.5t0.5 93.5t-0.5 94.5
t-1.5 57.5t-3 31t-4 17q-4 8 -12 12t-27 4h-50v-431h50zM179 789l-124 167v6h123l48 -69h11l46 69h124v-6l-125 -167h-103z" />
    <glyph glyph-name="dcaron" unicode="&#x10f;" horiz-adv-x="471" 
d="M34 0zM34 0v757h211q72 0 110 -13.5t58 -46.5q10 -17 16.5 -36.5t11 -53.5t6.5 -88t2 -140t-2 -140.5t-6.5 -88.5t-11 -54t-16.5 -36q-10 -17 -24 -28.5t-34 -18.5t-47 -10t-63 -3h-211zM241 167q19 0 27 4t12 14q2 7 4 16.5t3 30.5t1.5 56.5t0.5 93.5t-0.5 94.5
t-1.5 57.5t-3 31t-4 17q-4 8 -12 12t-27 4h-50v-431h50zM179 789l-124 167v6h123l48 -69h11l46 69h124v-6l-125 -167h-103z" />
    <glyph glyph-name="Dcroat" unicode="&#x110;" horiz-adv-x="471" 
d="M0 0zM34 0v311h-34v153h34v293h211q72 0 110 -13.5t58 -46.5q10 -17 16.5 -36.5t11 -53.5t6.5 -88t2 -140t-2 -140.5t-6.5 -88.5t-11 -54t-16.5 -36q-10 -17 -24 -28.5t-34 -18.5t-47 -10t-63 -3h-211zM244 167q19 0 27 4t12 14q2 7 4 16.5t3 30.5t1.5 56.5t0.5 93.5
t-0.5 94.5t-1.5 57.5t-3 31t-4 17q-4 8 -12 12t-27 4h-61v-134h69v-153h-69v-144h61z" />
    <glyph glyph-name="dcroat" unicode="&#x111;" horiz-adv-x="471" 
d="M0 0zM34 0v311h-34v153h34v293h211q72 0 110 -13.5t58 -46.5q10 -17 16.5 -36.5t11 -53.5t6.5 -88t2 -140t-2 -140.5t-6.5 -88.5t-11 -54t-16.5 -36q-10 -17 -24 -28.5t-34 -18.5t-47 -10t-63 -3h-211zM244 167q19 0 27 4t12 14q2 7 4 16.5t3 30.5t1.5 56.5t0.5 93.5
t-0.5 94.5t-1.5 57.5t-3 31t-4 17q-4 8 -12 12t-27 4h-61v-134h69v-153h-69v-144h61z" />
    <glyph glyph-name="Emacron" unicode="&#x112;" horiz-adv-x="398" 
d="M2 0zM34 0v757h335v-160h-178v-133h175v-153h-175v-143h177v-168h-334zM2 823v106h400v-106h-400z" />
    <glyph glyph-name="emacron" unicode="&#x113;" horiz-adv-x="398" 
d="M2 0zM34 0v757h335v-160h-178v-133h175v-153h-175v-143h177v-168h-334zM2 823v106h400v-106h-400z" />
    <glyph glyph-name="Ebreve" unicode="&#x114;" horiz-adv-x="398" 
d="M34 0zM34 0v757h335v-160h-178v-133h175v-153h-175v-143h177v-168h-334zM367 962q0 -37 -2 -61t-5.5 -39.5t-8.5 -25t-12 -16.5q-16 -19 -47 -25t-90 -6q-58 0 -89 6t-47 25q-7 7 -12 16.5t-8.5 25t-5.5 39.5t-2 61h102q0 -20 0.5 -32.5t2 -20t3.5 -12t6 -7.5
q5 -5 15 -6.5t35 -1.5q26 0 36 1.5t14 6.5q3 4 5.5 8t4 11.5t2.5 20t1 32.5h102z" />
    <glyph glyph-name="ebreve" unicode="&#x115;" horiz-adv-x="398" 
d="M34 0zM34 0v757h335v-160h-178v-133h175v-153h-175v-143h177v-168h-334zM367 962q0 -37 -2 -61t-5.5 -39.5t-8.5 -25t-12 -16.5q-16 -19 -47 -25t-90 -6q-58 0 -89 6t-47 25q-7 7 -12 16.5t-8.5 25t-5.5 39.5t-2 61h102q0 -20 0.5 -32.5t2 -20t3.5 -12t6 -7.5
q5 -5 15 -6.5t35 -1.5q26 0 36 1.5t14 6.5q3 4 5.5 8t4 11.5t2.5 20t1 32.5h102z" />
    <glyph glyph-name="Edotaccent" unicode="&#x116;" horiz-adv-x="398" 
d="M34 0zM34 0v757h335v-160h-178v-133h175v-153h-175v-143h177v-168h-334zM138 810v123h135v-123h-135z" />
    <glyph glyph-name="edotaccent" unicode="&#x117;" horiz-adv-x="398" 
d="M34 0zM34 0v757h335v-160h-178v-133h175v-153h-175v-143h177v-168h-334zM138 810v123h135v-123h-135z" />
    <glyph glyph-name="Eogonek" unicode="&#x118;" horiz-adv-x="398" 
d="M367 -200q-8 -11 -39 -24.5t-85 -13.5q-134 0 -134 106q0 21 8 42t30 39t61 31.5t100 19.5h-274v757h335v-160h-178v-133h175v-153h-175v-143h177v-168q-18 -6 -36.5 -13t-33 -15t-23.5 -18.5t-9 -24.5q0 -24 11 -35t39 -11q16 0 27 3.5t19 6.5h5v-93z" />
    <glyph glyph-name="eogonek" unicode="&#x119;" horiz-adv-x="398" 
d="M34 0zM367 -200q-8 -11 -39 -24.5t-85 -13.5q-134 0 -134 106q0 21 8 42t30 39t61 31.5t100 19.5h-274v757h335v-160h-178v-133h175v-153h-175v-143h177v-168q-18 -6 -36.5 -13t-33 -15t-23.5 -18.5t-9 -24.5q0 -24 11 -35t39 -11q16 0 27 3.5t19 6.5h5v-93z" />
    <glyph glyph-name="Ecaron" unicode="&#x11a;" horiz-adv-x="398" 
d="M26 0zM34 0v757h335v-160h-178v-133h175v-153h-175v-143h177v-168h-334zM150 789l-124 167v6h123l48 -69h11l46 69h124v-6l-125 -167h-103z" />
    <glyph glyph-name="ecaron" unicode="&#x11b;" horiz-adv-x="398" 
d="M26 0zM34 0v757h335v-160h-178v-133h175v-153h-175v-143h177v-168h-334zM150 789l-124 167v6h123l48 -69h11l46 69h124v-6l-125 -167h-103z" />
    <glyph glyph-name="Gbreve" unicode="&#x11e;" horiz-adv-x="449" 
d="M22 0zM286 293h-73v152h214q1 -20 1.5 -58t0.5 -91q0 -62 -2 -103t-6.5 -68t-11 -44t-15.5 -32q-10 -18 -23.5 -29.5t-33.5 -19t-47 -10.5t-63 -3q-73 0 -110.5 13.5t-57.5 48.5q-10 17 -17 37.5t-11.5 56.5t-6.5 93t-2 149q0 88 2 143t6.5 90t11.5 55t17 37q20 34 58 47
t110 13q83 0 125 -21.5t59 -72.5q13 -42 13 -111v-21.5t-1 -17.5h-146q1 3 1 6.5v6.5q0 25 -2 37t-4 20q-4 19 -46 19q-20 0 -29.5 -4.5t-13.5 -14.5q-2 -8 -4 -18.5t-3 -32t-1.5 -59.5t-0.5 -99q0 -65 0.5 -103.5t1.5 -60t2.5 -31t3.5 -16.5q8 -22 48 -22q20 0 29.5 4.5
t15.5 14.5q3 5 5.5 10.5t3.5 14.5t1.5 22.5t0.5 36.5v36zM391 962q0 -37 -2 -61t-5.5 -39.5t-8.5 -25t-12 -16.5q-16 -19 -47 -25t-90 -6q-58 0 -89 6t-47 25q-7 7 -12 16.5t-8.5 25t-5.5 39.5t-2 61h102q0 -20 0.5 -32.5t2 -20t3.5 -12t6 -7.5q5 -5 15 -6.5t35 -1.5
q26 0 36 1.5t14 6.5q3 4 5.5 8t4 11.5t2.5 20t1 32.5h102z" />
    <glyph glyph-name="gbreve" unicode="&#x11f;" horiz-adv-x="449" 
d="M22 0zM286 293h-73v152h214q1 -20 1.5 -58t0.5 -91q0 -62 -2 -103t-6.5 -68t-11 -44t-15.5 -32q-10 -18 -23.5 -29.5t-33.5 -19t-47 -10.5t-63 -3q-73 0 -110.5 13.5t-57.5 48.5q-10 17 -17 37.5t-11.5 56.5t-6.5 93t-2 149q0 88 2 143t6.5 90t11.5 55t17 37q20 34 58 47
t110 13q83 0 125 -21.5t59 -72.5q13 -42 13 -111v-21.5t-1 -17.5h-146q1 3 1 6.5v6.5q0 25 -2 37t-4 20q-4 19 -46 19q-20 0 -29.5 -4.5t-13.5 -14.5q-2 -8 -4 -18.5t-3 -32t-1.5 -59.5t-0.5 -99q0 -65 0.5 -103.5t1.5 -60t2.5 -31t3.5 -16.5q8 -22 48 -22q20 0 29.5 4.5
t15.5 14.5q3 5 5.5 10.5t3.5 14.5t1.5 22.5t0.5 36.5v36zM391 962q0 -37 -2 -61t-5.5 -39.5t-8.5 -25t-12 -16.5q-16 -19 -47 -25t-90 -6q-58 0 -89 6t-47 25q-7 7 -12 16.5t-8.5 25t-5.5 39.5t-2 61h102q0 -20 0.5 -32.5t2 -20t3.5 -12t6 -7.5q5 -5 15 -6.5t35 -1.5
q26 0 36 1.5t14 6.5q3 4 5.5 8t4 11.5t2.5 20t1 32.5h102z" />
    <glyph glyph-name="Gdotaccent" unicode="&#x120;" horiz-adv-x="449" 
d="M22 0zM286 293h-73v152h214q1 -20 1.5 -58t0.5 -91q0 -62 -2 -103t-6.5 -68t-11 -44t-15.5 -32q-10 -18 -23.5 -29.5t-33.5 -19t-47 -10.5t-63 -3q-73 0 -110.5 13.5t-57.5 48.5q-10 17 -17 37.5t-11.5 56.5t-6.5 93t-2 149q0 88 2 143t6.5 90t11.5 55t17 37q20 34 58 47
t110 13q83 0 125 -21.5t59 -72.5q13 -42 13 -111v-21.5t-1 -17.5h-146q1 3 1 6.5v6.5q0 25 -2 37t-4 20q-4 19 -46 19q-20 0 -29.5 -4.5t-13.5 -14.5q-2 -8 -4 -18.5t-3 -32t-1.5 -59.5t-0.5 -99q0 -65 0.5 -103.5t1.5 -60t2.5 -31t3.5 -16.5q8 -22 48 -22q20 0 29.5 4.5
t15.5 14.5q3 5 5.5 10.5t3.5 14.5t1.5 22.5t0.5 36.5v36zM159 810v123h135v-123h-135z" />
    <glyph glyph-name="gdotaccent" unicode="&#x121;" horiz-adv-x="449" 
d="M22 0zM286 293h-73v152h214q1 -20 1.5 -58t0.5 -91q0 -62 -2 -103t-6.5 -68t-11 -44t-15.5 -32q-10 -18 -23.5 -29.5t-33.5 -19t-47 -10.5t-63 -3q-73 0 -110.5 13.5t-57.5 48.5q-10 17 -17 37.5t-11.5 56.5t-6.5 93t-2 149q0 88 2 143t6.5 90t11.5 55t17 37q20 34 58 47
t110 13q83 0 125 -21.5t59 -72.5q13 -42 13 -111v-21.5t-1 -17.5h-146q1 3 1 6.5v6.5q0 25 -2 37t-4 20q-4 19 -46 19q-20 0 -29.5 -4.5t-13.5 -14.5q-2 -8 -4 -18.5t-3 -32t-1.5 -59.5t-0.5 -99q0 -65 0.5 -103.5t1.5 -60t2.5 -31t3.5 -16.5q8 -22 48 -22q20 0 29.5 4.5
t15.5 14.5q3 5 5.5 10.5t3.5 14.5t1.5 22.5t0.5 36.5v36zM159 810v123h135v-123h-135z" />
    <glyph glyph-name="Gcommaaccent" unicode="&#x122;" horiz-adv-x="449" 
d="M22 0zM286 293h-73v152h214q1 -20 1.5 -58t0.5 -91q0 -62 -2 -103t-6.5 -68t-11 -44t-15.5 -32q-10 -18 -23.5 -29.5t-33.5 -19t-47 -10.5t-63 -3q-73 0 -110.5 13.5t-57.5 48.5q-10 17 -17 37.5t-11.5 56.5t-6.5 93t-2 149q0 88 2 143t6.5 90t11.5 55t17 37q20 34 58 47
t110 13q83 0 125 -21.5t59 -72.5q13 -42 13 -111v-21.5t-1 -17.5h-146q1 3 1 6.5v6.5q0 25 -2 37t-4 20q-4 19 -46 19q-20 0 -29.5 -4.5t-13.5 -14.5q-2 -8 -4 -18.5t-3 -32t-1.5 -59.5t-0.5 -99q0 -65 0.5 -103.5t1.5 -60t2.5 -31t3.5 -16.5q8 -22 48 -22q20 0 29.5 4.5
t15.5 14.5q3 5 5.5 10.5t3.5 14.5t1.5 22.5t0.5 36.5v36zM107 -238v5l57 192h136v-6l-80 -191h-113z" />
    <glyph glyph-name="gcommaaccent" unicode="&#x123;" horiz-adv-x="449" 
d="M22 0zM286 293h-73v152h214q1 -20 1.5 -58t0.5 -91q0 -62 -2 -103t-6.5 -68t-11 -44t-15.5 -32q-10 -18 -23.5 -29.5t-33.5 -19t-47 -10.5t-63 -3q-73 0 -110.5 13.5t-57.5 48.5q-10 17 -17 37.5t-11.5 56.5t-6.5 93t-2 149q0 88 2 143t6.5 90t11.5 55t17 37q20 34 58 47
t110 13q83 0 125 -21.5t59 -72.5q13 -42 13 -111v-21.5t-1 -17.5h-146q1 3 1 6.5v6.5q0 25 -2 37t-4 20q-4 19 -46 19q-20 0 -29.5 -4.5t-13.5 -14.5q-2 -8 -4 -18.5t-3 -32t-1.5 -59.5t-0.5 -99q0 -65 0.5 -103.5t1.5 -60t2.5 -31t3.5 -16.5q8 -22 48 -22q20 0 29.5 4.5
t15.5 14.5q3 5 5.5 10.5t3.5 14.5t1.5 22.5t0.5 36.5v36zM107 -238v5l57 192h136v-6l-80 -191h-113z" />
    <glyph glyph-name="Hbar" unicode="&#x126;" horiz-adv-x="484" 
d="M291 0v285h-98v-285h-161v757h161v-113h98v113h161v-757h-161zM291 538h-98v-100h98v100z" />
    <glyph glyph-name="hbar" unicode="&#x127;" horiz-adv-x="484" 
d="M32 0zM291 0v285h-98v-285h-161v757h161v-113h98v113h161v-757h-161zM291 538h-98v-100h98v100z" />
    <glyph glyph-name="Imacron" unicode="&#x12a;" horiz-adv-x="233" 
d="M0 0zM36 0v757h161v-757h-161zM-83 823v106h400v-106h-400z" />
    <glyph glyph-name="imacron" unicode="&#x12b;" horiz-adv-x="233" 
d="M0 0zM36 0v757h161v-757h-161zM-83 823v106h400v-106h-400z" />
    <glyph glyph-name="Ibreve" unicode="&#x12c;" horiz-adv-x="233" 
d="M0 0zM36 0v757h161v-757h-161zM281 962q0 -37 -2 -61t-5.5 -39.5t-8.5 -25t-12 -16.5q-16 -19 -47 -25t-90 -6q-58 0 -89 6t-47 25q-7 7 -12 16.5t-8.5 25t-5.5 39.5t-2 61h102q0 -20 0.5 -32.5t2 -20t3.5 -12t6 -7.5q5 -5 15 -6.5t35 -1.5q26 0 36 1.5t14 6.5q3 4 5.5 8
t4 11.5t2.5 20t1 32.5h102z" />
    <glyph glyph-name="ibreve" unicode="&#x12d;" horiz-adv-x="233" 
d="M0 0zM36 0v757h161v-757h-161zM281 962q0 -37 -2 -61t-5.5 -39.5t-8.5 -25t-12 -16.5q-16 -19 -47 -25t-90 -6q-58 0 -89 6t-47 25q-7 7 -12 16.5t-8.5 25t-5.5 39.5t-2 61h102q0 -20 0.5 -32.5t2 -20t3.5 -12t6 -7.5q5 -5 15 -6.5t35 -1.5q26 0 36 1.5t14 6.5q3 4 5.5 8
t4 11.5t2.5 20t1 32.5h102z" />
    <glyph glyph-name="Iogonek" unicode="&#x12e;" horiz-adv-x="233" 
d="M196 -200q-8 -11 -39 -24.5t-85 -13.5q-134 0 -134 106q0 16 4.5 31.5t15.5 30.5t30 27.5t48 22.5v777h161v-757q-18 -6 -36.5 -13t-33 -15t-23.5 -18.5t-9 -24.5q0 -24 11 -35t39 -11q16 0 27 3.5t19 6.5h5v-93z" />
    <glyph glyph-name="iogonek" unicode="&#x12f;" horiz-adv-x="233" 
d="M0 0zM196 -200q-8 -11 -39 -24.5t-85 -13.5q-134 0 -134 106q0 16 4.5 31.5t15.5 30.5t30 27.5t48 22.5v777h161v-757q-18 -6 -36.5 -13t-33 -15t-23.5 -18.5t-9 -24.5q0 -24 11 -35t39 -11q16 0 27 3.5t19 6.5h5v-93z" />
    <glyph glyph-name="Idotaccent" unicode="&#x130;" horiz-adv-x="233" 
d="M36 0zM36 0v757h161v-757h-161zM49 810v123h135v-123h-135z" />
    <glyph glyph-name="dotlessi" unicode="&#x131;" horiz-adv-x="233" 
d="M36 0zM36 0v757h161v-757h-161z" />
    <glyph glyph-name="IJ" unicode="&#x132;" horiz-adv-x="676" 
d="M36 0zM36 0v757h161v-757h-161zM488 757h161v-367q0 -86 -2 -144t-6.5 -96.5t-11 -61.5t-16.5 -39q-10 -17 -24 -29t-34.5 -19.5t-49 -10.5t-65.5 -3q-63 0 -101.5 14t-59.5 43t-27.5 73.5t-6.5 104.5q0 32 3 68h140q0 -23 0.5 -40.5t1.5 -31t3 -24.5t5 -21q7 -17 36 -17
q23 0 32 4t13 14q2 8 4 19t3 33t1.5 59.5t0.5 100.5v371z" />
    <glyph glyph-name="ij" unicode="&#x133;" horiz-adv-x="676" 
d="M36 0zM36 0v757h161v-757h-161zM488 757h161v-367q0 -86 -2 -144t-6.5 -96.5t-11 -61.5t-16.5 -39q-10 -17 -24 -29t-34.5 -19.5t-49 -10.5t-65.5 -3q-63 0 -101.5 14t-59.5 43t-27.5 73.5t-6.5 104.5q0 32 3 68h140q0 -23 0.5 -40.5t1.5 -31t3 -24.5t5 -21q7 -17 36 -17
q23 0 32 4t13 14q2 8 4 19t3 33t1.5 59.5t0.5 100.5v371z" />
    <glyph glyph-name="Kcommaaccent" unicode="&#x136;" horiz-adv-x="488" 
d="M34 0zM298 0l-95 340h-10q2 -13 2 -27.5v-28.5v-284h-161v757h161v-276q0 -12 -0.5 -21.5t-1.5 -19.5h10l101 317h165v-5l-115 -338l124 -409v-5h-180zM119 -238v5l57 192h136v-6l-80 -191h-113z" />
    <glyph glyph-name="kcommaaccent" unicode="&#x137;" horiz-adv-x="488" 
d="M34 0zM298 0l-95 340h-10q2 -13 2 -27.5v-28.5v-284h-161v757h161v-276q0 -12 -0.5 -21.5t-1.5 -19.5h10l101 317h165v-5l-115 -338l124 -409v-5h-180zM119 -238v5l57 192h136v-6l-80 -191h-113z" />
    <glyph glyph-name="Lacute" unicode="&#x139;" horiz-adv-x="366" 
d="M34 0zM34 0v757h157v-589h162v-168h-319zM117 789v5l91 168h141v-6l-115 -167h-117z" />
    <glyph glyph-name="lacute" unicode="&#x13a;" horiz-adv-x="366" 
d="M34 0zM34 0v757h157v-589h162v-168h-319zM117 789v5l91 168h141v-6l-115 -167h-117z" />
    <glyph glyph-name="Lcommaaccent" unicode="&#x13b;" horiz-adv-x="366" 
d="M34 0zM34 0v757h157v-589h162v-168h-319zM72 -238v5l57 192h136v-6l-80 -191h-113z" />
    <glyph glyph-name="lcommaaccent" unicode="&#x13c;" horiz-adv-x="366" 
d="M34 0zM34 0v757h157v-589h162v-168h-319zM72 -238v5l57 192h136v-6l-80 -191h-113z" />
    <glyph glyph-name="Lcaron" unicode="&#x13d;" horiz-adv-x="389" 
d="M34 0zM34 0v757h157v-589h162v-168h-319zM214 591v5l57 192h136v-6l-80 -191h-113z" />
    <glyph glyph-name="lcaron" unicode="&#x13e;" horiz-adv-x="389" 
d="M34 0zM34 0v757h157v-589h162v-168h-319zM214 591v5l57 192h136v-6l-80 -191h-113z" />
    <glyph glyph-name="Ldot" unicode="&#x13f;" horiz-adv-x="373" 
d="M34 0zM34 0v757h157v-589h162v-168h-319zM234 347v123h135v-123h-135z" />
    <glyph glyph-name="ldot" unicode="&#x140;" horiz-adv-x="373" 
d="M34 0zM34 0v757h157v-589h162v-168h-319zM234 347v123h135v-123h-135z" />
    <glyph glyph-name="Lslash" unicode="&#x141;" horiz-adv-x="366" 
d="M34 0v390l-29 -15h-5v123l34 18v241h157v-157l108 58h5v-122l-113 -61v-307h162v-168h-319z" />
    <glyph glyph-name="lslash" unicode="&#x142;" horiz-adv-x="366" 
d="M0 0zM34 0v390l-29 -15h-5v123l34 18v241h157v-157l108 58h5v-122l-113 -61v-307h162v-168h-319z" />
    <glyph glyph-name="Nacute" unicode="&#x143;" horiz-adv-x="475" 
d="M33 0zM361 0l-179 406h-6v-406h-143v757h154l106 -263h6v263h144v-757h-82zM171 789v5l91 168h141v-6l-115 -167h-117z" />
    <glyph glyph-name="nacute" unicode="&#x144;" horiz-adv-x="475" 
d="M33 0zM361 0l-179 406h-6v-406h-143v757h154l106 -263h6v263h144v-757h-82zM171 789v5l91 168h141v-6l-115 -167h-117z" />
    <glyph glyph-name="Ncommaaccent" unicode="&#x145;" horiz-adv-x="475" 
d="M33 0zM361 0l-179 406h-6v-406h-143v757h154l106 -263h6v263h144v-757h-82zM141 -238v5l57 192h136v-6l-80 -191h-113z" />
    <glyph glyph-name="ncommaaccent" unicode="&#x146;" horiz-adv-x="475" 
d="M33 0zM361 0l-179 406h-6v-406h-143v757h154l106 -263h6v263h144v-757h-82zM141 -238v5l57 192h136v-6l-80 -191h-113z" />
    <glyph glyph-name="Ncaron" unicode="&#x147;" horiz-adv-x="475" 
d="M33 0zM361 0l-179 406h-6v-406h-143v757h154l106 -263h6v263h144v-757h-82zM185 789l-124 167v6h123l48 -69h11l46 69h124v-6l-125 -167h-103z" />
    <glyph glyph-name="ncaron" unicode="&#x148;" horiz-adv-x="475" 
d="M33 0zM361 0l-179 406h-6v-406h-143v757h154l106 -263h6v263h144v-757h-82zM185 789l-124 167v6h123l48 -69h11l46 69h124v-6l-125 -167h-103z" />
    <glyph glyph-name="Eng" unicode="&#x14a;" horiz-adv-x="475" 
d="M187 -104h7q22 -5 48 -5q18 0 29.5 3t17.5 11t8 22t2 37v176l-117 266h-6v-406h-143v757h154l106 -263h6v263h144v-796q0 -33 -2 -56t-5.5 -40.5t-10 -30.5t-15.5 -26t-20 -21.5t-27.5 -14t-39.5 -8t-56 -2.5q-6 0 -18 1t-24.5 2.5t-23 4t-14.5 5.5v121z" />
    <glyph glyph-name="eng" unicode="&#x14b;" horiz-adv-x="475" 
d="M33 0zM187 -104h7q22 -5 48 -5q18 0 29.5 3t17.5 11t8 22t2 37v176l-117 266h-6v-406h-143v757h154l106 -263h6v263h144v-796q0 -33 -2 -56t-5.5 -40.5t-10 -30.5t-15.5 -26t-20 -21.5t-27.5 -14t-39.5 -8t-56 -2.5q-6 0 -18 1t-24.5 2.5t-23 4t-14.5 5.5v121z" />
    <glyph glyph-name="Omacron" unicode="&#x14c;" 
d="M22 0zM394 49q-10 -18 -23.5 -29.5t-33.5 -19t-47 -10.5t-63 -3q-73 0 -110.5 13.5t-57.5 48.5q-10 17 -17 37.5t-11.5 55.5t-6.5 91.5t-2 145.5t2 145t6.5 91t11.5 55t17 38q10 17 23.5 29t33.5 19.5t47.5 10.5t63.5 3q72 0 109.5 -14t57.5 -48q10 -18 17 -38t11.5 -55
t6.5 -91t2 -145t-2 -145.5t-6.5 -91.5t-11.5 -55.5t-17 -37.5zM266 174q2 7 4 18t3 33t1.5 59.5t0.5 98.5q0 63 -0.5 101t-1.5 60.5t-3 33.5t-4 18q-4 10 -12 14.5t-27 4.5t-27.5 -4.5t-11.5 -14.5q-3 -7 -4.5 -18t-3 -33.5t-2 -60.5t-0.5 -101q0 -61 0.5 -98.5t2 -59.5
t3 -33t4.5 -18q3 -10 11.5 -14t27.5 -4t27 4t12 14zM27 823v106h400v-106h-400z" />
    <glyph glyph-name="omacron" unicode="&#x14d;" 
d="M22 0zM394 49q-10 -18 -23.5 -29.5t-33.5 -19t-47 -10.5t-63 -3q-73 0 -110.5 13.5t-57.5 48.5q-10 17 -17 37.5t-11.5 55.5t-6.5 91.5t-2 145.5t2 145t6.5 91t11.5 55t17 38q10 17 23.5 29t33.5 19.5t47.5 10.5t63.5 3q72 0 109.5 -14t57.5 -48q10 -18 17 -38t11.5 -55
t6.5 -91t2 -145t-2 -145.5t-6.5 -91.5t-11.5 -55.5t-17 -37.5zM266 174q2 7 4 18t3 33t1.5 59.5t0.5 98.5q0 63 -0.5 101t-1.5 60.5t-3 33.5t-4 18q-4 10 -12 14.5t-27 4.5t-27.5 -4.5t-11.5 -14.5q-3 -7 -4.5 -18t-3 -33.5t-2 -60.5t-0.5 -101q0 -61 0.5 -98.5t2 -59.5
t3 -33t4.5 -18q3 -10 11.5 -14t27.5 -4t27 4t12 14zM27 823v106h400v-106h-400z" />
    <glyph glyph-name="Obreve" unicode="&#x14e;" 
d="M22 0zM394 49q-10 -18 -23.5 -29.5t-33.5 -19t-47 -10.5t-63 -3q-73 0 -110.5 13.5t-57.5 48.5q-10 17 -17 37.5t-11.5 55.5t-6.5 91.5t-2 145.5t2 145t6.5 91t11.5 55t17 38q10 17 23.5 29t33.5 19.5t47.5 10.5t63.5 3q72 0 109.5 -14t57.5 -48q10 -18 17 -38t11.5 -55
t6.5 -91t2 -145t-2 -145.5t-6.5 -91.5t-11.5 -55.5t-17 -37.5zM266 174q2 7 4 18t3 33t1.5 59.5t0.5 98.5q0 63 -0.5 101t-1.5 60.5t-3 33.5t-4 18q-4 10 -12 14.5t-27 4.5t-27.5 -4.5t-11.5 -14.5q-3 -7 -4.5 -18t-3 -33.5t-2 -60.5t-0.5 -101q0 -61 0.5 -98.5t2 -59.5
t3 -33t4.5 -18q3 -10 11.5 -14t27.5 -4t27 4t12 14zM391 962q0 -37 -2 -61t-5.5 -39.5t-8.5 -25t-12 -16.5q-16 -19 -47 -25t-90 -6q-58 0 -89 6t-47 25q-7 7 -12 16.5t-8.5 25t-5.5 39.5t-2 61h102q0 -20 0.5 -32.5t2 -20t3.5 -12t6 -7.5q5 -5 15 -6.5t35 -1.5q26 0 36 1.5
t14 6.5q3 4 5.5 8t4 11.5t2.5 20t1 32.5h102z" />
    <glyph glyph-name="obreve" unicode="&#x14f;" 
d="M22 0zM394 49q-10 -18 -23.5 -29.5t-33.5 -19t-47 -10.5t-63 -3q-73 0 -110.5 13.5t-57.5 48.5q-10 17 -17 37.5t-11.5 55.5t-6.5 91.5t-2 145.5t2 145t6.5 91t11.5 55t17 38q10 17 23.5 29t33.5 19.5t47.5 10.5t63.5 3q72 0 109.5 -14t57.5 -48q10 -18 17 -38t11.5 -55
t6.5 -91t2 -145t-2 -145.5t-6.5 -91.5t-11.5 -55.5t-17 -37.5zM266 174q2 7 4 18t3 33t1.5 59.5t0.5 98.5q0 63 -0.5 101t-1.5 60.5t-3 33.5t-4 18q-4 10 -12 14.5t-27 4.5t-27.5 -4.5t-11.5 -14.5q-3 -7 -4.5 -18t-3 -33.5t-2 -60.5t-0.5 -101q0 -61 0.5 -98.5t2 -59.5
t3 -33t4.5 -18q3 -10 11.5 -14t27.5 -4t27 4t12 14zM391 962q0 -37 -2 -61t-5.5 -39.5t-8.5 -25t-12 -16.5q-16 -19 -47 -25t-90 -6q-58 0 -89 6t-47 25q-7 7 -12 16.5t-8.5 25t-5.5 39.5t-2 61h102q0 -20 0.5 -32.5t2 -20t3.5 -12t6 -7.5q5 -5 15 -6.5t35 -1.5q26 0 36 1.5
t14 6.5q3 4 5.5 8t4 11.5t2.5 20t1 32.5h102z" />
    <glyph glyph-name="Ohungarumlaut" unicode="&#x150;" 
d="M22 0zM394 49q-10 -18 -23.5 -29.5t-33.5 -19t-47 -10.5t-63 -3q-73 0 -110.5 13.5t-57.5 48.5q-10 17 -17 37.5t-11.5 55.5t-6.5 91.5t-2 145.5t2 145t6.5 91t11.5 55t17 38q10 17 23.5 29t33.5 19.5t47.5 10.5t63.5 3q72 0 109.5 -14t57.5 -48q10 -18 17 -38t11.5 -55
t6.5 -91t2 -145t-2 -145.5t-6.5 -91.5t-11.5 -55.5t-17 -37.5zM266 174q2 7 4 18t3 33t1.5 59.5t0.5 98.5q0 63 -0.5 101t-1.5 60.5t-3 33.5t-4 18q-4 10 -12 14.5t-27 4.5t-27.5 -4.5t-11.5 -14.5q-3 -7 -4.5 -18t-3 -33.5t-2 -60.5t-0.5 -101q0 -61 0.5 -98.5t2 -59.5
t3 -33t4.5 -18q3 -10 11.5 -14t27.5 -4t27 4t12 14zM259 789v5l91 168h140v-6l-114 -167h-117zM63 789v5l91 168h141v-6l-115 -167h-117z" />
    <glyph glyph-name="ohungarumlaut" unicode="&#x151;" 
d="M22 0zM394 49q-10 -18 -23.5 -29.5t-33.5 -19t-47 -10.5t-63 -3q-73 0 -110.5 13.5t-57.5 48.5q-10 17 -17 37.5t-11.5 55.5t-6.5 91.5t-2 145.5t2 145t6.5 91t11.5 55t17 38q10 17 23.5 29t33.5 19.5t47.5 10.5t63.5 3q72 0 109.5 -14t57.5 -48q10 -18 17 -38t11.5 -55
t6.5 -91t2 -145t-2 -145.5t-6.5 -91.5t-11.5 -55.5t-17 -37.5zM266 174q2 7 4 18t3 33t1.5 59.5t0.5 98.5q0 63 -0.5 101t-1.5 60.5t-3 33.5t-4 18q-4 10 -12 14.5t-27 4.5t-27.5 -4.5t-11.5 -14.5q-3 -7 -4.5 -18t-3 -33.5t-2 -60.5t-0.5 -101q0 -61 0.5 -98.5t2 -59.5
t3 -33t4.5 -18q3 -10 11.5 -14t27.5 -4t27 4t12 14zM259 789v5l91 168h140v-6l-114 -167h-117zM63 789v5l91 168h141v-6l-115 -167h-117z" />
    <glyph glyph-name="OE" unicode="&#x152;" horiz-adv-x="645" 
d="M226 0q-72 0 -110 13t-57 47q-10 16 -17 36t-11.5 54t-6.5 88.5t-2 140.5t2 140t6.5 88t11.5 53.5t17 36.5q19 33 57 46.5t110 13.5h390v-160h-179v-133h176v-153h-176v-143h178v-168h-389zM281 598h-50q-19 0 -27.5 -4t-11.5 -12q-3 -7 -4.5 -17t-3 -31t-2 -57.5
t-0.5 -94.5t0.5 -93.5t2 -56.5t3 -30.5t4.5 -16.5q3 -10 11.5 -14t27.5 -4h50v431z" />
    <glyph glyph-name="oe" unicode="&#x153;" horiz-adv-x="645" 
d="M22 0zM226 0q-72 0 -110 13t-57 47q-10 16 -17 36t-11.5 54t-6.5 88.5t-2 140.5t2 140t6.5 88t11.5 53.5t17 36.5q19 33 57 46.5t110 13.5h390v-160h-179v-133h176v-153h-176v-143h178v-168h-389zM281 598h-50q-19 0 -27.5 -4t-11.5 -12q-3 -7 -4.5 -17t-3 -31t-2 -57.5
t-0.5 -94.5t0.5 -93.5t2 -56.5t3 -30.5t4.5 -16.5q3 -10 11.5 -14t27.5 -4h50v431z" />
    <glyph glyph-name="Racute" unicode="&#x154;" horiz-adv-x="462" 
d="M34 0zM282 0q-3 9 -5.5 19.5t-5.5 32t-8 59.5t-12 104q-3 26 -6 42t-7 24.5t-10 11t-13 2.5h-24v-295h-157v757h229q51 0 84 -11.5t52.5 -36t27 -63t7.5 -93.5q0 -59 -4 -92.5t-12.5 -52.5t-20.5 -28.5t-28 -18.5v-6q6 -5 12.5 -11t11.5 -20q8 -18 16.5 -54.5
t16.5 -102.5q6 -46 9 -74t5.5 -45t4 -26t4.5 -17v-5h-167zM235 436q22 0 31 18.5t9 71.5q0 45 -10.5 60t-33.5 15h-40v-165h44zM158 789v5l91 168h141v-6l-115 -167h-117z" />
    <glyph glyph-name="racute" unicode="&#x155;" horiz-adv-x="462" 
d="M34 0zM282 0q-3 9 -5.5 19.5t-5.5 32t-8 59.5t-12 104q-3 26 -6 42t-7 24.5t-10 11t-13 2.5h-24v-295h-157v757h229q51 0 84 -11.5t52.5 -36t27 -63t7.5 -93.5q0 -59 -4 -92.5t-12.5 -52.5t-20.5 -28.5t-28 -18.5v-6q6 -5 12.5 -11t11.5 -20q8 -18 16.5 -54.5
t16.5 -102.5q6 -46 9 -74t5.5 -45t4 -26t4.5 -17v-5h-167zM235 436q22 0 31 18.5t9 71.5q0 45 -10.5 60t-33.5 15h-40v-165h44zM158 789v5l91 168h141v-6l-115 -167h-117z" />
    <glyph glyph-name="Rcommaaccent" unicode="&#x156;" horiz-adv-x="462" 
d="M34 0zM282 0q-3 9 -5.5 19.5t-5.5 32t-8 59.5t-12 104q-3 26 -6 42t-7 24.5t-10 11t-13 2.5h-24v-295h-157v757h229q51 0 84 -11.5t52.5 -36t27 -63t7.5 -93.5q0 -59 -4 -92.5t-12.5 -52.5t-20.5 -28.5t-28 -18.5v-6q6 -5 12.5 -11t11.5 -20q8 -18 16.5 -54.5
t16.5 -102.5q6 -46 9 -74t5.5 -45t4 -26t4.5 -17v-5h-167zM235 436q22 0 31 18.5t9 71.5q0 45 -10.5 60t-33.5 15h-40v-165h44zM114 -238v5l57 192h136v-6l-80 -191h-113z" />
    <glyph glyph-name="rcommaaccent" unicode="&#x157;" horiz-adv-x="462" 
d="M34 0zM282 0q-3 9 -5.5 19.5t-5.5 32t-8 59.5t-12 104q-3 26 -6 42t-7 24.5t-10 11t-13 2.5h-24v-295h-157v757h229q51 0 84 -11.5t52.5 -36t27 -63t7.5 -93.5q0 -59 -4 -92.5t-12.5 -52.5t-20.5 -28.5t-28 -18.5v-6q6 -5 12.5 -11t11.5 -20q8 -18 16.5 -54.5
t16.5 -102.5q6 -46 9 -74t5.5 -45t4 -26t4.5 -17v-5h-167zM235 436q22 0 31 18.5t9 71.5q0 45 -10.5 60t-33.5 15h-40v-165h44zM114 -238v5l57 192h136v-6l-80 -191h-113z" />
    <glyph glyph-name="Rcaron" unicode="&#x158;" horiz-adv-x="462" 
d="M34 0zM282 0q-3 9 -5.5 19.5t-5.5 32t-8 59.5t-12 104q-3 26 -6 42t-7 24.5t-10 11t-13 2.5h-24v-295h-157v757h229q51 0 84 -11.5t52.5 -36t27 -63t7.5 -93.5q0 -59 -4 -92.5t-12.5 -52.5t-20.5 -28.5t-28 -18.5v-6q6 -5 12.5 -11t11.5 -20q8 -18 16.5 -54.5
t16.5 -102.5q6 -46 9 -74t5.5 -45t4 -26t4.5 -17v-5h-167zM235 436q22 0 31 18.5t9 71.5q0 45 -10.5 60t-33.5 15h-40v-165h44zM173 789l-124 167v6h123l48 -69h11l46 69h124v-6l-125 -167h-103z" />
    <glyph glyph-name="rcaron" unicode="&#x159;" horiz-adv-x="462" 
d="M34 0zM282 0q-3 9 -5.5 19.5t-5.5 32t-8 59.5t-12 104q-3 26 -6 42t-7 24.5t-10 11t-13 2.5h-24v-295h-157v757h229q51 0 84 -11.5t52.5 -36t27 -63t7.5 -93.5q0 -59 -4 -92.5t-12.5 -52.5t-20.5 -28.5t-28 -18.5v-6q6 -5 12.5 -11t11.5 -20q8 -18 16.5 -54.5
t16.5 -102.5q6 -46 9 -74t5.5 -45t4 -26t4.5 -17v-5h-167zM235 436q22 0 31 18.5t9 71.5q0 45 -10.5 60t-33.5 15h-40v-165h44zM173 789l-124 167v6h123l48 -69h11l46 69h124v-6l-125 -167h-103z" />
    <glyph glyph-name="Sacute" unicode="&#x15a;" horiz-adv-x="420" 
d="M18 0zM250 522q1 8 1 13.5v19.5q0 35 -8.5 48.5t-37.5 13.5t-37 -13.5t-8 -48.5q0 -33 8.5 -46.5t27.5 -24.5q22 -13 41.5 -22t36 -16.5t31.5 -14.5t30 -17q16 -12 28.5 -25.5t20 -35t11.5 -53t4 -78.5q0 -68 -9.5 -113t-32 -72t-61 -38.5t-95.5 -11.5q-94 0 -138 35.5
t-44 124.5q0 29 1.5 58.5t6.5 47.5h131q-2 -6 -2 -13v-15q0 -44 9 -60.5t39 -16.5t39.5 14.5t9.5 62.5q0 29 -9 44t-29 29q-18 12 -38.5 22t-41 19t-39.5 19.5t-34 24.5q-31 27 -37.5 74t-6.5 122q0 53 8.5 89.5t29.5 59t57 32.5t92 10q51 0 85.5 -8t56.5 -27.5t31.5 -51.5
t9.5 -80q0 -31 -1.5 -49t-6.5 -32h-130zM141 789v5l91 168h141v-6l-115 -167h-117z" />
    <glyph glyph-name="sacute" unicode="&#x15b;" horiz-adv-x="420" 
d="M18 0zM250 522q1 8 1 13.5v19.5q0 35 -8.5 48.5t-37.5 13.5t-37 -13.5t-8 -48.5q0 -33 8.5 -46.5t27.5 -24.5q22 -13 41.5 -22t36 -16.5t31.5 -14.5t30 -17q16 -12 28.5 -25.5t20 -35t11.5 -53t4 -78.5q0 -68 -9.5 -113t-32 -72t-61 -38.5t-95.5 -11.5q-94 0 -138 35.5
t-44 124.5q0 29 1.5 58.5t6.5 47.5h131q-2 -6 -2 -13v-15q0 -44 9 -60.5t39 -16.5t39.5 14.5t9.5 62.5q0 29 -9 44t-29 29q-18 12 -38.5 22t-41 19t-39.5 19.5t-34 24.5q-31 27 -37.5 74t-6.5 122q0 53 8.5 89.5t29.5 59t57 32.5t92 10q51 0 85.5 -8t56.5 -27.5t31.5 -51.5
t9.5 -80q0 -31 -1.5 -49t-6.5 -32h-130zM141 789v5l91 168h141v-6l-115 -167h-117z" />
    <glyph glyph-name="Scedilla" unicode="&#x15e;" horiz-adv-x="420" 
d="M18 0zM250 522q1 8 1 13.5v19.5q0 35 -8.5 48.5t-37.5 13.5t-37 -13.5t-8 -48.5q0 -33 8.5 -46.5t27.5 -24.5q22 -13 41.5 -22t36 -16.5t31.5 -14.5t30 -17q16 -12 28.5 -25.5t20 -35t11.5 -53t4 -78.5q0 -68 -9.5 -113t-32 -72t-61 -38.5t-95.5 -11.5q-94 0 -138 35.5
t-44 124.5q0 29 1.5 58.5t6.5 47.5h131q-2 -6 -2 -13v-15q0 -44 9 -60.5t39 -16.5t39.5 14.5t9.5 62.5q0 29 -9 44t-29 29q-18 12 -38.5 22t-41 19t-39.5 19.5t-34 24.5q-31 27 -37.5 74t-6.5 122q0 53 8.5 89.5t29.5 59t57 32.5t92 10q51 0 85.5 -8t56.5 -27.5t31.5 -51.5
t9.5 -80q0 -31 -1.5 -49t-6.5 -32h-130zM74 -238v5l57 192h136v-6l-80 -191h-113z" />
    <glyph glyph-name="scedilla" unicode="&#x15f;" horiz-adv-x="420" 
d="M18 0zM250 522q1 8 1 13.5v19.5q0 35 -8.5 48.5t-37.5 13.5t-37 -13.5t-8 -48.5q0 -33 8.5 -46.5t27.5 -24.5q22 -13 41.5 -22t36 -16.5t31.5 -14.5t30 -17q16 -12 28.5 -25.5t20 -35t11.5 -53t4 -78.5q0 -68 -9.5 -113t-32 -72t-61 -38.5t-95.5 -11.5q-94 0 -138 35.5
t-44 124.5q0 29 1.5 58.5t6.5 47.5h131q-2 -6 -2 -13v-15q0 -44 9 -60.5t39 -16.5t39.5 14.5t9.5 62.5q0 29 -9 44t-29 29q-18 12 -38.5 22t-41 19t-39.5 19.5t-34 24.5q-31 27 -37.5 74t-6.5 122q0 53 8.5 89.5t29.5 59t57 32.5t92 10q51 0 85.5 -8t56.5 -27.5t31.5 -51.5
t9.5 -80q0 -31 -1.5 -49t-6.5 -32h-130zM74 -238v5l57 192h136v-6l-80 -191h-113z" />
    <glyph glyph-name="Scaron" unicode="&#x160;" horiz-adv-x="420" 
d="M18 0zM250 522q1 8 1 13.5v19.5q0 35 -8.5 48.5t-37.5 13.5t-37 -13.5t-8 -48.5q0 -33 8.5 -46.5t27.5 -24.5q22 -13 41.5 -22t36 -16.5t31.5 -14.5t30 -17q16 -12 28.5 -25.5t20 -35t11.5 -53t4 -78.5q0 -68 -9.5 -113t-32 -72t-61 -38.5t-95.5 -11.5q-94 0 -138 35.5
t-44 124.5q0 29 1.5 58.5t6.5 47.5h131q-2 -6 -2 -13v-15q0 -44 9 -60.5t39 -16.5t39.5 14.5t9.5 62.5q0 29 -9 44t-29 29q-18 12 -38.5 22t-41 19t-39.5 19.5t-34 24.5q-31 27 -37.5 74t-6.5 122q0 53 8.5 89.5t29.5 59t57 32.5t92 10q51 0 85.5 -8t56.5 -27.5t31.5 -51.5
t9.5 -80q0 -31 -1.5 -49t-6.5 -32h-130zM158 789l-124 167v6h123l48 -69h11l46 69h124v-6l-125 -167h-103z" />
    <glyph glyph-name="scaron" unicode="&#x161;" horiz-adv-x="420" 
d="M18 0zM250 522q1 8 1 13.5v19.5q0 35 -8.5 48.5t-37.5 13.5t-37 -13.5t-8 -48.5q0 -33 8.5 -46.5t27.5 -24.5q22 -13 41.5 -22t36 -16.5t31.5 -14.5t30 -17q16 -12 28.5 -25.5t20 -35t11.5 -53t4 -78.5q0 -68 -9.5 -113t-32 -72t-61 -38.5t-95.5 -11.5q-94 0 -138 35.5
t-44 124.5q0 29 1.5 58.5t6.5 47.5h131q-2 -6 -2 -13v-15q0 -44 9 -60.5t39 -16.5t39.5 14.5t9.5 62.5q0 29 -9 44t-29 29q-18 12 -38.5 22t-41 19t-39.5 19.5t-34 24.5q-31 27 -37.5 74t-6.5 122q0 53 8.5 89.5t29.5 59t57 32.5t92 10q51 0 85.5 -8t56.5 -27.5t31.5 -51.5
t9.5 -80q0 -31 -1.5 -49t-6.5 -32h-130zM158 789l-124 167v6h123l48 -69h11l46 69h124v-6l-125 -167h-103z" />
    <glyph glyph-name="uni0162" unicode="&#x162;" horiz-adv-x="421" 
d="M13 0zM132 0v597h-119v160h395v-160h-119v-597h-157zM87 -238v5l57 192h136v-6l-80 -191h-113z" />
    <glyph glyph-name="uni0163" unicode="&#x163;" horiz-adv-x="421" 
d="M13 0zM132 0v597h-119v160h395v-160h-119v-597h-157zM87 -238v5l57 192h136v-6l-80 -191h-113z" />
    <glyph glyph-name="Tcaron" unicode="&#x164;" horiz-adv-x="421" 
d="M13 0zM132 0v597h-119v160h395v-160h-119v-597h-157zM158 789l-124 167v6h123l48 -69h11l46 69h124v-6l-125 -167h-103z" />
    <glyph glyph-name="tcaron" unicode="&#x165;" horiz-adv-x="421" 
d="M13 0zM132 0v597h-119v160h395v-160h-119v-597h-157zM158 789l-124 167v6h123l48 -69h11l46 69h124v-6l-125 -167h-103z" />
    <glyph glyph-name="Tbar" unicode="&#x166;" horiz-adv-x="421" 
d="M132 0v341h-84v124h84v132h-119v160h395v-160h-119v-132h83v-124h-83v-341h-157z" />
    <glyph glyph-name="tbar" unicode="&#x167;" horiz-adv-x="421" 
d="M13 0zM132 0v341h-84v124h84v132h-119v160h395v-160h-119v-132h83v-124h-83v-341h-157z" />
    <glyph glyph-name="Utilde" unicode="&#x168;" horiz-adv-x="462" 
d="M27 0zM279 757h156v-524q-1 -47 -4 -78t-7.5 -52t-10.5 -34.5t-14 -26.5q-10 -16 -23.5 -26.5t-33.5 -17t-47 -9t-63 -2.5q-73 0 -111 11.5t-57 43.5q-8 13 -15 26.5t-12 34.5t-7.5 52t-2.5 78v524h161v-524q0 -27 1.5 -42t6.5 -23t14 -10t24 -2t23.5 2t13.5 10t6.5 23
t1.5 42v524zM431 856q-23 -32 -49.5 -46.5t-62.5 -14.5q-26 0 -49.5 7t-46 15.5t-44.5 15.5t-43 7q-31 0 -54 -13.5t-46 -44.5h-5v110q15 23 39.5 40.5t60.5 17.5q30 0 56 -7t49.5 -15.5t45 -15.5t41.5 -7q31 0 55.5 12.5t47.5 44.5h5v-106z" />
    <glyph glyph-name="utilde" unicode="&#x169;" horiz-adv-x="462" 
d="M27 0zM279 757h156v-524q-1 -47 -4 -78t-7.5 -52t-10.5 -34.5t-14 -26.5q-10 -16 -23.5 -26.5t-33.5 -17t-47 -9t-63 -2.5q-73 0 -111 11.5t-57 43.5q-8 13 -15 26.5t-12 34.5t-7.5 52t-2.5 78v524h161v-524q0 -27 1.5 -42t6.5 -23t14 -10t24 -2t23.5 2t13.5 10t6.5 23
t1.5 42v524zM431 856q-23 -32 -49.5 -46.5t-62.5 -14.5q-26 0 -49.5 7t-46 15.5t-44.5 15.5t-43 7q-31 0 -54 -13.5t-46 -44.5h-5v110q15 23 39.5 40.5t60.5 17.5q30 0 56 -7t49.5 -15.5t45 -15.5t41.5 -7q31 0 55.5 12.5t47.5 44.5h5v-106z" />
    <glyph glyph-name="Umacron" unicode="&#x16a;" horiz-adv-x="462" 
d="M27 0zM279 757h156v-524q-1 -47 -4 -78t-7.5 -52t-10.5 -34.5t-14 -26.5q-10 -16 -23.5 -26.5t-33.5 -17t-47 -9t-63 -2.5q-73 0 -111 11.5t-57 43.5q-8 13 -15 26.5t-12 34.5t-7.5 52t-2.5 78v524h161v-524q0 -27 1.5 -42t6.5 -23t14 -10t24 -2t23.5 2t13.5 10t6.5 23
t1.5 42v524zM31 823v106h400v-106h-400z" />
    <glyph glyph-name="umacron" unicode="&#x16b;" horiz-adv-x="462" 
d="M27 0zM279 757h156v-524q-1 -47 -4 -78t-7.5 -52t-10.5 -34.5t-14 -26.5q-10 -16 -23.5 -26.5t-33.5 -17t-47 -9t-63 -2.5q-73 0 -111 11.5t-57 43.5q-8 13 -15 26.5t-12 34.5t-7.5 52t-2.5 78v524h161v-524q0 -27 1.5 -42t6.5 -23t14 -10t24 -2t23.5 2t13.5 10t6.5 23
t1.5 42v524zM31 823v106h400v-106h-400z" />
    <glyph glyph-name="Ubreve" unicode="&#x16c;" horiz-adv-x="462" 
d="M27 0zM279 757h156v-524q-1 -47 -4 -78t-7.5 -52t-10.5 -34.5t-14 -26.5q-10 -16 -23.5 -26.5t-33.5 -17t-47 -9t-63 -2.5q-73 0 -111 11.5t-57 43.5q-8 13 -15 26.5t-12 34.5t-7.5 52t-2.5 78v524h161v-524q0 -27 1.5 -42t6.5 -23t14 -10t24 -2t23.5 2t13.5 10t6.5 23
t1.5 42v524zM395 962q0 -37 -2 -61t-5.5 -39.5t-8.5 -25t-12 -16.5q-16 -19 -47 -25t-90 -6q-58 0 -89 6t-47 25q-7 7 -12 16.5t-8.5 25t-5.5 39.5t-2 61h102q0 -20 0.5 -32.5t2 -20t3.5 -12t6 -7.5q5 -5 15 -6.5t35 -1.5q26 0 36 1.5t14 6.5q3 4 5.5 8t4 11.5t2.5 20
t1 32.5h102z" />
    <glyph glyph-name="ubreve" unicode="&#x16d;" horiz-adv-x="462" 
d="M27 0zM279 757h156v-524q-1 -47 -4 -78t-7.5 -52t-10.5 -34.5t-14 -26.5q-10 -16 -23.5 -26.5t-33.5 -17t-47 -9t-63 -2.5q-73 0 -111 11.5t-57 43.5q-8 13 -15 26.5t-12 34.5t-7.5 52t-2.5 78v524h161v-524q0 -27 1.5 -42t6.5 -23t14 -10t24 -2t23.5 2t13.5 10t6.5 23
t1.5 42v524zM395 962q0 -37 -2 -61t-5.5 -39.5t-8.5 -25t-12 -16.5q-16 -19 -47 -25t-90 -6q-58 0 -89 6t-47 25q-7 7 -12 16.5t-8.5 25t-5.5 39.5t-2 61h102q0 -20 0.5 -32.5t2 -20t3.5 -12t6 -7.5q5 -5 15 -6.5t35 -1.5q26 0 36 1.5t14 6.5q3 4 5.5 8t4 11.5t2.5 20
t1 32.5h102z" />
    <glyph glyph-name="Uring" unicode="&#x16e;" horiz-adv-x="462" 
d="M27 0zM279 757h156v-524q-1 -47 -4 -78t-7.5 -52t-10.5 -34.5t-14 -26.5q-10 -16 -23.5 -26.5t-33.5 -17t-47 -9t-63 -2.5q-73 0 -111 11.5t-57 43.5q-8 13 -15 26.5t-12 34.5t-7.5 52t-2.5 78v524h161v-524q0 -27 1.5 -42t6.5 -23t14 -10t24 -2t23.5 2t13.5 10t6.5 23
t1.5 42v524zM317 790q-10 -9 -30 -12t-56 -3q-38 0 -57.5 3t-29.5 12q-5 4 -8.5 8.5t-5.5 13t-3 21.5t-1 35t1 35.5t3 21.5t5.5 13t8.5 9q10 8 30 11.5t57 3.5q36 0 56 -3.5t30 -11.5q5 -4 8.5 -9t6 -13t3.5 -21.5t1 -35.5t-1 -35t-3.5 -21.5t-6 -13t-8.5 -8.5zM261 839
q4 2 5.5 7t1.5 23q0 20 -1.5 25t-5.5 8q-2 2 -8.5 3t-21.5 1q-16 0 -22 -1t-10 -3t-5 -7.5t-1 -25.5q0 -18 1 -23t5 -7t10 -3t22 -1q15 0 21 1t9 3z" />
    <glyph glyph-name="uring" unicode="&#x16f;" horiz-adv-x="462" 
d="M27 0zM279 757h156v-524q-1 -47 -4 -78t-7.5 -52t-10.5 -34.5t-14 -26.5q-10 -16 -23.5 -26.5t-33.5 -17t-47 -9t-63 -2.5q-73 0 -111 11.5t-57 43.5q-8 13 -15 26.5t-12 34.5t-7.5 52t-2.5 78v524h161v-524q0 -27 1.5 -42t6.5 -23t14 -10t24 -2t23.5 2t13.5 10t6.5 23
t1.5 42v524zM317 790q-10 -9 -30 -12t-56 -3q-38 0 -57.5 3t-29.5 12q-5 4 -8.5 8.5t-5.5 13t-3 21.5t-1 35t1 35.5t3 21.5t5.5 13t8.5 9q10 8 30 11.5t57 3.5q36 0 56 -3.5t30 -11.5q5 -4 8.5 -9t6 -13t3.5 -21.5t1 -35.5t-1 -35t-3.5 -21.5t-6 -13t-8.5 -8.5zM261 839
q4 2 5.5 7t1.5 23q0 20 -1.5 25t-5.5 8q-2 2 -8.5 3t-21.5 1q-16 0 -22 -1t-10 -3t-5 -7.5t-1 -25.5q0 -18 1 -23t5 -7t10 -3t22 -1q15 0 21 1t9 3z" />
    <glyph glyph-name="Uhungarumlaut" unicode="&#x170;" horiz-adv-x="462" 
d="M27 0zM279 757h156v-524q-1 -47 -4 -78t-7.5 -52t-10.5 -34.5t-14 -26.5q-10 -16 -23.5 -26.5t-33.5 -17t-47 -9t-63 -2.5q-73 0 -111 11.5t-57 43.5q-8 13 -15 26.5t-12 34.5t-7.5 52t-2.5 78v524h161v-524q0 -27 1.5 -42t6.5 -23t14 -10t24 -2t23.5 2t13.5 10t6.5 23
t1.5 42v524zM263 789v5l91 168h140v-6l-114 -167h-117zM67 789v5l91 168h141v-6l-115 -167h-117z" />
    <glyph glyph-name="uhungarumlaut" unicode="&#x171;" horiz-adv-x="462" 
d="M27 0zM279 757h156v-524q-1 -47 -4 -78t-7.5 -52t-10.5 -34.5t-14 -26.5q-10 -16 -23.5 -26.5t-33.5 -17t-47 -9t-63 -2.5q-73 0 -111 11.5t-57 43.5q-8 13 -15 26.5t-12 34.5t-7.5 52t-2.5 78v524h161v-524q0 -27 1.5 -42t6.5 -23t14 -10t24 -2t23.5 2t13.5 10t6.5 23
t1.5 42v524zM263 789v5l91 168h140v-6l-114 -167h-117zM67 789v5l91 168h141v-6l-115 -167h-117z" />
    <glyph glyph-name="Uogonek" unicode="&#x172;" horiz-adv-x="462" 
d="M345 -200q-8 -11 -39 -24.5t-85 -13.5q-134 0 -134 106q0 17 5.5 34.5t19 33t37 29t59.5 22.5q-61 2 -93.5 14t-50.5 41q-8 13 -15 26.5t-12 34.5t-7.5 52t-2.5 78v524h161v-524q0 -27 1.5 -42t6.5 -23t14 -10t24 -2t23.5 2t13.5 10t6.5 23t1.5 42v524h156v-524
q-1 -47 -4 -78t-7.5 -52t-10.5 -34.5t-14 -26.5q-10 -15 -22.5 -25.5t-31.5 -16.5q-18 -6 -36 -12.5t-32.5 -15t-23.5 -19t-9 -24.5q0 -24 11 -35t39 -11q16 0 27 3.5t19 6.5h5v-93z" />
    <glyph glyph-name="uogonek" unicode="&#x173;" horiz-adv-x="462" 
d="M27 0zM345 -200q-8 -11 -39 -24.5t-85 -13.5q-134 0 -134 106q0 17 5.5 34.5t19 33t37 29t59.5 22.5q-61 2 -93.5 14t-50.5 41q-8 13 -15 26.5t-12 34.5t-7.5 52t-2.5 78v524h161v-524q0 -27 1.5 -42t6.5 -23t14 -10t24 -2t23.5 2t13.5 10t6.5 23t1.5 42v524h156v-524
q-1 -47 -4 -78t-7.5 -52t-10.5 -34.5t-14 -26.5q-10 -15 -22.5 -25.5t-31.5 -16.5q-18 -6 -36 -12.5t-32.5 -15t-23.5 -19t-9 -24.5q0 -24 11 -35t39 -11q16 0 27 3.5t19 6.5h5v-93z" />
    <glyph glyph-name="Wcircumflex" unicode="&#x174;" horiz-adv-x="723" 
d="M14 0zM422 0l-52 464h-11l-56 -464h-222l-67 757h159l34 -515h11l69 515h158l70 -515h11l33 515h150l-65 -757h-222zM417 789l-47 69h-11l-47 -69h-123v5l124 168h103l125 -168v-5h-124z" />
    <glyph glyph-name="wcircumflex" unicode="&#x175;" horiz-adv-x="723" 
d="M14 0zM422 0l-52 464h-11l-56 -464h-222l-67 757h159l34 -515h11l69 515h158l70 -515h11l33 515h150l-65 -757h-222zM417 789l-47 69h-11l-47 -69h-123v5l124 168h103l125 -168v-5h-124z" />
    <glyph glyph-name="Ycircumflex" unicode="&#x176;" horiz-adv-x="447" 
d="M4 0zM142 0v276l-138 476v5h162q16 -71 25.5 -113.5t15 -68t8.5 -38.5t5 -25h10q2 12 5 25t8.5 38.5t15.5 68t27 113.5h157v-5l-132 -474v-278h-169zM276 789l-47 69h-11l-47 -69h-123v5l124 168h103l125 -168v-5h-124z" />
    <glyph glyph-name="ycircumflex" unicode="&#x177;" horiz-adv-x="447" 
d="M4 0zM142 0v276l-138 476v5h162q16 -71 25.5 -113.5t15 -68t8.5 -38.5t5 -25h10q2 12 5 25t8.5 38.5t15.5 68t27 113.5h157v-5l-132 -474v-278h-169zM276 789l-47 69h-11l-47 -69h-123v5l124 168h103l125 -168v-5h-124z" />
    <glyph glyph-name="Ydieresis" unicode="&#x178;" horiz-adv-x="447" 
d="M4 0zM142 0v276l-138 476v5h162q16 -71 25.5 -113.5t15 -68t8.5 -38.5t5 -25h10q2 12 5 25t8.5 38.5t15.5 68t27 113.5h157v-5l-132 -474v-278h-169zM260 810v123h134v-123h-134zM54 810v123h135v-123h-135z" />
    <glyph glyph-name="Zacute" unicode="&#x179;" horiz-adv-x="454" 
d="M24 0zM24 0v179l200 407l-4 10h-188v161h405v-86l-239 -494l5 -9h227v-168h-406zM168 789v5l91 168h141v-6l-115 -167h-117z" />
    <glyph glyph-name="zacute" unicode="&#x17a;" horiz-adv-x="454" 
d="M24 0zM24 0v179l200 407l-4 10h-188v161h405v-86l-239 -494l5 -9h227v-168h-406zM168 789v5l91 168h141v-6l-115 -167h-117z" />
    <glyph glyph-name="Zdotaccent" unicode="&#x17b;" horiz-adv-x="454" 
d="M24 0zM24 0v179l200 407l-4 10h-188v161h405v-86l-239 -494l5 -9h227v-168h-406zM164 810v123h135v-123h-135z" />
    <glyph glyph-name="zdotaccent" unicode="&#x17c;" horiz-adv-x="454" 
d="M24 0zM24 0v179l200 407l-4 10h-188v161h405v-86l-239 -494l5 -9h227v-168h-406zM164 810v123h135v-123h-135z" />
    <glyph glyph-name="Zcaron" unicode="&#x17d;" horiz-adv-x="454" 
d="M24 0zM24 0v179l200 407l-4 10h-188v161h405v-86l-239 -494l5 -9h227v-168h-406zM183 789l-124 167v6h123l48 -69h11l46 69h124v-6l-125 -167h-103z" />
    <glyph glyph-name="zcaron" unicode="&#x17e;" horiz-adv-x="454" 
d="M24 0zM24 0v179l200 407l-4 10h-188v161h405v-86l-239 -494l5 -9h227v-168h-406zM183 789l-124 167v6h123l48 -69h11l46 69h124v-6l-125 -167h-103z" />
    <glyph glyph-name="florin" unicode="&#x192;" 
d="M35 -104h7q10 -2 21.5 -3.5t26.5 -1.5q18 0 29.5 3t17.5 11t8 22t2 37v473h-59v123h59v61q0 27 2 46.5t6 34.5t10.5 27.5t15.5 24.5q18 26 54 36.5t102 10.5q6 0 18 -1t24.5 -3t23 -4t14.5 -5v-123h-6q-10 3 -22 5t-28 2q-18 0 -29 -3t-17.5 -11t-8.5 -22.5t-2 -37.5v-38
h108v-123h-108v-476q0 -33 -2 -56t-6 -40.5t-10 -30.5t-15 -26q-18 -26 -54 -36t-102 -10q-7 0 -19 1t-24 2.5t-22.5 4t-14.5 5.5v121z" />
    <glyph glyph-name="Scommaaccent" unicode="&#x218;" horiz-adv-x="420" 
d="M18 0zM250 522q1 8 1 13.5v19.5q0 35 -8.5 48.5t-37.5 13.5t-37 -13.5t-8 -48.5q0 -33 8.5 -46.5t27.5 -24.5q22 -13 41.5 -22t36 -16.5t31.5 -14.5t30 -17q16 -12 28.5 -25.5t20 -35t11.5 -53t4 -78.5q0 -68 -9.5 -113t-32 -72t-61 -38.5t-95.5 -11.5q-94 0 -138 35.5
t-44 124.5q0 29 1.5 58.5t6.5 47.5h131q-2 -6 -2 -13v-15q0 -44 9 -60.5t39 -16.5t39.5 14.5t9.5 62.5q0 29 -9 44t-29 29q-18 12 -38.5 22t-41 19t-39.5 19.5t-34 24.5q-31 27 -37.5 74t-6.5 122q0 53 8.5 89.5t29.5 59t57 32.5t92 10q51 0 85.5 -8t56.5 -27.5t31.5 -51.5
t9.5 -80q0 -31 -1.5 -49t-6.5 -32h-130zM74 -238v5l57 192h136v-6l-80 -191h-113z" />
    <glyph glyph-name="scommaaccent" unicode="&#x219;" horiz-adv-x="420" 
d="M18 0zM250 522q1 8 1 13.5v19.5q0 35 -8.5 48.5t-37.5 13.5t-37 -13.5t-8 -48.5q0 -33 8.5 -46.5t27.5 -24.5q22 -13 41.5 -22t36 -16.5t31.5 -14.5t30 -17q16 -12 28.5 -25.5t20 -35t11.5 -53t4 -78.5q0 -68 -9.5 -113t-32 -72t-61 -38.5t-95.5 -11.5q-94 0 -138 35.5
t-44 124.5q0 29 1.5 58.5t6.5 47.5h131q-2 -6 -2 -13v-15q0 -44 9 -60.5t39 -16.5t39.5 14.5t9.5 62.5q0 29 -9 44t-29 29q-18 12 -38.5 22t-41 19t-39.5 19.5t-34 24.5q-31 27 -37.5 74t-6.5 122q0 53 8.5 89.5t29.5 59t57 32.5t92 10q51 0 85.5 -8t56.5 -27.5t31.5 -51.5
t9.5 -80q0 -31 -1.5 -49t-6.5 -32h-130zM74 -238v5l57 192h136v-6l-80 -191h-113z" />
    <glyph glyph-name="uni021A" unicode="&#x21a;" horiz-adv-x="421" 
d="M13 0zM132 0v597h-119v160h395v-160h-119v-597h-157zM87 -238v5l57 192h136v-6l-80 -191h-113z" />
    <glyph glyph-name="uni021B" unicode="&#x21b;" horiz-adv-x="421" 
d="M13 0zM132 0v597h-119v160h395v-160h-119v-597h-157zM87 -238v5l57 192h136v-6l-80 -191h-113z" />
    <glyph glyph-name="circumflex" unicode="&#x2c6;" horiz-adv-x="420" 
d="M262 592l-47 69h-11l-47 -69h-123v5l124 168h103l125 -168v-5h-124z" />
    <glyph glyph-name="caron" unicode="&#x2c7;" horiz-adv-x="420" 
d="M158 592l-124 167v6h123l48 -69h11l46 69h124v-6l-125 -167h-103z" />
    <glyph glyph-name="breve" unicode="&#x2d8;" horiz-adv-x="397" 
d="M363 765q0 -37 -2 -61t-5.5 -39.5t-8.5 -25t-12 -16.5q-16 -19 -47 -25t-90 -6q-58 0 -89 6t-47 25q-7 7 -12 16.5t-8.5 25t-5.5 39.5t-2 61h102q0 -20 0.5 -32.5t2 -20t3.5 -12t6 -7.5q5 -5 15 -6.5t35 -1.5q26 0 36 1.5t14 6.5q3 4 5.5 8t4 11.5t2.5 20t1 32.5h102z
" />
    <glyph glyph-name="dotaccent" unicode="&#x2d9;" horiz-adv-x="203" 
d="M34 613v123h135v-123h-135z" />
    <glyph glyph-name="ring" unicode="&#x2da;" horiz-adv-x="278" 
d="M225 593q-10 -9 -30 -12t-56 -3q-38 0 -57.5 3t-29.5 12q-5 4 -8.5 8.5t-5.5 13t-3 21.5t-1 35t1 35.5t3 21.5t5.5 13t8.5 9q10 8 30 11.5t57 3.5q36 0 56 -3.5t30 -11.5q5 -4 8.5 -9t6 -13t3.5 -21.5t1 -35.5t-1 -35t-3.5 -21.5t-6 -13t-8.5 -8.5zM169 642q4 2 5.5 7
t1.5 23q0 20 -1.5 25t-5.5 8q-2 2 -8.5 3t-21.5 1q-16 0 -22 -1t-10 -3t-5 -7.5t-1 -25.5q0 -18 1 -23t5 -7t10 -3t22 -1q15 0 21 1t9 3z" />
    <glyph glyph-name="ogonek" unicode="&#x2db;" horiz-adv-x="327" 
d="M292 -200q-8 -11 -39 -24.5t-85 -13.5q-134 0 -134 106q0 21 8 42t30 39t61 31.5t100 19.5h60q-18 -6 -36.5 -13t-33 -15t-23.5 -18.5t-9 -24.5q0 -24 11 -35t39 -11q16 0 27 3.5t19 6.5h5v-93z" />
    <glyph glyph-name="tilde" unicode="&#x2dc;" horiz-adv-x="468" 
d="M434 659q-23 -32 -49.5 -46.5t-62.5 -14.5q-26 0 -49.5 7t-46 15.5t-44.5 15.5t-43 7q-31 0 -54 -13.5t-46 -44.5h-5v110q15 23 39.5 40.5t60.5 17.5q30 0 56 -7t49.5 -15.5t45 -15.5t41.5 -7q31 0 55.5 12.5t47.5 44.5h5v-106z" />
    <glyph glyph-name="hungarumlaut" unicode="&#x2dd;" horiz-adv-x="495" 
d="M230 592v5l91 168h140v-6l-114 -167h-117zM34 592v5l91 168h141v-6l-115 -167h-117z" />
    <glyph glyph-name="Delta" unicode="&#x394;" 
d="M11 0l156 757h127l147 -757h-430zM214 441h-11l-55 -273h109z" />
    <glyph glyph-name="Omega" unicode="&#x3a9;" 
d="M250 0v137q8 7 15.5 35.5t13.5 76t10 112t4 144.5q0 40 -3.5 62.5t-12 33t-21 12.5t-30.5 2t-30.5 -2t-20.5 -12.5t-11.5 -33t-3.5 -62.5q0 -80 3.5 -144.5t9.5 -112t13.5 -76t15.5 -35.5v-137h-176v168h59l2 8q-19 22 -32 45.5t-21 62.5t-11.5 101.5t-3.5 163.5
q0 78 6 122.5t27 66t62 27t112 5.5t112.5 -5.5t62.5 -27t27 -66t6 -122.5q0 -101 -3.5 -163.5t-11.5 -101.5t-21 -62.5t-32 -45.5l2 -8h58v-168h-176z" />
    <glyph glyph-name="mu" unicode="&#x3bc;" 
d="M32 -238v798h157v-396q0 -26 8 -37t29 -11q24 0 38 16v428h157v-560h-142l-2 34l-6 2q-31 -37 -82 -46v-228h-157z" />
    <glyph glyph-name="pi" unicode="&#x3c0;" horiz-adv-x="554" 
d="M532 25q-8 -11 -39 -24.5t-86 -13.5q-67 0 -100.5 30.5t-33.5 105.5v314h-81v-437h-157v560h395v-406q0 -24 11 -35t40 -11q15 0 26 3.5t19 6.5h6v-93z" />
    <glyph glyph-name="Wgrave" unicode="&#x1e80;" horiz-adv-x="723" 
d="M14 0zM422 0l-52 464h-11l-56 -464h-222l-67 757h159l34 -515h11l69 515h158l70 -515h11l33 515h150l-65 -757h-222zM314 789l-115 167v6h141l91 -168v-5h-117z" />
    <glyph glyph-name="wgrave" unicode="&#x1e81;" horiz-adv-x="723" 
d="M14 0zM422 0l-52 464h-11l-56 -464h-222l-67 757h159l34 -515h11l69 515h158l70 -515h11l33 515h150l-65 -757h-222zM314 789l-115 167v6h141l91 -168v-5h-117z" />
    <glyph glyph-name="Wacute" unicode="&#x1e82;" horiz-adv-x="723" 
d="M14 0zM422 0l-52 464h-11l-56 -464h-222l-67 757h159l34 -515h11l69 515h158l70 -515h11l33 515h150l-65 -757h-222zM299 789v5l91 168h141v-6l-115 -167h-117z" />
    <glyph glyph-name="wacute" unicode="&#x1e83;" horiz-adv-x="723" 
d="M14 0zM422 0l-52 464h-11l-56 -464h-222l-67 757h159l34 -515h11l69 515h158l70 -515h11l33 515h150l-65 -757h-222zM299 789v5l91 168h141v-6l-115 -167h-117z" />
    <glyph glyph-name="Wdieresis" unicode="&#x1e84;" horiz-adv-x="723" 
d="M14 0zM422 0l-52 464h-11l-56 -464h-222l-67 757h159l34 -515h11l69 515h158l70 -515h11l33 515h150l-65 -757h-222zM401 810v123h134v-123h-134zM195 810v123h135v-123h-135z" />
    <glyph glyph-name="wdieresis" unicode="&#x1e85;" horiz-adv-x="723" 
d="M14 0zM422 0l-52 464h-11l-56 -464h-222l-67 757h159l34 -515h11l69 515h158l70 -515h11l33 515h150l-65 -757h-222zM401 810v123h134v-123h-134zM195 810v123h135v-123h-135z" />
    <glyph glyph-name="Ygrave" unicode="&#x1ef2;" horiz-adv-x="447" 
d="M4 0zM142 0v276l-138 476v5h162q16 -71 25.5 -113.5t15 -68t8.5 -38.5t5 -25h10q2 12 5 25t8.5 38.5t15.5 68t27 113.5h157v-5l-132 -474v-278h-169zM173 789l-115 167v6h141l91 -168v-5h-117z" />
    <glyph glyph-name="ygrave" unicode="&#x1ef3;" horiz-adv-x="447" 
d="M4 0zM142 0v276l-138 476v5h162q16 -71 25.5 -113.5t15 -68t8.5 -38.5t5 -25h10q2 12 5 25t8.5 38.5t15.5 68t27 113.5h157v-5l-132 -474v-278h-169zM173 789l-115 167v6h141l91 -168v-5h-117z" />
    <glyph glyph-name="endash" unicode="&#x2013;" horiz-adv-x="551" 
d="M20 319v124h510v-124h-510z" />
    <glyph glyph-name="emdash" unicode="&#x2014;" horiz-adv-x="767" 
d="M20 319v124h726v-124h-726z" />
    <glyph glyph-name="quoteleft" unicode="&#x2018;" horiz-adv-x="225" 
d="M34 494v148l75 146h75v-6l-48 -137l3 -9h52v-142h-157z" />
    <glyph glyph-name="quoteright" unicode="&#x2019;" horiz-adv-x="225" 
d="M40 494v6l49 137l-3 9h-52v142h157v-147l-75 -147h-76z" />
    <glyph glyph-name="quotesinglbase" unicode="&#x201a;" horiz-adv-x="225" 
d="M40 -142v6l49 137l-3 9h-52v141h157v-147l-75 -146h-76z" />
    <glyph glyph-name="quotedblleft" unicode="&#x201c;" horiz-adv-x="450" 
d="M34 494zM34 494v148l75 146h75v-6l-48 -137l3 -9h52v-142h-157zM259 494v148l75 146h75v-6l-48 -137l3 -9h52v-142h-157z" />
    <glyph glyph-name="quotedblright" unicode="&#x201d;" horiz-adv-x="450" 
d="M34 494zM40 494v6l49 137l-3 9h-52v142h157v-147l-75 -147h-76zM265 494v6l49 137l-3 9h-52v142h157v-147l-75 -147h-76z" />
    <glyph glyph-name="quotedblbase" unicode="&#x201e;" horiz-adv-x="450" 
d="M34 0zM40 -142v6l49 137l-3 9h-52v141h157v-147l-75 -146h-76zM265 -142v6l49 137l-3 9h-52v141h157v-147l-75 -146h-76z" />
    <glyph glyph-name="dagger" unicode="&#x2020;" horiz-adv-x="459" 
d="M223 0l-36 128v371h-153v84h153v174h84v-174h154v-84h-154v-371l-37 -128h-11z" />
    <glyph glyph-name="daggerdbl" unicode="&#x2021;" horiz-adv-x="459" 
d="M187 0v174h-153v84h153v34l30 86l-30 87v34h-153v84h153v174h84v-174h154v-84h-154v-34l-30 -87l30 -86v-34h154v-84h-154v-174h-84z" />
    <glyph glyph-name="bullet" unicode="&#x2022;" horiz-adv-x="335" 
d="M278 253q-14 -13 -38.5 -18t-72.5 -5q-46 0 -71.5 5t-37.5 18q-6 6 -10.5 13.5t-7.5 20.5t-4.5 34t-1.5 54t1.5 53.5t4.5 33.5t7.5 21t10.5 14q12 13 37.5 17.5t71.5 4.5q48 0 73 -4.5t38 -17.5q6 -6 10.5 -14t7 -21t4 -33.5t1.5 -53.5t-1.5 -54t-4 -34t-7 -20.5
t-10.5 -13.5z" />
    <glyph glyph-name="ellipsis" unicode="&#x2026;" horiz-adv-x="923" 
d="M53 0zM53 0v151h157v-151h-157zM383 0v151h157v-151h-157zM713 0v151h157v-151h-157z" />
    <glyph glyph-name="perthousand" unicode="&#x2030;" horiz-adv-x="843" 
d="M13 0zM129 341q-41 0 -64 4.5t-34.5 25.5t-14.5 64.5t-3 122.5q0 78 3 122t14.5 65t34.5 25.5t64 4.5q40 0 63.5 -4.5t35 -25.5t14.5 -65t3 -122q0 -79 -3 -122.5t-14.5 -64.5t-35 -25.5t-63.5 -4.5zM129 444q7 0 11 2t6 13t2.5 34.5t0.5 66.5q0 44 -0.5 68t-2 35.5
t-6 13.5t-11.5 2q-8 0 -12 -2t-5.5 -13.5t-2 -35.5t-0.5 -68q0 -43 0.5 -66.5t2.5 -34.5t6 -13t11 -2zM28 0v5l433 752h97v-5l-434 -752h-96zM462 -17q-41 0 -64 4.5t-34.5 25.5t-14.5 64.5t-3 122.5q0 78 3 122t14.5 65t34.5 25.5t64 4.5q40 0 63.5 -4.5t35 -25.5t14.5 -65
t3 -122q0 -79 -3 -122.5t-14.5 -64.5t-35 -25.5t-63.5 -4.5zM462 86q7 0 11 2t6 13t2.5 34.5t0.5 66.5q0 44 -0.5 68t-2 35.5t-6 13.5t-11.5 2q-8 0 -12 -2t-5.5 -13.5t-2 -35.5t-0.5 -68q0 -43 0.5 -66.5t2.5 -34.5t6 -13t11 -2zM711 -17q-41 0 -64 4.5t-34.5 25.5
t-14.5 64.5t-3 122.5q0 78 3 122t14.5 65t34.5 25.5t64 4.5q40 0 63.5 -4.5t35 -25.5t14.5 -65t3 -122q0 -79 -3 -122.5t-14.5 -64.5t-35 -25.5t-63.5 -4.5zM711 86q7 0 11 2t6 13t2.5 34.5t0.5 66.5q0 44 -0.5 68t-2 35.5t-6 13.5t-11.5 2q-8 0 -12 -2t-5.5 -13.5t-2 -35.5
t-0.5 -68q0 -43 0.5 -66.5t2.5 -34.5t6 -13t11 -2z" />
    <glyph glyph-name="minute" unicode="&#x2032;" horiz-adv-x="269" 
d="M11 484l98 304h149l-141 -304h-106z" />
    <glyph glyph-name="second" unicode="&#x2033;" horiz-adv-x="499" 
d="M241 484l98 304h149l-141 -304h-106zM11 484l98 304h149l-141 -304h-106z" />
    <glyph glyph-name="guilsinglleft" unicode="&#x2039;" horiz-adv-x="248" 
d="M222 182l-202 147v103l202 150h5v-124l-103 -72v-11l103 -70v-123h-5z" />
    <glyph glyph-name="guilsinglright" unicode="&#x203a;" horiz-adv-x="248" 
d="M25 182h-5v123l103 70v11l-103 72v124h5l202 -150v-103z" />
    <glyph glyph-name="fraction" unicode="&#x2044;" horiz-adv-x="184" 
d="M-173 0v5l433 752h97v-5l-434 -752h-96z" />
    <glyph glyph-name="zerosuperior" unicode="&#x2070;" horiz-adv-x="279" 
d="M22 341zM138 341q-41 0 -64 4.5t-34.5 25.5t-14.5 64.5t-3 122.5q0 78 3 122t14.5 65t34.5 25.5t64 4.5q40 0 63.5 -4.5t35 -25.5t14.5 -65t3 -122q0 -79 -3 -122.5t-14.5 -64.5t-35 -25.5t-63.5 -4.5zM138 444q7 0 11 2t6 13t2.5 34.5t0.5 66.5q0 44 -0.5 68t-2 35.5
t-6 13.5t-11.5 2q-8 0 -12 -2t-5.5 -13.5t-2 -35.5t-0.5 -68q0 -43 0.5 -66.5t2.5 -34.5t6 -13t11 -2z" />
    <glyph glyph-name="foursuperior" unicode="&#x2074;" horiz-adv-x="279" 
d="M17 348zM138 348v69h-121v85l122 265h90v-264h30v-86h-30v-69h-91zM141 590h-4l-38 -87h42v87z" />
    <glyph glyph-name="fivesuperior" unicode="&#x2075;" horiz-adv-x="279" 
d="M24 341zM128 669l-3 -33l3 -2q13 7 38 7q45 0 66.5 -27.5t21.5 -95.5q0 -58 -4.5 -93t-17.5 -53.5t-36.5 -24.5t-60.5 -6q-36 0 -58 8t-33.5 24.5t-15.5 41t-4 58.5v22t1 20h91q-1 -5 -1 -11v-12q0 -22 3 -35t17 -13q18 0 20.5 16t2.5 56q0 26 -4.5 33.5t-21.5 7.5
q-14 0 -26 -11l-73 22l13 199h201v-98h-119z" />
    <glyph glyph-name="sixsuperior" unicode="&#x2076;" horiz-adv-x="279" 
d="M23 341zM159 644q1 5 1 15q0 14 -5 17t-16 3q-6 0 -10 -1.5t-6.5 -8t-3.5 -20.5t-1 -39q11 2 21 3t18 1q24 0 42 -5.5t30.5 -19.5t18.5 -38t6 -61q0 -47 -5 -76t-18 -45.5t-35.5 -22t-56.5 -5.5q-38 0 -60.5 6.5t-35 28.5t-16.5 65t-4 117q0 78 3 122t14.5 65t34.5 25.5
t64 4.5q34 0 55.5 -3t33.5 -13t16.5 -29.5t4.5 -53.5v-17t-1 -15h-89zM118 502q0 -23 1.5 -33t3.5 -18q2 -7 17 -7q6 0 9.5 1.5t5.5 7.5t2.5 19t0.5 36q0 17 -4 23t-15 6q-8 0 -13 -1t-8 -3v-31z" />
    <glyph glyph-name="sevensuperior" unicode="&#x2077;" horiz-adv-x="279" 
d="M23 348zM45 348l93 317l-2 4h-113v98h230v-54l-101 -365h-107z" />
    <glyph glyph-name="eightsuperior" unicode="&#x2078;" horiz-adv-x="279" 
d="M20 341zM225 564q7 -5 13 -10t10 -15.5t6 -28t2 -46.5q0 -35 -4 -58.5t-16.5 -37.5t-35.5 -20.5t-62 -6.5t-62 6.5t-35.5 20.5t-16.5 37.5t-4 58.5q0 29 2 46.5t6 28t10 15.5t14 10q-15 12 -21 31t-6 61q0 39 4.5 62t17.5 36t34.5 17t56.5 4t57 -4t34.5 -17t17 -36
t4.5 -62q0 -42 -6 -61t-20 -31zM138 442q14 0 20 7t6 27q0 35 -5 42t-21 7q-8 0 -13 -1t-8 -6t-4 -14.5t-1 -27.5q0 -20 6 -27t20 -7zM138 599q12 0 16.5 6.5t4.5 38.5q0 26 -3.5 32t-17.5 6t-17.5 -5.5t-3.5 -31.5q0 -32 4 -39t17 -7z" />
    <glyph glyph-name="ninesuperior" unicode="&#x2079;" horiz-adv-x="279" 
d="M22 348zM71 348v12q21 33 41.5 71.5t31.5 73.5l-3 3q-5 -2 -13 -3t-16 -1q-29 0 -46.5 5.5t-27 20.5t-13 41.5t-3.5 67.5q0 44 4 70.5t16 41t35 19.5t61 5q39 0 62 -5t35 -20t15.5 -42t3.5 -72q0 -79 -19.5 -147.5t-57.5 -140.5h-106zM137 587q14 0 17.5 6.5t3.5 27.5
q0 23 -1.5 33.5t-3.5 17.5q-2 5 -5 6.5t-11 1.5q-6 0 -10 -1.5t-6 -8t-2.5 -19.5t-0.5 -36q0 -17 4 -22.5t15 -5.5z" />
    <glyph glyph-name="zeroinferior" unicode="&#x2080;" horiz-adv-x="279" 
d="M138 -17q-41 0 -64 4.5t-34.5 25.5t-14.5 64.5t-3 122.5q0 78 3 122t14.5 65t34.5 25.5t64 4.5q40 0 63.5 -4.5t35 -25.5t14.5 -65t3 -122q0 -79 -3 -122.5t-14.5 -64.5t-35 -25.5t-63.5 -4.5zM138 86q7 0 11 2t6 13t2.5 34.5t0.5 66.5q0 44 -0.5 68t-2 35.5t-6 13.5
t-11.5 2q-8 0 -12 -2t-5.5 -13.5t-2 -35.5t-0.5 -68q0 -43 0.5 -66.5t2.5 -34.5t6 -13t11 -2z" />
    <glyph glyph-name="oneinferior" unicode="&#x2081;" horiz-adv-x="279" 
d="M32 -10v102h59v166h-60v86h42q12 0 18.5 2.5t10.5 9t5 19.5t1 34h82v-317h55v-102h-213z" />
    <glyph glyph-name="twoinferior" unicode="&#x2082;" horiz-adv-x="279" 
d="M31 -10v102l69 68q14 13 22.5 21.5t13.5 14.5t7.5 10t5.5 10q5 11 6 21.5t1 39.5q0 15 -1 23.5t-3 13.5q-2 3 -5 5t-11 2q-15 0 -18 -7q-2 -4 -2.5 -12t-0.5 -28v-17.5t2 -12.5h-92q-2 13 -2 22v25q0 34 4 58t16.5 39t34.5 22t58 7q34 0 56 -6t35.5 -21.5t19 -42.5
t5.5 -69q0 -18 -0.5 -30t-1.5 -21t-3 -16.5t-6 -16.5q-7 -15 -17 -29t-33 -36l-42 -40h100v-99h-218z" />
    <glyph glyph-name="threeinferior" unicode="&#x2083;" horiz-adv-x="279" 
d="M88 166v76h49q14 0 17.5 6.5t3.5 37.5q0 26 -3.5 31.5t-17.5 5.5q-15 0 -18.5 -5.5t-3.5 -33.5v-8.5t1 -8.5h-91q-1 6 -1 11.5v11.5q0 34 4.5 58.5t17 39.5t34.5 22t57 7t57 -4t34.5 -17t17 -36t4.5 -62q0 -42 -6 -61t-20 -31q7 -5 13 -10t10 -15.5t6 -28t2 -46.5
q0 -35 -4 -58.5t-16 -37.5t-35.5 -20.5t-62.5 -6.5q-38 0 -60.5 8t-34.5 24.5t-16 41t-4 58.5q0 5 0.5 12t1.5 16h91q-1 -5 -1 -9.5v-9.5q0 -12 0.5 -18t2.5 -12q2 -5 6 -7t14 -2q14 0 20 6.5t6 26.5q0 17 -0.5 26.5t-3.5 14.5t-8 6t-14 1h-49z" />
    <glyph glyph-name="fourinferior" unicode="&#x2084;" horiz-adv-x="279" 
d="M138 -10v69h-121v85l122 265h90v-264h30v-86h-30v-69h-91zM141 232h-4l-38 -87h42v87z" />
    <glyph glyph-name="fiveinferior" unicode="&#x2085;" horiz-adv-x="279" 
d="M128 311l-3 -33l3 -2q13 7 38 7q45 0 66.5 -27.5t21.5 -95.5q0 -58 -4.5 -93t-17.5 -53.5t-36.5 -24.5t-60.5 -6q-36 0 -58 8t-33.5 24.5t-15.5 41t-4 58.5v22t1 20h91q-1 -5 -1 -11v-12q0 -22 3 -35t17 -13q18 0 20.5 16t2.5 56q0 26 -4.5 33.5t-21.5 7.5q-14 0 -26 -11
l-73 22l13 199h201v-98h-119z" />
    <glyph glyph-name="sixinferior" unicode="&#x2086;" horiz-adv-x="279" 
d="M159 286q1 5 1 15q0 14 -5 17t-16 3q-6 0 -10 -1.5t-6.5 -8t-3.5 -20.5t-1 -39q11 2 21 3t18 1q24 0 42 -5.5t30.5 -19.5t18.5 -38t6 -61q0 -47 -5 -76t-18 -45.5t-35.5 -22t-56.5 -5.5q-38 0 -60.5 6.5t-35 28.5t-16.5 65t-4 117q0 78 3 122t14.5 65t34.5 25.5t64 4.5
q34 0 55.5 -3t33.5 -13t16.5 -29.5t4.5 -53.5v-17t-1 -15h-89zM118 144q0 -23 1.5 -33t3.5 -18q2 -7 17 -7q6 0 9.5 1.5t5.5 7.5t2.5 19t0.5 36q0 17 -4 23t-15 6q-8 0 -13 -1t-8 -3v-31z" />
    <glyph glyph-name="seveninferior" unicode="&#x2087;" horiz-adv-x="279" 
d="M45 -10l93 317l-2 4h-113v98h230v-54l-101 -365h-107z" />
    <glyph glyph-name="eightinferior" unicode="&#x2088;" horiz-adv-x="279" 
d="M225 206q7 -5 13 -10t10 -15.5t6 -28t2 -46.5q0 -35 -4 -58.5t-16.5 -37.5t-35.5 -20.5t-62 -6.5t-62 6.5t-35.5 20.5t-16.5 37.5t-4 58.5q0 29 2 46.5t6 28t10 15.5t14 10q-15 12 -21 31t-6 61q0 39 4.5 62t17.5 36t34.5 17t56.5 4t57 -4t34.5 -17t17 -36t4.5 -62
q0 -42 -6 -61t-20 -31zM138 84q14 0 20 7t6 27q0 35 -5 42t-21 7q-8 0 -13 -1t-8 -6t-4 -14.5t-1 -27.5q0 -20 6 -27t20 -7zM138 241q12 0 16.5 6.5t4.5 38.5q0 26 -3.5 32t-17.5 6t-17.5 -5.5t-3.5 -31.5q0 -32 4 -39t17 -7z" />
    <glyph glyph-name="nineinferior" unicode="&#x2089;" horiz-adv-x="279" 
d="M71 -10v12q21 33 41.5 71.5t31.5 73.5l-3 3q-5 -2 -13 -3t-16 -1q-29 0 -46.5 5.5t-27 20.5t-13 41.5t-3.5 67.5q0 44 4 70.5t16 41t35 19.5t61 5q39 0 62 -5t35 -20t15.5 -42t3.5 -72q0 -79 -19.5 -147.5t-57.5 -140.5h-106zM137 229q14 0 17.5 6.5t3.5 27.5
q0 23 -1.5 33.5t-3.5 17.5q-2 5 -5 6.5t-11 1.5q-6 0 -10 -1.5t-6 -8t-2.5 -19.5t-0.5 -36q0 -17 4 -22.5t15 -5.5z" />
    <glyph glyph-name="Euro" unicode="&#x20ac;" 
d="M436 207q2 -20 3.5 -39t1.5 -36q0 -36 -7.5 -63t-27.5 -45t-55 -27.5t-90 -9.5q-65 0 -104 6.5t-61 35t-30 88t-9 165.5h-46l15 64h31v77h-46l15 64h31q1 94 9.5 150t31.5 85.5t64 38.5t109 9q59 0 95 -15t47 -31l-34 -144h-5q-13 17 -34.5 28t-56.5 11q-27 0 -43.5 -3
t-24.5 -16t-11 -39.5t-3 -73.5h156l-15 -64h-141v-77h124l-15 -64h-109q1 -47 3.5 -73.5t8.5 -39.5t16.5 -16.5t27.5 -3.5q18 0 28 4t14.5 11.5t5.5 18t1 24.5h130z" />
    <glyph glyph-name="uni20B9" unicode="&#x20b9;" 
d="M223 0q-3 8 -6 17.5t-6 30.5t-7.5 59t-10.5 103q-2 28 -11.5 38t-25.5 10h-127l28 113h120q19 0 28 17.5t11 67.5h-193l18 63h176q-1 27 -4 43.5t-8.5 25t-13.5 11t-18 2.5h-148l49 156h356l-67 -140q6 -11 9.5 -34t3.5 -64h50l-18 -63h-34q-2 -41 -7.5 -68t-13.5 -45
t-18.5 -29t-23.5 -18v-6q13 -8 22 -15.5t15.5 -20t11 -33.5t7.5 -54q5 -46 8.5 -74t6 -45t4.5 -26t5 -17v-5h-168z" />
    <glyph glyph-name="uni20BA" unicode="&#x20ba;" 
d="M49 0v322l-36 -9v67l36 10v73l-36 -10v67l36 10v227h157v-182l193 54v-67l-193 -55v-73l193 54v-67l-193 -54v-200h27q15 0 23.5 1.5t13.5 9.5t7 26t4 51h159q-1 -47 -3.5 -78.5t-7 -53t-10.5 -36t-14 -27.5q-10 -17 -23.5 -28.5t-33.5 -18.5t-47 -10t-63 -3h-189z" />
    <glyph glyph-name="trademark" unicode="&#x2122;" horiz-adv-x="737" 
d="M93 398v274h-74v85h249v-85h-75v-274h-100zM612 398v198h-11l-73 -198h-50l-74 198h-11v-198h-91v359h142l51 -167h11l56 167h141v-359h-91z" />
    <glyph glyph-name="onethird" unicode="&#x2153;" horiz-adv-x="619" 
d="M13 0zM14 348v102h59v166h-60v86h42q12 0 18.5 2.5t10.5 9t5 19.5t1 34h82v-317h55v-102h-213zM48 0v5l433 752h97v-5l-434 -752h-96zM437 166v76h49q14 0 17.5 6.5t3.5 37.5q0 26 -3.5 31.5t-17.5 5.5q-15 0 -18.5 -5.5t-3.5 -33.5v-8.5t1 -8.5h-91q-1 6 -1 11.5v11.5
q0 34 4.5 58.5t17 39.5t34.5 22t57 7t57 -4t34.5 -17t17 -36t4.5 -62q0 -42 -6 -61t-20 -31q7 -5 13 -10t10 -15.5t6 -28t2 -46.5q0 -35 -4 -58.5t-16 -37.5t-35.5 -20.5t-62.5 -6.5q-38 0 -60.5 8t-34.5 24.5t-16 41t-4 58.5q0 5 0.5 12t1.5 16h91q-1 -5 -1 -9.5v-9.5
q0 -12 0.5 -18t2.5 -12q2 -5 6 -7t14 -2q14 0 20 6.5t6 26.5q0 17 -0.5 26.5t-3.5 14.5t-8 6t-14 1h-49z" />
    <glyph glyph-name="twothirds" unicode="&#x2154;" horiz-adv-x="619" 
d="M8 0zM16 348v102l69 68q14 13 22.5 21.5t13.5 14.5t7.5 10t5.5 10q5 11 6 21.5t1 39.5q0 15 -1 23.5t-3 13.5q-2 3 -5 5t-11 2q-15 0 -18 -7q-2 -4 -2.5 -12t-0.5 -28v-17.5t2 -12.5h-92q-2 13 -2 22v25q0 34 4 58t16.5 39t34.5 22t58 7q34 0 56 -6t35.5 -21.5t19 -42.5
t5.5 -69q0 -18 -0.5 -30t-1.5 -21t-3 -16.5t-6 -16.5q-7 -15 -17 -29t-33 -36l-42 -40h100v-99h-218zM56 0v5l433 752h97v-5l-434 -752h-96zM444 166v76h49q14 0 17.5 6.5t3.5 37.5q0 26 -3.5 31.5t-17.5 5.5q-15 0 -18.5 -5.5t-3.5 -33.5v-8.5t1 -8.5h-91q-1 6 -1 11.5
v11.5q0 34 4.5 58.5t17 39.5t34.5 22t57 7t57 -4t34.5 -17t17 -36t4.5 -62q0 -42 -6 -61t-20 -31q7 -5 13 -10t10 -15.5t6 -28t2 -46.5q0 -35 -4 -58.5t-16 -37.5t-35.5 -20.5t-62.5 -6.5q-38 0 -60.5 8t-34.5 24.5t-16 41t-4 58.5q0 5 0.5 12t1.5 16h91q-1 -5 -1 -9.5v-9.5
q0 -12 0.5 -18t2.5 -12q2 -5 6 -7t14 -2q14 0 20 6.5t6 26.5q0 17 -0.5 26.5t-3.5 14.5t-8 6t-14 1h-49z" />
    <glyph glyph-name="oneeighth" unicode="&#x215b;" horiz-adv-x="619" 
d="M11 0zM12 348v102h59v166h-60v86h42q12 0 18.5 2.5t10.5 9t5 19.5t1 34h82v-317h55v-102h-213zM46 0v5l433 752h97v-5l-434 -752h-96zM576 206q7 -5 13 -10t10 -15.5t6 -28t2 -46.5q0 -35 -4 -58.5t-16.5 -37.5t-35.5 -20.5t-62 -6.5t-62 6.5t-35.5 20.5t-16.5 37.5
t-4 58.5q0 29 2 46.5t6 28t10 15.5t14 10q-15 12 -21 31t-6 61q0 39 4.5 62t17.5 36t34.5 17t56.5 4t57 -4t34.5 -17t17 -36t4.5 -62q0 -42 -6 -61t-20 -31zM489 84q14 0 20 7t6 27q0 35 -5 42t-21 7q-8 0 -13 -1t-8 -6t-4 -14.5t-1 -27.5q0 -20 6 -27t20 -7zM489 241
q12 0 16.5 6.5t4.5 38.5q0 26 -3.5 32t-17.5 6t-17.5 -5.5t-3.5 -31.5q0 -32 4 -39t17 -7z" />
    <glyph glyph-name="threeeighths" unicode="&#x215c;" horiz-adv-x="619" 
d="M15 0zM81 524v76h49q14 0 17.5 6.5t3.5 37.5q0 26 -3.5 31.5t-17.5 5.5q-15 0 -18.5 -5.5t-3.5 -33.5v-8.5t1 -8.5h-91q-1 6 -1 11.5v11.5q0 34 4.5 58.5t17 39.5t34.5 22t57 7t57 -4t34.5 -17t17 -36t4.5 -62q0 -42 -6 -61t-20 -31q7 -5 13 -10t10 -15.5t6 -28t2 -46.5
q0 -35 -4 -58.5t-16 -37.5t-35.5 -20.5t-62.5 -6.5q-38 0 -60.5 8t-34.5 24.5t-16 41t-4 58.5q0 5 0.5 12t1.5 16h91q-1 -5 -1 -9.5v-9.5q0 -12 0.5 -18t2.5 -12q2 -5 6 -7t14 -2q14 0 20 6.5t6 26.5q0 17 -0.5 26.5t-3.5 14.5t-8 6t-14 1h-49zM42 0v5l433 752h97v-5
l-434 -752h-96zM569 206q7 -5 13 -10t10 -15.5t6 -28t2 -46.5q0 -35 -4 -58.5t-16.5 -37.5t-35.5 -20.5t-62 -6.5t-62 6.5t-35.5 20.5t-16.5 37.5t-4 58.5q0 29 2 46.5t6 28t10 15.5t14 10q-15 12 -21 31t-6 61q0 39 4.5 62t17.5 36t34.5 17t56.5 4t57 -4t34.5 -17t17 -36
t4.5 -62q0 -42 -6 -61t-20 -31zM482 84q14 0 20 7t6 27q0 35 -5 42t-21 7q-8 0 -13 -1t-8 -6t-4 -14.5t-1 -27.5q0 -20 6 -27t20 -7zM482 241q12 0 16.5 6.5t4.5 38.5q0 26 -3.5 32t-17.5 6t-17.5 -5.5t-3.5 -31.5q0 -32 4 -39t17 -7z" />
    <glyph glyph-name="fiveeighths" unicode="&#x215d;" horiz-adv-x="619" 
d="M17 0zM121 669l-3 -33l3 -2q13 7 38 7q45 0 66.5 -27.5t21.5 -95.5q0 -58 -4.5 -93t-17.5 -53.5t-36.5 -24.5t-60.5 -6q-36 0 -58 8t-33.5 24.5t-15.5 41t-4 58.5v22t1 20h91q-1 -5 -1 -11v-12q0 -22 3 -35t17 -13q18 0 20.5 16t2.5 56q0 26 -4.5 33.5t-21.5 7.5
q-14 0 -26 -11l-73 22l13 199h201v-98h-119zM39 0v5l433 752h97v-5l-434 -752h-96zM570 206q7 -5 13 -10t10 -15.5t6 -28t2 -46.5q0 -35 -4 -58.5t-16.5 -37.5t-35.5 -20.5t-62 -6.5t-62 6.5t-35.5 20.5t-16.5 37.5t-4 58.5q0 29 2 46.5t6 28t10 15.5t14 10q-15 12 -21 31
t-6 61q0 39 4.5 62t17.5 36t34.5 17t56.5 4t57 -4t34.5 -17t17 -36t4.5 -62q0 -42 -6 -61t-20 -31zM483 84q14 0 20 7t6 27q0 35 -5 42t-21 7q-8 0 -13 -1t-8 -6t-4 -14.5t-1 -27.5q0 -20 6 -27t20 -7zM483 241q12 0 16.5 6.5t4.5 38.5q0 26 -3.5 32t-17.5 6t-17.5 -5.5
t-3.5 -31.5q0 -32 4 -39t17 -7z" />
    <glyph glyph-name="seveneighths" unicode="&#x215e;" horiz-adv-x="619" 
d="M26 0zM48 348l93 317l-2 4h-113v98h230v-54l-101 -365h-107zM27 0v5l433 752h97v-5l-434 -752h-96zM569 206q7 -5 13 -10t10 -15.5t6 -28t2 -46.5q0 -35 -4 -58.5t-16.5 -37.5t-35.5 -20.5t-62 -6.5t-62 6.5t-35.5 20.5t-16.5 37.5t-4 58.5q0 29 2 46.5t6 28t10 15.5
t14 10q-15 12 -21 31t-6 61q0 39 4.5 62t17.5 36t34.5 17t56.5 4t57 -4t34.5 -17t17 -36t4.5 -62q0 -42 -6 -61t-20 -31zM482 84q14 0 20 7t6 27q0 35 -5 42t-21 7q-8 0 -13 -1t-8 -6t-4 -14.5t-1 -27.5q0 -20 6 -27t20 -7zM482 241q12 0 16.5 6.5t4.5 38.5q0 26 -3.5 32
t-17.5 6t-17.5 -5.5t-3.5 -31.5q0 -32 4 -39t17 -7z" />
    <glyph glyph-name="partialdiff" unicode="&#x2202;" 
d="M321 412q1 8 1.5 16t0.5 22q0 91 -29.5 139t-80.5 48q-16 0 -25 -4l-5 131q11 2 23 4t24 2q40 0 76.5 -18t65 -59t45.5 -106.5t17 -159.5q0 -93 -10.5 -173.5t-37.5 -140t-72.5 -94t-114.5 -34.5q-88 0 -134.5 62t-46.5 179q0 74 13.5 124.5t38 82t58.5 45.5t74 14
q35 0 64.5 -21.5t44.5 -58.5h10zM307 291q-11 31 -31.5 50.5t-64.5 19.5q-36 0 -55.5 -34t-19.5 -102q0 -56 20.5 -84t52.5 -28q42 0 66 43.5t32 134.5z" />
    <glyph glyph-name="product" unicode="&#x220f;" 
d="M315 -238v1083h-178v-1083h-117v1200h412v-1200h-117z" />
    <glyph glyph-name="summation" unicode="&#x2211;" 
d="M22 -238v23l219 474l-219 477v21h408v-133h-221l157 -365l-157 -365h221v-132h-408z" />
    <glyph glyph-name="minus" unicode="&#x2212;" 
d="M15 321v117h423v-117h-423z" />
    <glyph glyph-name="radical" unicode="&#x221a;" 
d="M154 0l-81 321h-69v117h158l52 -252h10l108 571h117v-5l-165 -752h-130z" />
    <glyph glyph-name="infinity" unicode="&#x221e;" horiz-adv-x="796" 
d="M396 263q-32 -46 -80.5 -75.5t-123.5 -29.5q-77 0 -117.5 56t-40.5 164q0 111 41 166t117 55q37 0 67 -8t54 -22.5t44 -34t39 -43.5q20 24 41.5 43.5t46 34t54.5 22.5t67 8q76 0 116.5 -55t40.5 -166q0 -108 -39.5 -164t-117.5 -56q-38 0 -68.5 8t-55.5 22t-45.5 33
t-39.5 42zM343 373q-14 18 -28 32.5t-29.5 25.5t-33.5 17t-40 6t-34 -5.5t-17.5 -16t-6.5 -24.5t-1 -30q0 -20 1 -35t6.5 -26t17.5 -16.5t34 -5.5q24 0 43.5 7t35 18.5t28.5 25t24 27.5zM453 373q11 -14 24 -27.5t29 -25t35 -18.5t42 -7t35.5 5.5t18.5 16.5t7 26t1 35
q0 16 -1 30t-7 24.5t-18.5 16t-35.5 5.5q-43 0 -73 -23t-57 -58z" />
    <glyph glyph-name="integral" unicode="&#x222b;" 
d="M33 -238v117h89q29 0 37.5 10.5t8.5 41.5v863q0 91 37 129.5t123 38.5h92v-117h-88q-29 0 -38 -10.5t-9 -41.5v-863q0 -46 -8.5 -78t-28 -52t-50 -29t-73.5 -9h-92z" />
    <glyph glyph-name="approxequal" unicode="&#x2248;" 
d="M15 133zM438 212q-24 -35 -52 -49.5t-67 -14.5q-26 0 -51 7.5t-49 16t-47 16t-45 7.5q-34 0 -57 -14t-47 -48h-8v117q17 26 42.5 44.5t63.5 18.5q32 0 59.5 -7.5t52 -17t47 -17t44.5 -7.5q32 0 58 14t49 48h7v-114zM438 512q-24 -35 -52 -49.5t-67 -14.5q-26 0 -51 7.5
t-49 16t-47 16t-45 7.5q-34 0 -57 -14t-47 -48h-8v117q17 26 42.5 44.5t63.5 18.5q32 0 59.5 -7.5t52 -17t47 -17t44.5 -7.5q32 0 58 14t49 48h7v-114z" />
    <glyph glyph-name="notequal" unicode="&#x2260;" 
d="M187 192l-91 -192h-96v5l88 187h-73v116h128l68 143h-196v117h251l90 189h97v-5l-88 -184h73v-117h-128l-68 -143h196v-116h-251z" />
    <glyph glyph-name="lessequal" unicode="&#x2264;" 
d="M15 0zM433 137l-418 184v117l418 184h5v-126l-271 -111v-11l271 -110v-127h-5zM15 -59v117h423v-117h-423z" />
    <glyph glyph-name="greaterequal" unicode="&#x2265;" 
d="M15 0zM21 137h-6v127l272 110v11l-272 111v126h6l417 -184v-117zM15 -59v117h423v-117h-423z" />
    <glyph glyph-name="lozenge" unicode="&#x25ca;" 
d="M176 0l-147 378l147 379h102l145 -379l-145 -378h-102zM306 378l-74 212h-10l-75 -212l75 -210h10z" />
    <glyph glyph-name=".null" horiz-adv-x="0" 
 />
    <glyph glyph-name="nonmarkingreturn" horiz-adv-x="198" 
 />
    <glyph glyph-name=".ttfautohint" horiz-adv-x="198" 
d="M0 0z" />
    </font>
</defs>
</svg>
